{
	"patcher" : 	{
		"fileversion" : 1,
		"rect" : [ 317.0, 81.0, 1083.0, 912.0 ],
		"bglocked" : 0,
		"defrect" : [ 317.0, 81.0, 1083.0, 912.0 ],
		"openrect" : [ 0.0, 0.0, 0.0, 0.0 ],
		"openinpresentation" : 0,
		"default_fontsize" : 12.0,
		"default_fontface" : 0,
		"default_fontname" : "Arial",
		"gridonopen" : 0,
		"gridsize" : [ 15.0, 15.0 ],
		"gridsnaponopen" : 0,
		"toolbarvisible" : 1,
		"boxanimatetime" : 200,
		"imprint" : 0,
		"enablehscroll" : 1,
		"enablevscroll" : 1,
		"devicewidth" : 0.0,
		"boxes" : [ 			{
				"box" : 				{
					"maxclass" : "newobj",
					"text" : "cv.jit.blobs.bounds.draw",
					"numinlets" : 2,
					"id" : "obj-40",
					"fontname" : "Arial",
					"numoutlets" : 1,
					"patching_rect" : [ 567.0, 446.0, 138.0, 20.0 ],
					"outlettype" : [ "jit_matrix" ],
					"fontsize" : 12.0
				}

			}
, 			{
				"box" : 				{
					"maxclass" : "newobj",
					"text" : "cv.jit.blobs.recon",
					"numinlets" : 1,
					"id" : "obj-39",
					"fontname" : "Arial",
					"numoutlets" : 2,
					"patching_rect" : [ 538.0, 405.0, 99.0, 20.0 ],
					"outlettype" : [ "jit_matrix", "" ],
					"fontsize" : 12.0
				}

			}
, 			{
				"box" : 				{
					"maxclass" : "message",
					"text" : "115",
					"numinlets" : 2,
					"id" : "obj-38",
					"fontname" : "Arial",
					"numoutlets" : 1,
					"patching_rect" : [ 739.0, 129.0, 32.5, 18.0 ],
					"outlettype" : [ "" ],
					"fontsize" : 12.0
				}

			}
, 			{
				"box" : 				{
					"maxclass" : "newobj",
					"text" : "loadbang",
					"numinlets" : 1,
					"id" : "obj-30",
					"fontname" : "Arial",
					"numoutlets" : 1,
					"patching_rect" : [ 197.0, 0.0, 60.0, 20.0 ],
					"outlettype" : [ "bang" ],
					"fontsize" : 12.0
				}

			}
, 			{
				"box" : 				{
					"maxclass" : "newobj",
					"text" : "jit.rgb2luma",
					"numinlets" : 1,
					"id" : "obj-16",
					"fontname" : "Arial",
					"numoutlets" : 2,
					"patching_rect" : [ 357.0, 371.0, 62.0, 18.0 ],
					"outlettype" : [ "jit_matrix", "" ],
					"fontsize" : 10.0
				}

			}
, 			{
				"box" : 				{
					"maxclass" : "message",
					"text" : "brgb 0 0 0",
					"numinlets" : 2,
					"id" : "obj-14",
					"fontname" : "Arial",
					"numoutlets" : 1,
					"patching_rect" : [ 156.0, 118.0, 65.0, 18.0 ],
					"outlettype" : [ "" ],
					"fontsize" : 12.0
				}

			}
, 			{
				"box" : 				{
					"maxclass" : "message",
					"text" : "frgb 255 255 255",
					"numinlets" : 2,
					"id" : "obj-15",
					"fontname" : "Arial",
					"numoutlets" : 1,
					"patching_rect" : [ 156.0, 94.0, 101.0, 18.0 ],
					"outlettype" : [ "" ],
					"fontsize" : 12.0
				}

			}
, 			{
				"box" : 				{
					"maxclass" : "newobj",
					"text" : "jit.op @op &",
					"numinlets" : 2,
					"id" : "obj-11",
					"fontname" : "Arial",
					"numoutlets" : 2,
					"patching_rect" : [ 499.0, 509.0, 76.0, 20.0 ],
					"outlettype" : [ "jit_matrix", "" ],
					"fontsize" : 12.0
				}

			}
, 			{
				"box" : 				{
					"maxclass" : "newobj",
					"text" : "jit.lcd 4 char 800 600",
					"numinlets" : 1,
					"id" : "obj-72",
					"fontname" : "Arial",
					"numoutlets" : 2,
					"patching_rect" : [ 263.0, 216.0, 121.0, 20.0 ],
					"outlettype" : [ "jit_matrix", "" ],
					"fontsize" : 12.0
				}

			}
, 			{
				"box" : 				{
					"maxclass" : "newobj",
					"text" : "r packeds",
					"numinlets" : 0,
					"id" : "obj-81",
					"fontname" : "Arial",
					"numoutlets" : 1,
					"patching_rect" : [ 264.0, 40.0, 63.0, 20.0 ],
					"outlettype" : [ "" ],
					"fontsize" : 12.0
				}

			}
, 			{
				"box" : 				{
					"maxclass" : "message",
					"text" : "paintrect 225 213 623 605",
					"numinlets" : 2,
					"id" : "obj-82",
					"fontname" : "Arial",
					"numoutlets" : 1,
					"patching_rect" : [ 309.0, 177.0, 151.0, 18.0 ],
					"outlettype" : [ "" ],
					"fontsize" : 12.0
				}

			}
, 			{
				"box" : 				{
					"maxclass" : "message",
					"text" : "clear",
					"numinlets" : 2,
					"id" : "obj-83",
					"fontname" : "Arial",
					"numoutlets" : 1,
					"patching_rect" : [ 269.0, 178.0, 37.0, 18.0 ],
					"outlettype" : [ "" ],
					"fontsize" : 12.0
				}

			}
, 			{
				"box" : 				{
					"maxclass" : "newobj",
					"text" : "t b b",
					"numinlets" : 1,
					"id" : "obj-84",
					"fontname" : "Arial",
					"numoutlets" : 2,
					"patching_rect" : [ 269.0, 108.0, 34.0, 20.0 ],
					"outlettype" : [ "bang", "bang" ],
					"fontsize" : 12.0
				}

			}
, 			{
				"box" : 				{
					"maxclass" : "newobj",
					"text" : "prepend paintrect",
					"numinlets" : 1,
					"id" : "obj-85",
					"fontname" : "Arial",
					"numoutlets" : 1,
					"patching_rect" : [ 265.0, 71.0, 104.0, 20.0 ],
					"outlettype" : [ "" ],
					"fontsize" : 12.0
				}

			}
, 			{
				"box" : 				{
					"maxclass" : "jit.pwindow",
					"numinlets" : 1,
					"id" : "obj-8",
					"numoutlets" : 2,
					"patching_rect" : [ 29.0, 404.0, 210.0, 169.0 ],
					"outlettype" : [ "", "" ]
				}

			}
, 			{
				"box" : 				{
					"maxclass" : "newobj",
					"text" : "s packeds",
					"numinlets" : 1,
					"id" : "obj-79",
					"fontname" : "Arial",
					"numoutlets" : 0,
					"patching_rect" : [ 42.0, 852.0, 65.0, 20.0 ],
					"fontsize" : 12.0
				}

			}
, 			{
				"box" : 				{
					"maxclass" : "newobj",
					"text" : "pack i i i i",
					"numinlets" : 4,
					"id" : "obj-80",
					"fontname" : "Arial",
					"numoutlets" : 1,
					"patching_rect" : [ 42.0, 828.0, 60.0, 20.0 ],
					"outlettype" : [ "" ],
					"fontsize" : 12.0
				}

			}
, 			{
				"box" : 				{
					"maxclass" : "newobj",
					"text" : "- 25",
					"numinlets" : 2,
					"id" : "obj-78",
					"fontname" : "Arial",
					"numoutlets" : 1,
					"patching_rect" : [ 124.0, 784.0, 32.5, 20.0 ],
					"outlettype" : [ "int" ],
					"fontsize" : 12.0
				}

			}
, 			{
				"box" : 				{
					"maxclass" : "newobj",
					"text" : "- 25",
					"numinlets" : 2,
					"id" : "obj-77",
					"fontname" : "Arial",
					"numoutlets" : 1,
					"patching_rect" : [ 89.0, 784.0, 32.5, 20.0 ],
					"outlettype" : [ "int" ],
					"fontsize" : 12.0
				}

			}
, 			{
				"box" : 				{
					"maxclass" : "newobj",
					"text" : "+ 25",
					"numinlets" : 2,
					"id" : "obj-76",
					"fontname" : "Arial",
					"numoutlets" : 1,
					"patching_rect" : [ 55.0, 783.0, 34.0, 20.0 ],
					"outlettype" : [ "int" ],
					"fontsize" : 12.0
				}

			}
, 			{
				"box" : 				{
					"maxclass" : "newobj",
					"text" : "+ 25",
					"numinlets" : 2,
					"id" : "obj-75",
					"fontname" : "Arial",
					"numoutlets" : 1,
					"patching_rect" : [ 21.0, 784.0, 34.0, 20.0 ],
					"outlettype" : [ "int" ],
					"fontsize" : 12.0
				}

			}
, 			{
				"box" : 				{
					"maxclass" : "newobj",
					"text" : "r packedface",
					"numinlets" : 0,
					"id" : "obj-74",
					"fontname" : "Arial",
					"numoutlets" : 1,
					"patching_rect" : [ 5.0, 128.0, 79.0, 20.0 ],
					"outlettype" : [ "" ],
					"fontsize" : 12.0
				}

			}
, 			{
				"box" : 				{
					"maxclass" : "newobj",
					"text" : "s packedface",
					"numinlets" : 1,
					"id" : "obj-73",
					"fontname" : "Arial",
					"numoutlets" : 0,
					"patching_rect" : [ 162.0, 838.0, 81.0, 20.0 ],
					"fontsize" : 12.0
				}

			}
, 			{
				"box" : 				{
					"maxclass" : "number",
					"triscale" : 0.9,
					"bgcolor" : [ 0.866667, 0.866667, 0.866667, 1.0 ],
					"minimum" : 0,
					"htextcolor" : [ 0.870588, 0.870588, 0.870588, 1.0 ],
					"maximum" : 255,
					"numinlets" : 1,
					"id" : "obj-59",
					"fontname" : "Arial",
					"numoutlets" : 2,
					"patching_rect" : [ 679.0, 236.0, 35.0, 18.0 ],
					"outlettype" : [ "int", "bang" ],
					"fontsize" : 10.0
				}

			}
, 			{
				"box" : 				{
					"maxclass" : "number",
					"triscale" : 0.9,
					"bgcolor" : [ 0.866667, 0.866667, 0.866667, 1.0 ],
					"minimum" : 0,
					"htextcolor" : [ 0.870588, 0.870588, 0.870588, 1.0 ],
					"maximum" : 255,
					"numinlets" : 1,
					"id" : "obj-60",
					"fontname" : "Arial",
					"numoutlets" : 2,
					"patching_rect" : [ 679.0, 189.0, 35.0, 18.0 ],
					"outlettype" : [ "int", "bang" ],
					"fontsize" : 10.0
				}

			}
, 			{
				"box" : 				{
					"maxclass" : "message",
					"text" : "range $1",
					"numinlets" : 2,
					"id" : "obj-61",
					"fontname" : "Arial",
					"numoutlets" : 1,
					"patching_rect" : [ 679.0, 255.0, 55.0, 16.0 ],
					"outlettype" : [ "" ],
					"fontsize" : 10.0
				}

			}
, 			{
				"box" : 				{
					"maxclass" : "message",
					"text" : "threshold $1",
					"numinlets" : 2,
					"id" : "obj-63",
					"fontname" : "Arial",
					"numoutlets" : 1,
					"patching_rect" : [ 679.0, 208.0, 74.0, 16.0 ],
					"outlettype" : [ "" ],
					"fontsize" : 10.0
				}

			}
, 			{
				"box" : 				{
					"maxclass" : "panel",
					"bgcolor" : [ 1.0, 1.0, 1.0, 0.396078 ],
					"bordercolor" : [ 1.0, 0.0, 0.0, 0.647059 ],
					"border" : 1,
					"numinlets" : 1,
					"id" : "obj-71",
					"numoutlets" : 0,
					"patching_rect" : [ 671.0, 182.0, 324.0, 99.0 ],
					"rounded" : 0
				}

			}
, 			{
				"box" : 				{
					"maxclass" : "newobj",
					"text" : "jit.rgb2luma",
					"numinlets" : 1,
					"id" : "obj-58",
					"fontname" : "Arial",
					"numoutlets" : 2,
					"patching_rect" : [ 470.0, 321.0, 62.0, 18.0 ],
					"outlettype" : [ "jit_matrix", "" ],
					"fontsize" : 10.0
				}

			}
, 			{
				"box" : 				{
					"maxclass" : "newobj",
					"text" : "cv.jit.canny",
					"numinlets" : 1,
					"id" : "obj-57",
					"fontname" : "Arial",
					"numoutlets" : 2,
					"patching_rect" : [ 477.0, 356.0, 69.0, 20.0 ],
					"outlettype" : [ "jit_matrix", "" ],
					"fontsize" : 12.0
				}

			}
, 			{
				"box" : 				{
					"maxclass" : "newobj",
					"text" : "jit.op @op &",
					"numinlets" : 2,
					"id" : "obj-56",
					"fontname" : "Arial",
					"numoutlets" : 2,
					"patching_rect" : [ 466.0, 289.0, 76.0, 20.0 ],
					"outlettype" : [ "jit_matrix", "" ],
					"fontsize" : 12.0
				}

			}
, 			{
				"box" : 				{
					"maxclass" : "message",
					"text" : "paintrect 200 188 648 630",
					"numinlets" : 2,
					"id" : "obj-52",
					"fontname" : "Arial",
					"numoutlets" : 1,
					"patching_rect" : [ 50.0, 265.0, 151.0, 18.0 ],
					"outlettype" : [ "" ],
					"fontsize" : 12.0
				}

			}
, 			{
				"box" : 				{
					"maxclass" : "message",
					"text" : "clear",
					"numinlets" : 2,
					"id" : "obj-49",
					"fontname" : "Arial",
					"numoutlets" : 1,
					"patching_rect" : [ 10.0, 266.0, 37.0, 18.0 ],
					"outlettype" : [ "" ],
					"fontsize" : 12.0
				}

			}
, 			{
				"box" : 				{
					"maxclass" : "newobj",
					"text" : "t b b",
					"numinlets" : 1,
					"id" : "obj-47",
					"fontname" : "Arial",
					"numoutlets" : 2,
					"patching_rect" : [ 10.0, 196.0, 34.0, 20.0 ],
					"outlettype" : [ "bang", "bang" ],
					"fontsize" : 12.0
				}

			}
, 			{
				"box" : 				{
					"maxclass" : "message",
					"text" : "brgb 0 0 0",
					"numinlets" : 2,
					"id" : "obj-46",
					"fontname" : "Arial",
					"numoutlets" : 1,
					"patching_rect" : [ 117.0, 61.0, 65.0, 18.0 ],
					"outlettype" : [ "" ],
					"fontsize" : 12.0
				}

			}
, 			{
				"box" : 				{
					"maxclass" : "newobj",
					"text" : "t b b",
					"numinlets" : 1,
					"id" : "obj-45",
					"fontname" : "Arial",
					"numoutlets" : 2,
					"patching_rect" : [ 459.0, 117.0, 34.0, 20.0 ],
					"outlettype" : [ "bang", "bang" ],
					"fontsize" : 12.0
				}

			}
, 			{
				"box" : 				{
					"maxclass" : "message",
					"text" : "frgb 255 255 255",
					"numinlets" : 2,
					"id" : "obj-41",
					"fontname" : "Arial",
					"numoutlets" : 1,
					"patching_rect" : [ 117.0, 37.0, 101.0, 18.0 ],
					"outlettype" : [ "" ],
					"fontsize" : 12.0
				}

			}
, 			{
				"box" : 				{
					"maxclass" : "newobj",
					"text" : "jit.lcd 4 char 800 600",
					"numinlets" : 1,
					"id" : "obj-37",
					"fontname" : "Arial",
					"numoutlets" : 2,
					"patching_rect" : [ 10.0, 327.0, 121.0, 20.0 ],
					"outlettype" : [ "jit_matrix", "" ],
					"fontsize" : 12.0
				}

			}
, 			{
				"box" : 				{
					"maxclass" : "newobj",
					"text" : "* 6",
					"numinlets" : 2,
					"id" : "obj-35",
					"fontname" : "Arial",
					"numoutlets" : 1,
					"patching_rect" : [ 237.0, 729.0, 32.5, 20.0 ],
					"outlettype" : [ "int" ],
					"fontsize" : 12.0
				}

			}
, 			{
				"box" : 				{
					"maxclass" : "newobj",
					"text" : "* 6",
					"numinlets" : 2,
					"id" : "obj-36",
					"fontname" : "Arial",
					"numoutlets" : 1,
					"patching_rect" : [ 200.0, 729.0, 32.5, 20.0 ],
					"outlettype" : [ "int" ],
					"fontsize" : 12.0
				}

			}
, 			{
				"box" : 				{
					"maxclass" : "newobj",
					"text" : "pack i i i i",
					"numinlets" : 4,
					"id" : "obj-34",
					"fontname" : "Arial",
					"numoutlets" : 1,
					"patching_rect" : [ 162.0, 814.0, 60.0, 20.0 ],
					"outlettype" : [ "" ],
					"fontsize" : 12.0
				}

			}
, 			{
				"box" : 				{
					"maxclass" : "newobj",
					"text" : "prepend paintrect",
					"numinlets" : 1,
					"id" : "obj-33",
					"fontname" : "Arial",
					"numoutlets" : 1,
					"patching_rect" : [ 6.0, 159.0, 104.0, 20.0 ],
					"outlettype" : [ "" ],
					"fontsize" : 12.0
				}

			}
, 			{
				"box" : 				{
					"maxclass" : "message",
					"text" : "cube 0.5",
					"numinlets" : 2,
					"id" : "obj-31",
					"fontname" : "Arial",
					"numoutlets" : 1,
					"patching_rect" : [ 628.0, 612.0, 57.0, 18.0 ],
					"outlettype" : [ "" ],
					"fontsize" : 12.0
				}

			}
, 			{
				"box" : 				{
					"maxclass" : "message",
					"text" : "reset",
					"numinlets" : 2,
					"id" : "obj-28",
					"fontname" : "Arial",
					"numoutlets" : 1,
					"patching_rect" : [ 650.0, 566.0, 37.0, 18.0 ],
					"outlettype" : [ "" ],
					"fontsize" : 12.0
				}

			}
, 			{
				"box" : 				{
					"maxclass" : "newobj",
					"text" : "jit.window fooo 100 100 900 700 @depthbuffer 1",
					"numinlets" : 1,
					"id" : "obj-43",
					"fontname" : "Arial",
					"numoutlets" : 2,
					"patching_rect" : [ 739.0, 706.0, 269.0, 20.0 ],
					"outlettype" : [ "bang", "" ],
					"fontsize" : 12.0
				}

			}
, 			{
				"box" : 				{
					"maxclass" : "newobj",
					"text" : "t b erase",
					"numinlets" : 1,
					"id" : "obj-55",
					"fontname" : "Arial",
					"numoutlets" : 2,
					"patching_rect" : [ 746.0, 474.0, 57.0, 20.0 ],
					"outlettype" : [ "bang", "erase" ],
					"fontsize" : 12.0
				}

			}
, 			{
				"box" : 				{
					"maxclass" : "newobj",
					"text" : "jit.qball",
					"numinlets" : 1,
					"id" : "obj-54",
					"fontname" : "Arial",
					"numoutlets" : 2,
					"patching_rect" : [ 746.0, 427.0, 48.0, 20.0 ],
					"outlettype" : [ "", "" ],
					"fontsize" : 12.0
				}

			}
, 			{
				"box" : 				{
					"maxclass" : "newobj",
					"text" : "jit.gl.render fooo @depth_enable 1 @lightning_enable 1",
					"numinlets" : 1,
					"id" : "obj-53",
					"fontname" : "Arial",
					"numoutlets" : 2,
					"patching_rect" : [ 743.0, 517.0, 308.0, 20.0 ],
					"outlettype" : [ "bang", "" ],
					"fontsize" : 12.0
				}

			}
, 			{
				"box" : 				{
					"maxclass" : "toggle",
					"numinlets" : 1,
					"id" : "obj-24",
					"numoutlets" : 1,
					"patching_rect" : [ 745.0, 365.0, 20.0, 20.0 ],
					"outlettype" : [ "int" ]
				}

			}
, 			{
				"box" : 				{
					"maxclass" : "newobj",
					"text" : "metro 50",
					"numinlets" : 2,
					"id" : "obj-51",
					"fontname" : "Arial",
					"numoutlets" : 1,
					"patching_rect" : [ 745.0, 394.0, 58.0, 20.0 ],
					"outlettype" : [ "bang" ],
					"fontsize" : 12.0
				}

			}
, 			{
				"box" : 				{
					"maxclass" : "newobj",
					"text" : "prepend lineto",
					"numinlets" : 1,
					"id" : "obj-25",
					"fontname" : "Arial",
					"numoutlets" : 1,
					"patching_rect" : [ 753.0, 585.0, 87.0, 20.0 ],
					"outlettype" : [ "" ],
					"fontsize" : 12.0
				}

			}
, 			{
				"box" : 				{
					"maxclass" : "newobj",
					"text" : "jit.gl.sketch fooo",
					"numinlets" : 1,
					"id" : "obj-27",
					"fontname" : "Arial",
					"numoutlets" : 2,
					"patching_rect" : [ 724.0, 630.0, 97.0, 20.0 ],
					"outlettype" : [ "", "" ],
					"fontsize" : 12.0
				}

			}
, 			{
				"box" : 				{
					"maxclass" : "flonum",
					"numinlets" : 1,
					"id" : "obj-22",
					"fontname" : "Arial",
					"numoutlets" : 2,
					"patching_rect" : [ 472.0, 856.0, 50.0, 20.0 ],
					"outlettype" : [ "float", "bang" ],
					"fontsize" : 12.0
				}

			}
, 			{
				"box" : 				{
					"maxclass" : "newobj",
					"text" : "expr $i1 / 120. - 0.5",
					"numinlets" : 1,
					"id" : "obj-23",
					"fontname" : "Arial",
					"numoutlets" : 1,
					"patching_rect" : [ 472.0, 830.0, 114.0, 20.0 ],
					"outlettype" : [ "" ],
					"fontsize" : 12.0
				}

			}
, 			{
				"box" : 				{
					"maxclass" : "flonum",
					"numinlets" : 1,
					"id" : "obj-20",
					"fontname" : "Arial",
					"numoutlets" : 2,
					"patching_rect" : [ 475.0, 804.0, 50.0, 20.0 ],
					"outlettype" : [ "float", "bang" ],
					"fontsize" : 12.0
				}

			}
, 			{
				"box" : 				{
					"maxclass" : "newobj",
					"text" : "expr $i1 / 120. - 0.5",
					"numinlets" : 1,
					"id" : "obj-21",
					"fontname" : "Arial",
					"numoutlets" : 1,
					"patching_rect" : [ 475.0, 778.0, 114.0, 20.0 ],
					"outlettype" : [ "" ],
					"fontsize" : 12.0
				}

			}
, 			{
				"box" : 				{
					"maxclass" : "flonum",
					"numinlets" : 1,
					"id" : "obj-18",
					"fontname" : "Arial",
					"numoutlets" : 2,
					"patching_rect" : [ 349.0, 856.0, 50.0, 20.0 ],
					"outlettype" : [ "float", "bang" ],
					"fontsize" : 12.0
				}

			}
, 			{
				"box" : 				{
					"maxclass" : "newobj",
					"text" : "expr $i1 / 160. - 0.5",
					"numinlets" : 1,
					"id" : "obj-19",
					"fontname" : "Arial",
					"numoutlets" : 1,
					"patching_rect" : [ 349.0, 830.0, 114.0, 20.0 ],
					"outlettype" : [ "" ],
					"fontsize" : 12.0
				}

			}
, 			{
				"box" : 				{
					"maxclass" : "flonum",
					"numinlets" : 1,
					"id" : "obj-17",
					"fontname" : "Arial",
					"numoutlets" : 2,
					"patching_rect" : [ 351.0, 802.0, 50.0, 20.0 ],
					"outlettype" : [ "float", "bang" ],
					"fontsize" : 12.0
				}

			}
, 			{
				"box" : 				{
					"maxclass" : "newobj",
					"text" : "expr $i1 / 160. - 0.5",
					"numinlets" : 1,
					"id" : "obj-13",
					"fontname" : "Arial",
					"numoutlets" : 1,
					"patching_rect" : [ 351.0, 776.0, 114.0, 20.0 ],
					"outlettype" : [ "" ],
					"fontsize" : 12.0
				}

			}
, 			{
				"box" : 				{
					"maxclass" : "message",
					"text" : "settings",
					"numinlets" : 2,
					"id" : "obj-12",
					"fontname" : "Arial",
					"numoutlets" : 1,
					"patching_rect" : [ 587.0, 162.0, 52.0, 18.0 ],
					"outlettype" : [ "" ],
					"fontsize" : 12.0
				}

			}
, 			{
				"box" : 				{
					"maxclass" : "newobj",
					"text" : "* 4",
					"numinlets" : 2,
					"id" : "obj-62",
					"fontname" : "Arial",
					"numoutlets" : 1,
					"patching_rect" : [ 158.0, 729.0, 32.5, 20.0 ],
					"outlettype" : [ "int" ],
					"fontsize" : 12.0
				}

			}
, 			{
				"box" : 				{
					"maxclass" : "newobj",
					"text" : "* 4",
					"numinlets" : 2,
					"id" : "obj-50",
					"fontname" : "Arial",
					"numoutlets" : 1,
					"patching_rect" : [ 121.0, 729.0, 32.5, 20.0 ],
					"outlettype" : [ "int" ],
					"fontsize" : 12.0
				}

			}
, 			{
				"box" : 				{
					"maxclass" : "newobj",
					"text" : "unpack 1. 1. 1. 1.",
					"numinlets" : 1,
					"id" : "obj-64",
					"fontname" : "Arial",
					"numoutlets" : 4,
					"patching_rect" : [ 306.0, 683.0, 103.0, 20.0 ],
					"outlettype" : [ "float", "float", "float", "float" ],
					"fontsize" : 12.0
				}

			}
, 			{
				"box" : 				{
					"maxclass" : "newobj",
					"text" : "route dim frgb",
					"numinlets" : 1,
					"id" : "obj-48",
					"fontname" : "Arial",
					"numoutlets" : 3,
					"patching_rect" : [ 299.0, 577.0, 85.0, 20.0 ],
					"outlettype" : [ "", "", "" ],
					"fontsize" : 12.0
				}

			}
, 			{
				"box" : 				{
					"maxclass" : "newobj",
					"text" : "jit.iter",
					"numinlets" : 1,
					"id" : "obj-10",
					"fontname" : "Arial",
					"numoutlets" : 3,
					"patching_rect" : [ 313.0, 602.0, 46.0, 20.0 ],
					"outlettype" : [ "", "", "" ],
					"fontsize" : 12.0
				}

			}
, 			{
				"box" : 				{
					"maxclass" : "newobj",
					"text" : "cv.jit.resize @size 160 120",
					"numinlets" : 1,
					"id" : "obj-29",
					"fontname" : "Arial",
					"numoutlets" : 2,
					"patching_rect" : [ 281.0, 458.0, 130.0, 18.0 ],
					"outlettype" : [ "jit_matrix", "" ],
					"fontsize" : 10.0
				}

			}
, 			{
				"box" : 				{
					"maxclass" : "newobj",
					"text" : "cv.jit.faces",
					"numinlets" : 1,
					"id" : "obj-26",
					"fontname" : "Arial",
					"numoutlets" : 2,
					"patching_rect" : [ 281.0, 505.0, 57.0, 18.0 ],
					"outlettype" : [ "jit_matrix", "" ],
					"fontsize" : 10.0
				}

			}
, 			{
				"box" : 				{
					"maxclass" : "newobj",
					"text" : "jit.rgb2luma",
					"numinlets" : 1,
					"id" : "obj-69",
					"fontname" : "Arial",
					"numoutlets" : 2,
					"patching_rect" : [ 281.0, 416.0, 62.0, 18.0 ],
					"outlettype" : [ "jit_matrix", "" ],
					"fontsize" : 10.0
				}

			}
, 			{
				"box" : 				{
					"maxclass" : "message",
					"text" : "close",
					"numinlets" : 2,
					"id" : "obj-7",
					"fontname" : "Arial",
					"numoutlets" : 1,
					"patching_rect" : [ 555.0, 204.0, 39.0, 18.0 ],
					"outlettype" : [ "" ],
					"fontsize" : 12.0
				}

			}
, 			{
				"box" : 				{
					"maxclass" : "newobj",
					"text" : "cv.jit.blobs.bounds",
					"numinlets" : 1,
					"id" : "obj-6",
					"fontname" : "Arial",
					"numoutlets" : 2,
					"patching_rect" : [ 614.0, 306.0, 108.0, 20.0 ],
					"outlettype" : [ "jit_matrix", "" ],
					"fontsize" : 12.0
				}

			}
, 			{
				"box" : 				{
					"maxclass" : "toggle",
					"numinlets" : 1,
					"id" : "obj-5",
					"numoutlets" : 1,
					"patching_rect" : [ 459.0, 60.0, 20.0, 20.0 ],
					"outlettype" : [ "int" ]
				}

			}
, 			{
				"box" : 				{
					"maxclass" : "newobj",
					"text" : "metro 30",
					"numinlets" : 2,
					"id" : "obj-4",
					"fontname" : "Arial",
					"numoutlets" : 1,
					"patching_rect" : [ 459.0, 85.0, 58.0, 20.0 ],
					"outlettype" : [ "bang" ],
					"fontsize" : 12.0
				}

			}
, 			{
				"box" : 				{
					"maxclass" : "message",
					"text" : "open",
					"numinlets" : 2,
					"id" : "obj-3",
					"fontname" : "Arial",
					"numoutlets" : 1,
					"patching_rect" : [ 469.0, 197.0, 37.0, 18.0 ],
					"outlettype" : [ "" ],
					"fontsize" : 12.0
				}

			}
, 			{
				"box" : 				{
					"maxclass" : "newobj",
					"text" : "jit.window 100 100 900 700",
					"numinlets" : 1,
					"id" : "obj-2",
					"fontname" : "Arial",
					"numoutlets" : 2,
					"patching_rect" : [ 485.0, 590.0, 156.0, 20.0 ],
					"outlettype" : [ "bang", "" ],
					"fontsize" : 12.0
				}

			}
, 			{
				"box" : 				{
					"maxclass" : "newobj",
					"text" : "jit.qt.grab 800 600",
					"numinlets" : 1,
					"id" : "obj-1",
					"fontname" : "Arial",
					"numoutlets" : 2,
					"patching_rect" : [ 430.0, 242.0, 107.0, 20.0 ],
					"outlettype" : [ "jit_matrix", "" ],
					"fontsize" : 12.0
				}

			}
 ],
		"lines" : [ 			{
				"patchline" : 				{
					"source" : [ "obj-39", 0 ],
					"destination" : [ "obj-40", 0 ],
					"hidden" : 0,
					"midpoints" : [  ]
				}

			}
, 			{
				"patchline" : 				{
					"source" : [ "obj-58", 0 ],
					"destination" : [ "obj-39", 0 ],
					"hidden" : 0,
					"midpoints" : [  ]
				}

			}
, 			{
				"patchline" : 				{
					"source" : [ "obj-40", 0 ],
					"destination" : [ "obj-11", 0 ],
					"hidden" : 0,
					"midpoints" : [  ]
				}

			}
, 			{
				"patchline" : 				{
					"source" : [ "obj-38", 0 ],
					"destination" : [ "obj-60", 0 ],
					"hidden" : 0,
					"midpoints" : [  ]
				}

			}
, 			{
				"patchline" : 				{
					"source" : [ "obj-30", 0 ],
					"destination" : [ "obj-38", 0 ],
					"hidden" : 0,
					"midpoints" : [ 206.5, 31.0, 748.5, 31.0 ]
				}

			}
, 			{
				"patchline" : 				{
					"source" : [ "obj-30", 0 ],
					"destination" : [ "obj-14", 0 ],
					"hidden" : 0,
					"midpoints" : [  ]
				}

			}
, 			{
				"patchline" : 				{
					"source" : [ "obj-30", 0 ],
					"destination" : [ "obj-15", 0 ],
					"hidden" : 0,
					"midpoints" : [  ]
				}

			}
, 			{
				"patchline" : 				{
					"source" : [ "obj-30", 0 ],
					"destination" : [ "obj-46", 0 ],
					"hidden" : 0,
					"midpoints" : [  ]
				}

			}
, 			{
				"patchline" : 				{
					"source" : [ "obj-30", 0 ],
					"destination" : [ "obj-41", 0 ],
					"hidden" : 0,
					"midpoints" : [  ]
				}

			}
, 			{
				"patchline" : 				{
					"source" : [ "obj-78", 0 ],
					"destination" : [ "obj-80", 3 ],
					"hidden" : 0,
					"midpoints" : [  ]
				}

			}
, 			{
				"patchline" : 				{
					"source" : [ "obj-35", 0 ],
					"destination" : [ "obj-78", 0 ],
					"hidden" : 0,
					"midpoints" : [  ]
				}

			}
, 			{
				"patchline" : 				{
					"source" : [ "obj-77", 0 ],
					"destination" : [ "obj-80", 2 ],
					"hidden" : 0,
					"midpoints" : [  ]
				}

			}
, 			{
				"patchline" : 				{
					"source" : [ "obj-36", 0 ],
					"destination" : [ "obj-77", 0 ],
					"hidden" : 0,
					"midpoints" : [  ]
				}

			}
, 			{
				"patchline" : 				{
					"source" : [ "obj-76", 0 ],
					"destination" : [ "obj-80", 1 ],
					"hidden" : 0,
					"midpoints" : [  ]
				}

			}
, 			{
				"patchline" : 				{
					"source" : [ "obj-62", 0 ],
					"destination" : [ "obj-76", 0 ],
					"hidden" : 0,
					"midpoints" : [  ]
				}

			}
, 			{
				"patchline" : 				{
					"source" : [ "obj-75", 0 ],
					"destination" : [ "obj-80", 0 ],
					"hidden" : 0,
					"midpoints" : [  ]
				}

			}
, 			{
				"patchline" : 				{
					"source" : [ "obj-50", 0 ],
					"destination" : [ "obj-75", 0 ],
					"hidden" : 0,
					"midpoints" : [  ]
				}

			}
, 			{
				"patchline" : 				{
					"source" : [ "obj-35", 0 ],
					"destination" : [ "obj-34", 3 ],
					"hidden" : 0,
					"midpoints" : [  ]
				}

			}
, 			{
				"patchline" : 				{
					"source" : [ "obj-64", 3 ],
					"destination" : [ "obj-35", 0 ],
					"hidden" : 0,
					"midpoints" : [  ]
				}

			}
, 			{
				"patchline" : 				{
					"source" : [ "obj-36", 0 ],
					"destination" : [ "obj-34", 2 ],
					"hidden" : 0,
					"midpoints" : [  ]
				}

			}
, 			{
				"patchline" : 				{
					"source" : [ "obj-64", 2 ],
					"destination" : [ "obj-36", 0 ],
					"hidden" : 0,
					"midpoints" : [  ]
				}

			}
, 			{
				"patchline" : 				{
					"source" : [ "obj-62", 0 ],
					"destination" : [ "obj-34", 1 ],
					"hidden" : 0,
					"midpoints" : [  ]
				}

			}
, 			{
				"patchline" : 				{
					"source" : [ "obj-64", 1 ],
					"destination" : [ "obj-62", 0 ],
					"hidden" : 0,
					"midpoints" : [  ]
				}

			}
, 			{
				"patchline" : 				{
					"source" : [ "obj-50", 0 ],
					"destination" : [ "obj-34", 0 ],
					"hidden" : 0,
					"midpoints" : [  ]
				}

			}
, 			{
				"patchline" : 				{
					"source" : [ "obj-64", 0 ],
					"destination" : [ "obj-50", 0 ],
					"hidden" : 0,
					"midpoints" : [  ]
				}

			}
, 			{
				"patchline" : 				{
					"source" : [ "obj-16", 0 ],
					"destination" : [ "obj-11", 1 ],
					"hidden" : 0,
					"midpoints" : [  ]
				}

			}
, 			{
				"patchline" : 				{
					"source" : [ "obj-72", 0 ],
					"destination" : [ "obj-16", 0 ],
					"hidden" : 0,
					"midpoints" : [  ]
				}

			}
, 			{
				"patchline" : 				{
					"source" : [ "obj-72", 0 ],
					"destination" : [ "obj-8", 0 ],
					"hidden" : 0,
					"midpoints" : [  ]
				}

			}
, 			{
				"patchline" : 				{
					"source" : [ "obj-14", 0 ],
					"destination" : [ "obj-72", 0 ],
					"hidden" : 0,
					"midpoints" : [  ]
				}

			}
, 			{
				"patchline" : 				{
					"source" : [ "obj-15", 0 ],
					"destination" : [ "obj-72", 0 ],
					"hidden" : 0,
					"midpoints" : [  ]
				}

			}
, 			{
				"patchline" : 				{
					"source" : [ "obj-45", 0 ],
					"destination" : [ "obj-72", 0 ],
					"hidden" : 0,
					"midpoints" : [  ]
				}

			}
, 			{
				"patchline" : 				{
					"source" : [ "obj-11", 0 ],
					"destination" : [ "obj-2", 0 ],
					"hidden" : 0,
					"midpoints" : [  ]
				}

			}
, 			{
				"patchline" : 				{
					"source" : [ "obj-84", 1 ],
					"destination" : [ "obj-83", 0 ],
					"hidden" : 0,
					"midpoints" : [  ]
				}

			}
, 			{
				"patchline" : 				{
					"source" : [ "obj-49", 0 ],
					"destination" : [ "obj-37", 0 ],
					"hidden" : 0,
					"midpoints" : [  ]
				}

			}
, 			{
				"patchline" : 				{
					"source" : [ "obj-47", 1 ],
					"destination" : [ "obj-49", 0 ],
					"hidden" : 0,
					"midpoints" : [  ]
				}

			}
, 			{
				"patchline" : 				{
					"source" : [ "obj-80", 0 ],
					"destination" : [ "obj-79", 0 ],
					"hidden" : 0,
					"midpoints" : [  ]
				}

			}
, 			{
				"patchline" : 				{
					"source" : [ "obj-82", 0 ],
					"destination" : [ "obj-72", 0 ],
					"hidden" : 0,
					"midpoints" : [  ]
				}

			}
, 			{
				"patchline" : 				{
					"source" : [ "obj-83", 0 ],
					"destination" : [ "obj-72", 0 ],
					"hidden" : 0,
					"midpoints" : [  ]
				}

			}
, 			{
				"patchline" : 				{
					"source" : [ "obj-85", 0 ],
					"destination" : [ "obj-82", 1 ],
					"hidden" : 0,
					"midpoints" : [  ]
				}

			}
, 			{
				"patchline" : 				{
					"source" : [ "obj-85", 0 ],
					"destination" : [ "obj-84", 0 ],
					"hidden" : 0,
					"midpoints" : [  ]
				}

			}
, 			{
				"patchline" : 				{
					"source" : [ "obj-84", 0 ],
					"destination" : [ "obj-82", 0 ],
					"hidden" : 0,
					"midpoints" : [  ]
				}

			}
, 			{
				"patchline" : 				{
					"source" : [ "obj-81", 0 ],
					"destination" : [ "obj-85", 0 ],
					"hidden" : 0,
					"midpoints" : [  ]
				}

			}
, 			{
				"patchline" : 				{
					"source" : [ "obj-7", 0 ],
					"destination" : [ "obj-1", 0 ],
					"hidden" : 0,
					"midpoints" : [  ]
				}

			}
, 			{
				"patchline" : 				{
					"source" : [ "obj-3", 0 ],
					"destination" : [ "obj-1", 0 ],
					"hidden" : 0,
					"midpoints" : [  ]
				}

			}
, 			{
				"patchline" : 				{
					"source" : [ "obj-29", 0 ],
					"destination" : [ "obj-26", 0 ],
					"hidden" : 0,
					"midpoints" : [  ]
				}

			}
, 			{
				"patchline" : 				{
					"source" : [ "obj-69", 0 ],
					"destination" : [ "obj-29", 0 ],
					"hidden" : 0,
					"midpoints" : [  ]
				}

			}
, 			{
				"patchline" : 				{
					"source" : [ "obj-1", 0 ],
					"destination" : [ "obj-69", 0 ],
					"hidden" : 0,
					"midpoints" : [  ]
				}

			}
, 			{
				"patchline" : 				{
					"source" : [ "obj-48", 2 ],
					"destination" : [ "obj-10", 0 ],
					"hidden" : 0,
					"midpoints" : [  ]
				}

			}
, 			{
				"patchline" : 				{
					"source" : [ "obj-10", 0 ],
					"destination" : [ "obj-64", 0 ],
					"hidden" : 0,
					"midpoints" : [  ]
				}

			}
, 			{
				"patchline" : 				{
					"source" : [ "obj-26", 0 ],
					"destination" : [ "obj-48", 0 ],
					"hidden" : 0,
					"midpoints" : [  ]
				}

			}
, 			{
				"patchline" : 				{
					"source" : [ "obj-5", 0 ],
					"destination" : [ "obj-4", 0 ],
					"hidden" : 0,
					"midpoints" : [  ]
				}

			}
, 			{
				"patchline" : 				{
					"source" : [ "obj-12", 0 ],
					"destination" : [ "obj-1", 0 ],
					"hidden" : 0,
					"midpoints" : [  ]
				}

			}
, 			{
				"patchline" : 				{
					"source" : [ "obj-13", 0 ],
					"destination" : [ "obj-17", 0 ],
					"hidden" : 0,
					"midpoints" : [  ]
				}

			}
, 			{
				"patchline" : 				{
					"source" : [ "obj-64", 0 ],
					"destination" : [ "obj-13", 0 ],
					"hidden" : 0,
					"midpoints" : [  ]
				}

			}
, 			{
				"patchline" : 				{
					"source" : [ "obj-19", 0 ],
					"destination" : [ "obj-18", 0 ],
					"hidden" : 0,
					"midpoints" : [  ]
				}

			}
, 			{
				"patchline" : 				{
					"source" : [ "obj-21", 0 ],
					"destination" : [ "obj-20", 0 ],
					"hidden" : 0,
					"midpoints" : [  ]
				}

			}
, 			{
				"patchline" : 				{
					"source" : [ "obj-23", 0 ],
					"destination" : [ "obj-22", 0 ],
					"hidden" : 0,
					"midpoints" : [  ]
				}

			}
, 			{
				"patchline" : 				{
					"source" : [ "obj-64", 1 ],
					"destination" : [ "obj-21", 0 ],
					"hidden" : 0,
					"midpoints" : [  ]
				}

			}
, 			{
				"patchline" : 				{
					"source" : [ "obj-64", 2 ],
					"destination" : [ "obj-19", 0 ],
					"hidden" : 0,
					"midpoints" : [  ]
				}

			}
, 			{
				"patchline" : 				{
					"source" : [ "obj-64", 3 ],
					"destination" : [ "obj-23", 0 ],
					"hidden" : 0,
					"midpoints" : [  ]
				}

			}
, 			{
				"patchline" : 				{
					"source" : [ "obj-54", 0 ],
					"destination" : [ "obj-55", 0 ],
					"hidden" : 0,
					"midpoints" : [  ]
				}

			}
, 			{
				"patchline" : 				{
					"source" : [ "obj-51", 0 ],
					"destination" : [ "obj-54", 0 ],
					"hidden" : 0,
					"midpoints" : [  ]
				}

			}
, 			{
				"patchline" : 				{
					"source" : [ "obj-24", 0 ],
					"destination" : [ "obj-51", 0 ],
					"hidden" : 0,
					"midpoints" : [  ]
				}

			}
, 			{
				"patchline" : 				{
					"source" : [ "obj-55", 0 ],
					"destination" : [ "obj-53", 0 ],
					"hidden" : 0,
					"midpoints" : [  ]
				}

			}
, 			{
				"patchline" : 				{
					"source" : [ "obj-55", 1 ],
					"destination" : [ "obj-53", 0 ],
					"hidden" : 0,
					"midpoints" : [  ]
				}

			}
, 			{
				"patchline" : 				{
					"source" : [ "obj-25", 0 ],
					"destination" : [ "obj-27", 0 ],
					"hidden" : 0,
					"midpoints" : [  ]
				}

			}
, 			{
				"patchline" : 				{
					"source" : [ "obj-28", 0 ],
					"destination" : [ "obj-27", 0 ],
					"hidden" : 0,
					"midpoints" : [  ]
				}

			}
, 			{
				"patchline" : 				{
					"source" : [ "obj-31", 0 ],
					"destination" : [ "obj-27", 0 ],
					"hidden" : 0,
					"midpoints" : [  ]
				}

			}
, 			{
				"patchline" : 				{
					"source" : [ "obj-41", 0 ],
					"destination" : [ "obj-37", 0 ],
					"hidden" : 0,
					"midpoints" : [ 126.5, 99.0, 105.0, 99.0, 105.0, 144.0, 120.0, 144.0, 120.0, 252.0, 6.0, 252.0, 6.0, 312.0, 19.5, 312.0 ]
				}

			}
, 			{
				"patchline" : 				{
					"source" : [ "obj-4", 0 ],
					"destination" : [ "obj-45", 0 ],
					"hidden" : 0,
					"midpoints" : [  ]
				}

			}
, 			{
				"patchline" : 				{
					"source" : [ "obj-45", 0 ],
					"destination" : [ "obj-37", 0 ],
					"hidden" : 0,
					"midpoints" : [  ]
				}

			}
, 			{
				"patchline" : 				{
					"source" : [ "obj-45", 0 ],
					"destination" : [ "obj-1", 0 ],
					"hidden" : 0,
					"midpoints" : [  ]
				}

			}
, 			{
				"patchline" : 				{
					"source" : [ "obj-46", 0 ],
					"destination" : [ "obj-37", 0 ],
					"hidden" : 0,
					"midpoints" : [ 126.5, 252.0, 6.0, 252.0, 6.0, 312.0, 19.5, 312.0 ]
				}

			}
, 			{
				"patchline" : 				{
					"source" : [ "obj-33", 0 ],
					"destination" : [ "obj-52", 1 ],
					"hidden" : 0,
					"midpoints" : [  ]
				}

			}
, 			{
				"patchline" : 				{
					"source" : [ "obj-33", 0 ],
					"destination" : [ "obj-47", 0 ],
					"hidden" : 0,
					"midpoints" : [  ]
				}

			}
, 			{
				"patchline" : 				{
					"source" : [ "obj-47", 0 ],
					"destination" : [ "obj-52", 0 ],
					"hidden" : 0,
					"midpoints" : [  ]
				}

			}
, 			{
				"patchline" : 				{
					"source" : [ "obj-52", 0 ],
					"destination" : [ "obj-37", 0 ],
					"hidden" : 0,
					"midpoints" : [  ]
				}

			}
, 			{
				"patchline" : 				{
					"source" : [ "obj-37", 0 ],
					"destination" : [ "obj-56", 1 ],
					"hidden" : 0,
					"midpoints" : [ 19.5, 356.0, 216.0, 356.0, 216.0, 267.0, 532.5, 267.0 ]
				}

			}
, 			{
				"patchline" : 				{
					"source" : [ "obj-1", 0 ],
					"destination" : [ "obj-56", 0 ],
					"hidden" : 0,
					"midpoints" : [  ]
				}

			}
, 			{
				"patchline" : 				{
					"source" : [ "obj-56", 0 ],
					"destination" : [ "obj-58", 0 ],
					"hidden" : 0,
					"midpoints" : [  ]
				}

			}
, 			{
				"patchline" : 				{
					"source" : [ "obj-58", 0 ],
					"destination" : [ "obj-57", 0 ],
					"hidden" : 0,
					"midpoints" : [  ]
				}

			}
, 			{
				"patchline" : 				{
					"source" : [ "obj-60", 0 ],
					"destination" : [ "obj-63", 0 ],
					"hidden" : 0,
					"midpoints" : [  ]
				}

			}
, 			{
				"patchline" : 				{
					"source" : [ "obj-59", 0 ],
					"destination" : [ "obj-61", 0 ],
					"hidden" : 0,
					"midpoints" : [  ]
				}

			}
, 			{
				"patchline" : 				{
					"source" : [ "obj-63", 0 ],
					"destination" : [ "obj-57", 0 ],
					"hidden" : 0,
					"midpoints" : [  ]
				}

			}
, 			{
				"patchline" : 				{
					"source" : [ "obj-61", 0 ],
					"destination" : [ "obj-57", 0 ],
					"hidden" : 0,
					"midpoints" : [  ]
				}

			}
, 			{
				"patchline" : 				{
					"source" : [ "obj-34", 0 ],
					"destination" : [ "obj-73", 0 ],
					"hidden" : 0,
					"midpoints" : [  ]
				}

			}
, 			{
				"patchline" : 				{
					"source" : [ "obj-74", 0 ],
					"destination" : [ "obj-33", 0 ],
					"hidden" : 0,
					"midpoints" : [  ]
				}

			}
 ]
	}

}
