{
	"patcher" : 	{
		"fileversion" : 1,
		"rect" : [ 16.0, 87.0, 1124.0, 731.0 ],
		"bglocked" : 0,
		"defrect" : [ 16.0, 87.0, 1124.0, 731.0 ],
		"openrect" : [ 0.0, 0.0, 0.0, 0.0 ],
		"openinpresentation" : 0,
		"default_fontsize" : 12.0,
		"default_fontface" : 0,
		"default_fontname" : "Helvetica",
		"gridonopen" : 0,
		"gridsize" : [ 15.0, 15.0 ],
		"gridsnaponopen" : 0,
		"toolbarvisible" : 1,
		"boxanimatetime" : 200,
		"imprint" : 0,
		"enablehscroll" : 1,
		"enablevscroll" : 1,
		"devicewidth" : 0.0,
		"boxes" : [ 			{
				"box" : 				{
					"maxclass" : "message",
					"text" : "1",
					"fontsize" : 12.0,
					"numinlets" : 2,
					"patching_rect" : [ 264.0, 16.0, 32.5, 16.0 ],
					"numoutlets" : 1,
					"outlettype" : [ "" ],
					"id" : "obj-28",
					"fontname" : "Helvetica"
				}

			}
, 			{
				"box" : 				{
					"maxclass" : "newobj",
					"text" : "r loadbg",
					"fontsize" : 12.0,
					"numinlets" : 0,
					"patching_rect" : [ 182.0, 15.0, 54.0, 18.0 ],
					"numoutlets" : 1,
					"outlettype" : [ "" ],
					"id" : "obj-1",
					"fontname" : "Helvetica"
				}

			}
, 			{
				"box" : 				{
					"maxclass" : "newobj",
					"text" : "r loadbg",
					"fontsize" : 12.0,
					"numinlets" : 0,
					"patching_rect" : [ 250.0, 468.0, 54.0, 18.0 ],
					"numoutlets" : 1,
					"outlettype" : [ "" ],
					"id" : "obj-43",
					"fontname" : "Helvetica"
				}

			}
, 			{
				"box" : 				{
					"maxclass" : "message",
					"text" : "5",
					"fontsize" : 12.0,
					"numinlets" : 2,
					"patching_rect" : [ 263.0, 506.0, 32.5, 16.0 ],
					"numoutlets" : 1,
					"outlettype" : [ "" ],
					"id" : "obj-44",
					"fontname" : "Helvetica"
				}

			}
, 			{
				"box" : 				{
					"maxclass" : "newobj",
					"text" : "p ph.objmgr",
					"fontsize" : 12.0,
					"numinlets" : 2,
					"patching_rect" : [ 72.0, 530.5, 74.0, 18.0 ],
					"numoutlets" : 5,
					"outlettype" : [ "float", "float", "float", "", "int" ],
					"id" : "obj-45",
					"fontname" : "Helvetica",
					"patcher" : 					{
						"fileversion" : 1,
						"rect" : [ 25.0, 69.0, 640.0, 480.0 ],
						"bglocked" : 0,
						"defrect" : [ 25.0, 69.0, 640.0, 480.0 ],
						"openrect" : [ 0.0, 0.0, 0.0, 0.0 ],
						"openinpresentation" : 0,
						"default_fontsize" : 12.0,
						"default_fontface" : 0,
						"default_fontname" : "Helvetica",
						"gridonopen" : 0,
						"gridsize" : [ 15.0, 15.0 ],
						"gridsnaponopen" : 0,
						"toolbarvisible" : 1,
						"boxanimatetime" : 200,
						"imprint" : 0,
						"enablehscroll" : 1,
						"enablevscroll" : 1,
						"devicewidth" : 0.0,
						"boxes" : [ 							{
								"box" : 								{
									"maxclass" : "newobj",
									"text" : "unpack f f f",
									"fontsize" : 12.0,
									"numinlets" : 1,
									"patching_rect" : [ 50.0, 239.5, 69.0, 18.0 ],
									"numoutlets" : 3,
									"outlettype" : [ "float", "float", "float" ],
									"id" : "obj-31",
									"fontname" : "Helvetica"
								}

							}
, 							{
								"box" : 								{
									"maxclass" : "toggle",
									"numinlets" : 1,
									"patching_rect" : [ 185.323975, 175.5, 20.0, 20.0 ],
									"numoutlets" : 1,
									"outlettype" : [ "int" ],
									"id" : "obj-193"
								}

							}
, 							{
								"box" : 								{
									"maxclass" : "newobj",
									"text" : "r orientation",
									"fontsize" : 12.0,
									"numinlets" : 0,
									"patching_rect" : [ 125.723938, 237.5, 74.0, 20.0 ],
									"numoutlets" : 1,
									"color" : [ 0.317647, 0.709804, 0.321569, 1.0 ],
									"outlettype" : [ "" ],
									"id" : "obj-82",
									"fontname" : "Arial"
								}

							}
, 							{
								"box" : 								{
									"maxclass" : "inlet",
									"numinlets" : 0,
									"patching_rect" : [ 89.661987, 40.0, 25.0, 25.0 ],
									"numoutlets" : 1,
									"outlettype" : [ "" ],
									"id" : "obj-45",
									"comment" : ""
								}

							}
, 							{
								"box" : 								{
									"maxclass" : "inlet",
									"numinlets" : 0,
									"patching_rect" : [ 185.323975, 40.0, 25.0, 25.0 ],
									"numoutlets" : 1,
									"outlettype" : [ "" ],
									"id" : "obj-46",
									"comment" : ""
								}

							}
, 							{
								"box" : 								{
									"maxclass" : "outlet",
									"numinlets" : 1,
									"patching_rect" : [ 50.0, 317.5, 25.0, 25.0 ],
									"numoutlets" : 0,
									"id" : "obj-47",
									"comment" : ""
								}

							}
, 							{
								"box" : 								{
									"maxclass" : "outlet",
									"numinlets" : 1,
									"patching_rect" : [ 75.0, 317.5, 25.0, 25.0 ],
									"numoutlets" : 0,
									"id" : "obj-48",
									"comment" : ""
								}

							}
, 							{
								"box" : 								{
									"maxclass" : "outlet",
									"numinlets" : 1,
									"patching_rect" : [ 100.0, 317.5, 25.0, 25.0 ],
									"numoutlets" : 0,
									"id" : "obj-49",
									"comment" : ""
								}

							}
, 							{
								"box" : 								{
									"maxclass" : "outlet",
									"numinlets" : 1,
									"patching_rect" : [ 125.723938, 317.5, 25.0, 25.0 ],
									"numoutlets" : 0,
									"id" : "obj-50",
									"comment" : ""
								}

							}
, 							{
								"box" : 								{
									"maxclass" : "outlet",
									"numinlets" : 1,
									"patching_rect" : [ 185.323975, 317.5, 25.0, 25.0 ],
									"numoutlets" : 0,
									"id" : "obj-51",
									"comment" : ""
								}

							}
 ],
						"lines" : [ 							{
								"patchline" : 								{
									"source" : [ "obj-45", 0 ],
									"destination" : [ "obj-31", 0 ],
									"hidden" : 0,
									"midpoints" : [  ]
								}

							}
, 							{
								"patchline" : 								{
									"source" : [ "obj-46", 0 ],
									"destination" : [ "obj-193", 0 ],
									"hidden" : 0,
									"midpoints" : [  ]
								}

							}
, 							{
								"patchline" : 								{
									"source" : [ "obj-31", 0 ],
									"destination" : [ "obj-47", 0 ],
									"hidden" : 0,
									"midpoints" : [  ]
								}

							}
, 							{
								"patchline" : 								{
									"source" : [ "obj-31", 1 ],
									"destination" : [ "obj-48", 0 ],
									"hidden" : 0,
									"midpoints" : [  ]
								}

							}
, 							{
								"patchline" : 								{
									"source" : [ "obj-31", 2 ],
									"destination" : [ "obj-49", 0 ],
									"hidden" : 0,
									"midpoints" : [  ]
								}

							}
, 							{
								"patchline" : 								{
									"source" : [ "obj-82", 0 ],
									"destination" : [ "obj-50", 0 ],
									"hidden" : 0,
									"midpoints" : [  ]
								}

							}
, 							{
								"patchline" : 								{
									"source" : [ "obj-193", 0 ],
									"destination" : [ "obj-51", 0 ],
									"hidden" : 0,
									"midpoints" : [  ]
								}

							}
 ]
					}
,
					"saved_object_attributes" : 					{
						"globalpatchername" : "",
						"fontface" : 0,
						"fontsize" : 12.0,
						"default_fontface" : 0,
						"default_fontname" : "Helvetica",
						"fontname" : "Helvetica",
						"default_fontsize" : 12.0
					}

				}

			}
, 			{
				"box" : 				{
					"maxclass" : "newobj",
					"text" : "r objon_5",
					"fontsize" : 12.0,
					"numinlets" : 0,
					"patching_rect" : [ 145.723938, 502.0, 61.0, 20.0 ],
					"numoutlets" : 1,
					"color" : [ 0.317647, 0.709804, 0.321569, 1.0 ],
					"outlettype" : [ "" ],
					"id" : "obj-46",
					"fontname" : "Arial"
				}

			}
, 			{
				"box" : 				{
					"maxclass" : "newobj",
					"text" : "r objsnd_5",
					"fontsize" : 12.0,
					"numinlets" : 0,
					"patching_rect" : [ 71.723938, 502.0, 67.0, 20.0 ],
					"numoutlets" : 1,
					"color" : [ 0.317647, 0.709804, 0.321569, 1.0 ],
					"outlettype" : [ "" ],
					"id" : "obj-47",
					"fontname" : "Arial"
				}

			}
, 			{
				"box" : 				{
					"maxclass" : "newobj",
					"text" : "rec_dac",
					"fontsize" : 14.0,
					"numinlets" : 2,
					"patching_rect" : [ 72.323975, 588.0, 61.0, 23.0 ],
					"numoutlets" : 0,
					"color" : [ 1.0, 0.337255, 0.619608, 1.0 ],
					"id" : "obj-48",
					"fontname" : "Arial"
				}

			}
, 			{
				"box" : 				{
					"maxclass" : "newobj",
					"text" : "phexp.exit1",
					"fontsize" : 16.0,
					"numinlets" : 1,
					"bgcolor" : [ 0.678431, 0.819608, 0.819608, 1.0 ],
					"patching_rect" : [ 157.323975, 526.0, 92.0, 25.0 ],
					"numoutlets" : 1,
					"color" : [ 0.419608, 0.435294, 0.521569, 1.0 ],
					"outlettype" : [ "signal" ],
					"id" : "obj-49",
					"fontname" : "Arial"
				}

			}
, 			{
				"box" : 				{
					"maxclass" : "newobj",
					"text" : "ph.headphone_spatializer",
					"fontsize" : 14.0,
					"numinlets" : 6,
					"bgcolor" : [ 0.678431, 0.819608, 0.819608, 1.0 ],
					"patching_rect" : [ 73.0, 559.843018, 171.0, 20.0 ],
					"numoutlets" : 2,
					"color" : [ 0.419608, 0.435294, 0.521569, 1.0 ],
					"outlettype" : [ "signal", "signal" ],
					"id" : "obj-50",
					"fontname" : "Helvetica"
				}

			}
, 			{
				"box" : 				{
					"maxclass" : "newobj",
					"text" : "r loadbg",
					"fontsize" : 12.0,
					"numinlets" : 0,
					"patching_rect" : [ 986.0, 320.0, 54.0, 18.0 ],
					"numoutlets" : 1,
					"outlettype" : [ "" ],
					"id" : "obj-17",
					"fontname" : "Helvetica"
				}

			}
, 			{
				"box" : 				{
					"maxclass" : "message",
					"text" : "4",
					"fontsize" : 12.0,
					"numinlets" : 2,
					"patching_rect" : [ 999.0, 358.0, 32.5, 16.0 ],
					"numoutlets" : 1,
					"outlettype" : [ "" ],
					"id" : "obj-18",
					"fontname" : "Helvetica"
				}

			}
, 			{
				"box" : 				{
					"maxclass" : "newobj",
					"text" : "p ph.objmgr",
					"fontsize" : 12.0,
					"numinlets" : 2,
					"patching_rect" : [ 849.0, 389.5, 74.0, 18.0 ],
					"numoutlets" : 5,
					"outlettype" : [ "float", "float", "float", "", "int" ],
					"id" : "obj-19",
					"fontname" : "Helvetica",
					"patcher" : 					{
						"fileversion" : 1,
						"rect" : [ 25.0, 69.0, 640.0, 480.0 ],
						"bglocked" : 0,
						"defrect" : [ 25.0, 69.0, 640.0, 480.0 ],
						"openrect" : [ 0.0, 0.0, 0.0, 0.0 ],
						"openinpresentation" : 0,
						"default_fontsize" : 12.0,
						"default_fontface" : 0,
						"default_fontname" : "Helvetica",
						"gridonopen" : 0,
						"gridsize" : [ 15.0, 15.0 ],
						"gridsnaponopen" : 0,
						"toolbarvisible" : 1,
						"boxanimatetime" : 200,
						"imprint" : 0,
						"enablehscroll" : 1,
						"enablevscroll" : 1,
						"devicewidth" : 0.0,
						"boxes" : [ 							{
								"box" : 								{
									"maxclass" : "newobj",
									"text" : "unpack f f f",
									"fontsize" : 12.0,
									"numinlets" : 1,
									"patching_rect" : [ 50.0, 239.5, 69.0, 18.0 ],
									"numoutlets" : 3,
									"outlettype" : [ "float", "float", "float" ],
									"id" : "obj-31",
									"fontname" : "Helvetica"
								}

							}
, 							{
								"box" : 								{
									"maxclass" : "toggle",
									"numinlets" : 1,
									"patching_rect" : [ 185.323975, 175.5, 20.0, 20.0 ],
									"numoutlets" : 1,
									"outlettype" : [ "int" ],
									"id" : "obj-193"
								}

							}
, 							{
								"box" : 								{
									"maxclass" : "newobj",
									"text" : "r orientation",
									"fontsize" : 12.0,
									"numinlets" : 0,
									"patching_rect" : [ 125.723938, 237.5, 74.0, 20.0 ],
									"numoutlets" : 1,
									"color" : [ 0.317647, 0.709804, 0.321569, 1.0 ],
									"outlettype" : [ "" ],
									"id" : "obj-82",
									"fontname" : "Arial"
								}

							}
, 							{
								"box" : 								{
									"maxclass" : "inlet",
									"numinlets" : 0,
									"patching_rect" : [ 89.661987, 40.0, 25.0, 25.0 ],
									"numoutlets" : 1,
									"outlettype" : [ "" ],
									"id" : "obj-45",
									"comment" : ""
								}

							}
, 							{
								"box" : 								{
									"maxclass" : "inlet",
									"numinlets" : 0,
									"patching_rect" : [ 185.323975, 40.0, 25.0, 25.0 ],
									"numoutlets" : 1,
									"outlettype" : [ "" ],
									"id" : "obj-46",
									"comment" : ""
								}

							}
, 							{
								"box" : 								{
									"maxclass" : "outlet",
									"numinlets" : 1,
									"patching_rect" : [ 50.0, 317.5, 25.0, 25.0 ],
									"numoutlets" : 0,
									"id" : "obj-47",
									"comment" : ""
								}

							}
, 							{
								"box" : 								{
									"maxclass" : "outlet",
									"numinlets" : 1,
									"patching_rect" : [ 75.0, 317.5, 25.0, 25.0 ],
									"numoutlets" : 0,
									"id" : "obj-48",
									"comment" : ""
								}

							}
, 							{
								"box" : 								{
									"maxclass" : "outlet",
									"numinlets" : 1,
									"patching_rect" : [ 100.0, 317.5, 25.0, 25.0 ],
									"numoutlets" : 0,
									"id" : "obj-49",
									"comment" : ""
								}

							}
, 							{
								"box" : 								{
									"maxclass" : "outlet",
									"numinlets" : 1,
									"patching_rect" : [ 125.723938, 317.5, 25.0, 25.0 ],
									"numoutlets" : 0,
									"id" : "obj-50",
									"comment" : ""
								}

							}
, 							{
								"box" : 								{
									"maxclass" : "outlet",
									"numinlets" : 1,
									"patching_rect" : [ 185.323975, 317.5, 25.0, 25.0 ],
									"numoutlets" : 0,
									"id" : "obj-51",
									"comment" : ""
								}

							}
 ],
						"lines" : [ 							{
								"patchline" : 								{
									"source" : [ "obj-45", 0 ],
									"destination" : [ "obj-31", 0 ],
									"hidden" : 0,
									"midpoints" : [  ]
								}

							}
, 							{
								"patchline" : 								{
									"source" : [ "obj-46", 0 ],
									"destination" : [ "obj-193", 0 ],
									"hidden" : 0,
									"midpoints" : [  ]
								}

							}
, 							{
								"patchline" : 								{
									"source" : [ "obj-31", 0 ],
									"destination" : [ "obj-47", 0 ],
									"hidden" : 0,
									"midpoints" : [  ]
								}

							}
, 							{
								"patchline" : 								{
									"source" : [ "obj-31", 1 ],
									"destination" : [ "obj-48", 0 ],
									"hidden" : 0,
									"midpoints" : [  ]
								}

							}
, 							{
								"patchline" : 								{
									"source" : [ "obj-31", 2 ],
									"destination" : [ "obj-49", 0 ],
									"hidden" : 0,
									"midpoints" : [  ]
								}

							}
, 							{
								"patchline" : 								{
									"source" : [ "obj-82", 0 ],
									"destination" : [ "obj-50", 0 ],
									"hidden" : 0,
									"midpoints" : [  ]
								}

							}
, 							{
								"patchline" : 								{
									"source" : [ "obj-193", 0 ],
									"destination" : [ "obj-51", 0 ],
									"hidden" : 0,
									"midpoints" : [  ]
								}

							}
 ]
					}
,
					"saved_object_attributes" : 					{
						"globalpatchername" : "",
						"fontface" : 0,
						"fontsize" : 12.0,
						"default_fontface" : 0,
						"default_fontname" : "Helvetica",
						"fontname" : "Helvetica",
						"default_fontsize" : 12.0
					}

				}

			}
, 			{
				"box" : 				{
					"maxclass" : "newobj",
					"text" : "r objon_4",
					"fontsize" : 12.0,
					"numinlets" : 0,
					"patching_rect" : [ 922.723938, 361.0, 61.0, 20.0 ],
					"numoutlets" : 1,
					"color" : [ 0.317647, 0.709804, 0.321569, 1.0 ],
					"outlettype" : [ "" ],
					"id" : "obj-20",
					"fontname" : "Arial"
				}

			}
, 			{
				"box" : 				{
					"maxclass" : "newobj",
					"text" : "r objsnd_4",
					"fontsize" : 12.0,
					"numinlets" : 0,
					"patching_rect" : [ 848.723938, 361.0, 67.0, 20.0 ],
					"numoutlets" : 1,
					"color" : [ 0.317647, 0.709804, 0.321569, 1.0 ],
					"outlettype" : [ "" ],
					"id" : "obj-22",
					"fontname" : "Arial"
				}

			}
, 			{
				"box" : 				{
					"maxclass" : "newobj",
					"text" : "rec_dac",
					"fontsize" : 14.0,
					"numinlets" : 2,
					"patching_rect" : [ 849.323975, 447.0, 61.0, 23.0 ],
					"numoutlets" : 0,
					"color" : [ 1.0, 0.337255, 0.619608, 1.0 ],
					"id" : "obj-23",
					"fontname" : "Arial"
				}

			}
, 			{
				"box" : 				{
					"maxclass" : "newobj",
					"text" : "phexp.paraEq_3",
					"fontsize" : 16.0,
					"numinlets" : 2,
					"bgcolor" : [ 0.678431, 0.819608, 0.819608, 1.0 ],
					"patching_rect" : [ 934.323975, 385.0, 128.0, 25.0 ],
					"numoutlets" : 1,
					"color" : [ 0.419608, 0.435294, 0.521569, 1.0 ],
					"outlettype" : [ "signal" ],
					"id" : "obj-25",
					"fontname" : "Arial"
				}

			}
, 			{
				"box" : 				{
					"maxclass" : "newobj",
					"text" : "ph.headphone_spatializer",
					"fontsize" : 14.0,
					"numinlets" : 6,
					"bgcolor" : [ 0.678431, 0.819608, 0.819608, 1.0 ],
					"patching_rect" : [ 850.0, 418.843018, 171.0, 20.0 ],
					"numoutlets" : 2,
					"color" : [ 0.419608, 0.435294, 0.521569, 1.0 ],
					"outlettype" : [ "signal", "signal" ],
					"id" : "obj-26",
					"fontname" : "Helvetica"
				}

			}
, 			{
				"box" : 				{
					"maxclass" : "newobj",
					"text" : "r loadbg",
					"fontsize" : 12.0,
					"numinlets" : 0,
					"patching_rect" : [ 740.0, 323.0, 54.0, 18.0 ],
					"numoutlets" : 1,
					"outlettype" : [ "" ],
					"id" : "obj-2",
					"fontname" : "Helvetica"
				}

			}
, 			{
				"box" : 				{
					"maxclass" : "message",
					"text" : "3",
					"fontsize" : 12.0,
					"numinlets" : 2,
					"patching_rect" : [ 753.0, 361.0, 32.5, 16.0 ],
					"numoutlets" : 1,
					"outlettype" : [ "" ],
					"id" : "obj-3",
					"fontname" : "Helvetica"
				}

			}
, 			{
				"box" : 				{
					"maxclass" : "newobj",
					"text" : "p ph.objmgr",
					"fontsize" : 12.0,
					"numinlets" : 2,
					"patching_rect" : [ 603.0, 392.5, 74.0, 18.0 ],
					"numoutlets" : 5,
					"outlettype" : [ "float", "float", "float", "", "int" ],
					"id" : "obj-4",
					"fontname" : "Helvetica",
					"patcher" : 					{
						"fileversion" : 1,
						"rect" : [ 25.0, 69.0, 640.0, 480.0 ],
						"bglocked" : 0,
						"defrect" : [ 25.0, 69.0, 640.0, 480.0 ],
						"openrect" : [ 0.0, 0.0, 0.0, 0.0 ],
						"openinpresentation" : 0,
						"default_fontsize" : 12.0,
						"default_fontface" : 0,
						"default_fontname" : "Helvetica",
						"gridonopen" : 0,
						"gridsize" : [ 15.0, 15.0 ],
						"gridsnaponopen" : 0,
						"toolbarvisible" : 1,
						"boxanimatetime" : 200,
						"imprint" : 0,
						"enablehscroll" : 1,
						"enablevscroll" : 1,
						"devicewidth" : 0.0,
						"boxes" : [ 							{
								"box" : 								{
									"maxclass" : "newobj",
									"text" : "unpack f f f",
									"fontsize" : 12.0,
									"numinlets" : 1,
									"patching_rect" : [ 50.0, 239.5, 69.0, 18.0 ],
									"numoutlets" : 3,
									"outlettype" : [ "float", "float", "float" ],
									"id" : "obj-31",
									"fontname" : "Helvetica"
								}

							}
, 							{
								"box" : 								{
									"maxclass" : "toggle",
									"numinlets" : 1,
									"patching_rect" : [ 185.323975, 175.5, 20.0, 20.0 ],
									"numoutlets" : 1,
									"outlettype" : [ "int" ],
									"id" : "obj-193"
								}

							}
, 							{
								"box" : 								{
									"maxclass" : "newobj",
									"text" : "r orientation",
									"fontsize" : 12.0,
									"numinlets" : 0,
									"patching_rect" : [ 125.723938, 237.5, 74.0, 20.0 ],
									"numoutlets" : 1,
									"color" : [ 0.317647, 0.709804, 0.321569, 1.0 ],
									"outlettype" : [ "" ],
									"id" : "obj-82",
									"fontname" : "Arial"
								}

							}
, 							{
								"box" : 								{
									"maxclass" : "inlet",
									"numinlets" : 0,
									"patching_rect" : [ 89.661987, 40.0, 25.0, 25.0 ],
									"numoutlets" : 1,
									"outlettype" : [ "" ],
									"id" : "obj-45",
									"comment" : ""
								}

							}
, 							{
								"box" : 								{
									"maxclass" : "inlet",
									"numinlets" : 0,
									"patching_rect" : [ 185.323975, 40.0, 25.0, 25.0 ],
									"numoutlets" : 1,
									"outlettype" : [ "" ],
									"id" : "obj-46",
									"comment" : ""
								}

							}
, 							{
								"box" : 								{
									"maxclass" : "outlet",
									"numinlets" : 1,
									"patching_rect" : [ 50.0, 317.5, 25.0, 25.0 ],
									"numoutlets" : 0,
									"id" : "obj-47",
									"comment" : ""
								}

							}
, 							{
								"box" : 								{
									"maxclass" : "outlet",
									"numinlets" : 1,
									"patching_rect" : [ 75.0, 317.5, 25.0, 25.0 ],
									"numoutlets" : 0,
									"id" : "obj-48",
									"comment" : ""
								}

							}
, 							{
								"box" : 								{
									"maxclass" : "outlet",
									"numinlets" : 1,
									"patching_rect" : [ 100.0, 317.5, 25.0, 25.0 ],
									"numoutlets" : 0,
									"id" : "obj-49",
									"comment" : ""
								}

							}
, 							{
								"box" : 								{
									"maxclass" : "outlet",
									"numinlets" : 1,
									"patching_rect" : [ 125.723938, 317.5, 25.0, 25.0 ],
									"numoutlets" : 0,
									"id" : "obj-50",
									"comment" : ""
								}

							}
, 							{
								"box" : 								{
									"maxclass" : "outlet",
									"numinlets" : 1,
									"patching_rect" : [ 185.323975, 317.5, 25.0, 25.0 ],
									"numoutlets" : 0,
									"id" : "obj-51",
									"comment" : ""
								}

							}
 ],
						"lines" : [ 							{
								"patchline" : 								{
									"source" : [ "obj-193", 0 ],
									"destination" : [ "obj-51", 0 ],
									"hidden" : 0,
									"midpoints" : [  ]
								}

							}
, 							{
								"patchline" : 								{
									"source" : [ "obj-82", 0 ],
									"destination" : [ "obj-50", 0 ],
									"hidden" : 0,
									"midpoints" : [  ]
								}

							}
, 							{
								"patchline" : 								{
									"source" : [ "obj-31", 2 ],
									"destination" : [ "obj-49", 0 ],
									"hidden" : 0,
									"midpoints" : [  ]
								}

							}
, 							{
								"patchline" : 								{
									"source" : [ "obj-31", 1 ],
									"destination" : [ "obj-48", 0 ],
									"hidden" : 0,
									"midpoints" : [  ]
								}

							}
, 							{
								"patchline" : 								{
									"source" : [ "obj-31", 0 ],
									"destination" : [ "obj-47", 0 ],
									"hidden" : 0,
									"midpoints" : [  ]
								}

							}
, 							{
								"patchline" : 								{
									"source" : [ "obj-46", 0 ],
									"destination" : [ "obj-193", 0 ],
									"hidden" : 0,
									"midpoints" : [  ]
								}

							}
, 							{
								"patchline" : 								{
									"source" : [ "obj-45", 0 ],
									"destination" : [ "obj-31", 0 ],
									"hidden" : 0,
									"midpoints" : [  ]
								}

							}
 ]
					}
,
					"saved_object_attributes" : 					{
						"globalpatchername" : "",
						"fontface" : 0,
						"fontsize" : 12.0,
						"default_fontface" : 0,
						"default_fontname" : "Helvetica",
						"fontname" : "Helvetica",
						"default_fontsize" : 12.0
					}

				}

			}
, 			{
				"box" : 				{
					"maxclass" : "newobj",
					"text" : "r objon_3",
					"fontsize" : 12.0,
					"numinlets" : 0,
					"patching_rect" : [ 676.723938, 364.0, 61.0, 20.0 ],
					"numoutlets" : 1,
					"color" : [ 0.317647, 0.709804, 0.321569, 1.0 ],
					"outlettype" : [ "" ],
					"id" : "obj-6",
					"fontname" : "Arial"
				}

			}
, 			{
				"box" : 				{
					"maxclass" : "newobj",
					"text" : "r objsnd_3",
					"fontsize" : 12.0,
					"numinlets" : 0,
					"patching_rect" : [ 602.723938, 364.0, 67.0, 20.0 ],
					"numoutlets" : 1,
					"color" : [ 0.317647, 0.709804, 0.321569, 1.0 ],
					"outlettype" : [ "" ],
					"id" : "obj-7",
					"fontname" : "Arial"
				}

			}
, 			{
				"box" : 				{
					"maxclass" : "newobj",
					"text" : "rec_dac",
					"fontsize" : 14.0,
					"numinlets" : 2,
					"patching_rect" : [ 603.323975, 450.0, 61.0, 23.0 ],
					"numoutlets" : 0,
					"color" : [ 1.0, 0.337255, 0.619608, 1.0 ],
					"id" : "obj-8",
					"fontname" : "Arial"
				}

			}
, 			{
				"box" : 				{
					"maxclass" : "newobj",
					"text" : "phexp.paraEq_2",
					"fontsize" : 16.0,
					"numinlets" : 2,
					"bgcolor" : [ 0.678431, 0.819608, 0.819608, 1.0 ],
					"patching_rect" : [ 688.323975, 388.0, 128.0, 25.0 ],
					"numoutlets" : 1,
					"color" : [ 0.419608, 0.435294, 0.521569, 1.0 ],
					"outlettype" : [ "signal" ],
					"id" : "obj-12",
					"fontname" : "Arial"
				}

			}
, 			{
				"box" : 				{
					"maxclass" : "newobj",
					"text" : "ph.headphone_spatializer",
					"fontsize" : 14.0,
					"numinlets" : 6,
					"bgcolor" : [ 0.678431, 0.819608, 0.819608, 1.0 ],
					"patching_rect" : [ 604.0, 421.843018, 171.0, 20.0 ],
					"numoutlets" : 2,
					"color" : [ 0.419608, 0.435294, 0.521569, 1.0 ],
					"outlettype" : [ "signal", "signal" ],
					"id" : "obj-16",
					"fontname" : "Helvetica"
				}

			}
, 			{
				"box" : 				{
					"maxclass" : "newobj",
					"text" : "r loadbg",
					"fontsize" : 12.0,
					"numinlets" : 0,
					"patching_rect" : [ 477.0, 311.0, 54.0, 18.0 ],
					"numoutlets" : 1,
					"outlettype" : [ "" ],
					"id" : "obj-67",
					"fontname" : "Helvetica"
				}

			}
, 			{
				"box" : 				{
					"maxclass" : "message",
					"text" : "2",
					"fontsize" : 12.0,
					"numinlets" : 2,
					"patching_rect" : [ 490.0, 349.0, 32.5, 16.0 ],
					"numoutlets" : 1,
					"outlettype" : [ "" ],
					"id" : "obj-68",
					"fontname" : "Helvetica"
				}

			}
, 			{
				"box" : 				{
					"maxclass" : "newobj",
					"text" : "r loadbg",
					"fontsize" : 12.0,
					"numinlets" : 0,
					"patching_rect" : [ 188.0, 307.0, 54.0, 18.0 ],
					"numoutlets" : 1,
					"outlettype" : [ "" ],
					"id" : "obj-66",
					"fontname" : "Helvetica"
				}

			}
, 			{
				"box" : 				{
					"maxclass" : "message",
					"text" : "1",
					"fontsize" : 12.0,
					"numinlets" : 2,
					"patching_rect" : [ 201.0, 345.0, 32.5, 16.0 ],
					"numoutlets" : 1,
					"outlettype" : [ "" ],
					"id" : "obj-65",
					"fontname" : "Helvetica"
				}

			}
, 			{
				"box" : 				{
					"maxclass" : "newobj",
					"text" : "p ph.objmgr",
					"fontsize" : 12.0,
					"numinlets" : 2,
					"patching_rect" : [ 299.0, 373.5, 74.0, 18.0 ],
					"numoutlets" : 5,
					"outlettype" : [ "float", "float", "float", "", "int" ],
					"id" : "obj-59",
					"fontname" : "Helvetica",
					"patcher" : 					{
						"fileversion" : 1,
						"rect" : [ 25.0, 69.0, 640.0, 480.0 ],
						"bglocked" : 0,
						"defrect" : [ 25.0, 69.0, 640.0, 480.0 ],
						"openrect" : [ 0.0, 0.0, 0.0, 0.0 ],
						"openinpresentation" : 0,
						"default_fontsize" : 12.0,
						"default_fontface" : 0,
						"default_fontname" : "Helvetica",
						"gridonopen" : 0,
						"gridsize" : [ 15.0, 15.0 ],
						"gridsnaponopen" : 0,
						"toolbarvisible" : 1,
						"boxanimatetime" : 200,
						"imprint" : 0,
						"enablehscroll" : 1,
						"enablevscroll" : 1,
						"devicewidth" : 0.0,
						"boxes" : [ 							{
								"box" : 								{
									"maxclass" : "newobj",
									"text" : "unpack f f f",
									"fontsize" : 12.0,
									"numinlets" : 1,
									"patching_rect" : [ 50.0, 239.5, 69.0, 18.0 ],
									"numoutlets" : 3,
									"outlettype" : [ "float", "float", "float" ],
									"id" : "obj-31",
									"fontname" : "Helvetica"
								}

							}
, 							{
								"box" : 								{
									"maxclass" : "toggle",
									"numinlets" : 1,
									"patching_rect" : [ 185.323975, 175.5, 20.0, 20.0 ],
									"numoutlets" : 1,
									"outlettype" : [ "int" ],
									"id" : "obj-193"
								}

							}
, 							{
								"box" : 								{
									"maxclass" : "newobj",
									"text" : "r orientation",
									"fontsize" : 12.0,
									"numinlets" : 0,
									"patching_rect" : [ 125.723938, 237.5, 74.0, 20.0 ],
									"numoutlets" : 1,
									"color" : [ 0.317647, 0.709804, 0.321569, 1.0 ],
									"outlettype" : [ "" ],
									"id" : "obj-82",
									"fontname" : "Arial"
								}

							}
, 							{
								"box" : 								{
									"maxclass" : "inlet",
									"numinlets" : 0,
									"patching_rect" : [ 89.661987, 40.0, 25.0, 25.0 ],
									"numoutlets" : 1,
									"outlettype" : [ "" ],
									"id" : "obj-45",
									"comment" : ""
								}

							}
, 							{
								"box" : 								{
									"maxclass" : "inlet",
									"numinlets" : 0,
									"patching_rect" : [ 185.323975, 40.0, 25.0, 25.0 ],
									"numoutlets" : 1,
									"outlettype" : [ "" ],
									"id" : "obj-46",
									"comment" : ""
								}

							}
, 							{
								"box" : 								{
									"maxclass" : "outlet",
									"numinlets" : 1,
									"patching_rect" : [ 50.0, 317.5, 25.0, 25.0 ],
									"numoutlets" : 0,
									"id" : "obj-47",
									"comment" : ""
								}

							}
, 							{
								"box" : 								{
									"maxclass" : "outlet",
									"numinlets" : 1,
									"patching_rect" : [ 75.0, 317.5, 25.0, 25.0 ],
									"numoutlets" : 0,
									"id" : "obj-48",
									"comment" : ""
								}

							}
, 							{
								"box" : 								{
									"maxclass" : "outlet",
									"numinlets" : 1,
									"patching_rect" : [ 100.0, 317.5, 25.0, 25.0 ],
									"numoutlets" : 0,
									"id" : "obj-49",
									"comment" : ""
								}

							}
, 							{
								"box" : 								{
									"maxclass" : "outlet",
									"numinlets" : 1,
									"patching_rect" : [ 125.723938, 317.5, 25.0, 25.0 ],
									"numoutlets" : 0,
									"id" : "obj-50",
									"comment" : ""
								}

							}
, 							{
								"box" : 								{
									"maxclass" : "outlet",
									"numinlets" : 1,
									"patching_rect" : [ 185.323975, 317.5, 25.0, 25.0 ],
									"numoutlets" : 0,
									"id" : "obj-51",
									"comment" : ""
								}

							}
 ],
						"lines" : [ 							{
								"patchline" : 								{
									"source" : [ "obj-193", 0 ],
									"destination" : [ "obj-51", 0 ],
									"hidden" : 0,
									"midpoints" : [  ]
								}

							}
, 							{
								"patchline" : 								{
									"source" : [ "obj-82", 0 ],
									"destination" : [ "obj-50", 0 ],
									"hidden" : 0,
									"midpoints" : [  ]
								}

							}
, 							{
								"patchline" : 								{
									"source" : [ "obj-31", 2 ],
									"destination" : [ "obj-49", 0 ],
									"hidden" : 0,
									"midpoints" : [  ]
								}

							}
, 							{
								"patchline" : 								{
									"source" : [ "obj-31", 1 ],
									"destination" : [ "obj-48", 0 ],
									"hidden" : 0,
									"midpoints" : [  ]
								}

							}
, 							{
								"patchline" : 								{
									"source" : [ "obj-31", 0 ],
									"destination" : [ "obj-47", 0 ],
									"hidden" : 0,
									"midpoints" : [  ]
								}

							}
, 							{
								"patchline" : 								{
									"source" : [ "obj-46", 0 ],
									"destination" : [ "obj-193", 0 ],
									"hidden" : 0,
									"midpoints" : [  ]
								}

							}
, 							{
								"patchline" : 								{
									"source" : [ "obj-45", 0 ],
									"destination" : [ "obj-31", 0 ],
									"hidden" : 0,
									"midpoints" : [  ]
								}

							}
 ]
					}
,
					"saved_object_attributes" : 					{
						"globalpatchername" : "",
						"fontface" : 0,
						"fontsize" : 12.0,
						"default_fontface" : 0,
						"default_fontname" : "Helvetica",
						"fontname" : "Helvetica",
						"default_fontsize" : 12.0
					}

				}

			}
, 			{
				"box" : 				{
					"maxclass" : "newobj",
					"text" : "r objon_2",
					"fontsize" : 12.0,
					"numinlets" : 0,
					"patching_rect" : [ 372.723938, 345.0, 61.0, 20.0 ],
					"numoutlets" : 1,
					"color" : [ 0.317647, 0.709804, 0.321569, 1.0 ],
					"outlettype" : [ "" ],
					"id" : "obj-60",
					"fontname" : "Arial"
				}

			}
, 			{
				"box" : 				{
					"maxclass" : "newobj",
					"text" : "r objsnd_2",
					"fontsize" : 12.0,
					"numinlets" : 0,
					"patching_rect" : [ 298.723938, 345.0, 67.0, 20.0 ],
					"numoutlets" : 1,
					"color" : [ 0.317647, 0.709804, 0.321569, 1.0 ],
					"outlettype" : [ "" ],
					"id" : "obj-61",
					"fontname" : "Arial"
				}

			}
, 			{
				"box" : 				{
					"maxclass" : "newobj",
					"text" : "rec_dac",
					"fontsize" : 14.0,
					"numinlets" : 2,
					"patching_rect" : [ 299.323975, 431.0, 61.0, 23.0 ],
					"numoutlets" : 0,
					"color" : [ 1.0, 0.337255, 0.619608, 1.0 ],
					"id" : "obj-62",
					"fontname" : "Arial"
				}

			}
, 			{
				"box" : 				{
					"maxclass" : "newobj",
					"text" : "phexp.exit1",
					"fontsize" : 16.0,
					"numinlets" : 1,
					"bgcolor" : [ 0.678431, 0.819608, 0.819608, 1.0 ],
					"patching_rect" : [ 384.323975, 369.0, 92.0, 25.0 ],
					"numoutlets" : 1,
					"color" : [ 0.419608, 0.435294, 0.521569, 1.0 ],
					"outlettype" : [ "signal" ],
					"id" : "obj-63",
					"fontname" : "Arial"
				}

			}
, 			{
				"box" : 				{
					"maxclass" : "newobj",
					"text" : "ph.headphone_spatializer",
					"fontsize" : 14.0,
					"numinlets" : 6,
					"bgcolor" : [ 0.678431, 0.819608, 0.819608, 1.0 ],
					"patching_rect" : [ 300.0, 402.843018, 171.0, 20.0 ],
					"numoutlets" : 2,
					"color" : [ 0.419608, 0.435294, 0.521569, 1.0 ],
					"outlettype" : [ "signal", "signal" ],
					"id" : "obj-64",
					"fontname" : "Helvetica"
				}

			}
, 			{
				"box" : 				{
					"maxclass" : "newobj",
					"text" : "p ph.objmgr",
					"fontsize" : 12.0,
					"numinlets" : 2,
					"patching_rect" : [ 51.0, 376.5, 74.0, 18.0 ],
					"numoutlets" : 5,
					"outlettype" : [ "float", "float", "float", "", "int" ],
					"id" : "obj-52",
					"fontname" : "Helvetica",
					"patcher" : 					{
						"fileversion" : 1,
						"rect" : [ 25.0, 69.0, 640.0, 480.0 ],
						"bglocked" : 0,
						"defrect" : [ 25.0, 69.0, 640.0, 480.0 ],
						"openrect" : [ 0.0, 0.0, 0.0, 0.0 ],
						"openinpresentation" : 0,
						"default_fontsize" : 12.0,
						"default_fontface" : 0,
						"default_fontname" : "Helvetica",
						"gridonopen" : 0,
						"gridsize" : [ 15.0, 15.0 ],
						"gridsnaponopen" : 0,
						"toolbarvisible" : 1,
						"boxanimatetime" : 200,
						"imprint" : 0,
						"enablehscroll" : 1,
						"enablevscroll" : 1,
						"devicewidth" : 0.0,
						"boxes" : [ 							{
								"box" : 								{
									"maxclass" : "newobj",
									"text" : "unpack f f f",
									"fontsize" : 12.0,
									"numinlets" : 1,
									"patching_rect" : [ 50.0, 239.5, 69.0, 18.0 ],
									"numoutlets" : 3,
									"outlettype" : [ "float", "float", "float" ],
									"id" : "obj-31",
									"fontname" : "Helvetica"
								}

							}
, 							{
								"box" : 								{
									"maxclass" : "toggle",
									"numinlets" : 1,
									"patching_rect" : [ 185.323975, 175.5, 20.0, 20.0 ],
									"numoutlets" : 1,
									"outlettype" : [ "int" ],
									"id" : "obj-193"
								}

							}
, 							{
								"box" : 								{
									"maxclass" : "newobj",
									"text" : "r orientation",
									"fontsize" : 12.0,
									"numinlets" : 0,
									"patching_rect" : [ 125.723938, 237.5, 74.0, 20.0 ],
									"numoutlets" : 1,
									"color" : [ 0.317647, 0.709804, 0.321569, 1.0 ],
									"outlettype" : [ "" ],
									"id" : "obj-82",
									"fontname" : "Arial"
								}

							}
, 							{
								"box" : 								{
									"maxclass" : "inlet",
									"numinlets" : 0,
									"patching_rect" : [ 89.661987, 40.0, 25.0, 25.0 ],
									"numoutlets" : 1,
									"outlettype" : [ "" ],
									"id" : "obj-45",
									"comment" : ""
								}

							}
, 							{
								"box" : 								{
									"maxclass" : "inlet",
									"numinlets" : 0,
									"patching_rect" : [ 185.323975, 40.0, 25.0, 25.0 ],
									"numoutlets" : 1,
									"outlettype" : [ "" ],
									"id" : "obj-46",
									"comment" : ""
								}

							}
, 							{
								"box" : 								{
									"maxclass" : "outlet",
									"numinlets" : 1,
									"patching_rect" : [ 50.0, 317.5, 25.0, 25.0 ],
									"numoutlets" : 0,
									"id" : "obj-47",
									"comment" : ""
								}

							}
, 							{
								"box" : 								{
									"maxclass" : "outlet",
									"numinlets" : 1,
									"patching_rect" : [ 75.0, 317.5, 25.0, 25.0 ],
									"numoutlets" : 0,
									"id" : "obj-48",
									"comment" : ""
								}

							}
, 							{
								"box" : 								{
									"maxclass" : "outlet",
									"numinlets" : 1,
									"patching_rect" : [ 100.0, 317.5, 25.0, 25.0 ],
									"numoutlets" : 0,
									"id" : "obj-49",
									"comment" : ""
								}

							}
, 							{
								"box" : 								{
									"maxclass" : "outlet",
									"numinlets" : 1,
									"patching_rect" : [ 125.723938, 317.5, 25.0, 25.0 ],
									"numoutlets" : 0,
									"id" : "obj-50",
									"comment" : ""
								}

							}
, 							{
								"box" : 								{
									"maxclass" : "outlet",
									"numinlets" : 1,
									"patching_rect" : [ 185.323975, 317.5, 25.0, 25.0 ],
									"numoutlets" : 0,
									"id" : "obj-51",
									"comment" : ""
								}

							}
 ],
						"lines" : [ 							{
								"patchline" : 								{
									"source" : [ "obj-45", 0 ],
									"destination" : [ "obj-31", 0 ],
									"hidden" : 0,
									"midpoints" : [  ]
								}

							}
, 							{
								"patchline" : 								{
									"source" : [ "obj-46", 0 ],
									"destination" : [ "obj-193", 0 ],
									"hidden" : 0,
									"midpoints" : [  ]
								}

							}
, 							{
								"patchline" : 								{
									"source" : [ "obj-31", 0 ],
									"destination" : [ "obj-47", 0 ],
									"hidden" : 0,
									"midpoints" : [  ]
								}

							}
, 							{
								"patchline" : 								{
									"source" : [ "obj-31", 1 ],
									"destination" : [ "obj-48", 0 ],
									"hidden" : 0,
									"midpoints" : [  ]
								}

							}
, 							{
								"patchline" : 								{
									"source" : [ "obj-31", 2 ],
									"destination" : [ "obj-49", 0 ],
									"hidden" : 0,
									"midpoints" : [  ]
								}

							}
, 							{
								"patchline" : 								{
									"source" : [ "obj-82", 0 ],
									"destination" : [ "obj-50", 0 ],
									"hidden" : 0,
									"midpoints" : [  ]
								}

							}
, 							{
								"patchline" : 								{
									"source" : [ "obj-193", 0 ],
									"destination" : [ "obj-51", 0 ],
									"hidden" : 0,
									"midpoints" : [  ]
								}

							}
 ]
					}
,
					"saved_object_attributes" : 					{
						"globalpatchername" : "",
						"fontface" : 0,
						"fontsize" : 12.0,
						"default_fontface" : 0,
						"default_fontname" : "Helvetica",
						"fontname" : "Helvetica",
						"default_fontsize" : 12.0
					}

				}

			}
, 			{
				"box" : 				{
					"maxclass" : "toggle",
					"numinlets" : 1,
					"patching_rect" : [ 230.0, 39.0, 20.0, 20.0 ],
					"numoutlets" : 1,
					"outlettype" : [ "int" ],
					"id" : "obj-36"
				}

			}
, 			{
				"box" : 				{
					"maxclass" : "newobj",
					"text" : "metro 50",
					"fontsize" : 12.0,
					"numinlets" : 2,
					"patching_rect" : [ 228.0, 69.0, 58.0, 18.0 ],
					"numoutlets" : 1,
					"outlettype" : [ "bang" ],
					"id" : "obj-35",
					"fontname" : "Helvetica"
				}

			}
, 			{
				"box" : 				{
					"maxclass" : "newobj",
					"text" : "r objon_1",
					"fontsize" : 12.0,
					"numinlets" : 0,
					"patching_rect" : [ 124.723938, 348.0, 61.0, 20.0 ],
					"numoutlets" : 1,
					"color" : [ 0.317647, 0.709804, 0.321569, 1.0 ],
					"outlettype" : [ "" ],
					"id" : "obj-34",
					"fontname" : "Arial"
				}

			}
, 			{
				"box" : 				{
					"maxclass" : "newobj",
					"text" : "r objsnd_1",
					"fontsize" : 12.0,
					"numinlets" : 0,
					"patching_rect" : [ 50.723938, 348.0, 67.0, 20.0 ],
					"numoutlets" : 1,
					"color" : [ 0.317647, 0.709804, 0.321569, 1.0 ],
					"outlettype" : [ "" ],
					"id" : "obj-30",
					"fontname" : "Arial"
				}

			}
, 			{
				"box" : 				{
					"maxclass" : "comment",
					"text" : "send data to modules",
					"linecount" : 2,
					"frgb" : [ 0.537255, 0.537255, 0.537255, 1.0 ],
					"fontsize" : 24.0,
					"numinlets" : 1,
					"bgcolor" : [ 0.92549, 1.0, 0.870588, 1.0 ],
					"patching_rect" : [ 415.323975, 72.0, 162.0, 54.0 ],
					"numoutlets" : 0,
					"textcolor" : [ 0.537255, 0.537255, 0.537255, 1.0 ],
					"id" : "obj-29",
					"fontname" : "Helvetica Bold"
				}

			}
, 			{
				"box" : 				{
					"maxclass" : "message",
					"text" : ";\r$1 $2 $3 $4",
					"linecount" : 2,
					"fontsize" : 11.595187,
					"numinlets" : 2,
					"patching_rect" : [ 342.0, 231.0, 72.0, 31.0 ],
					"numoutlets" : 1,
					"outlettype" : [ "" ],
					"id" : "obj-27",
					"fontname" : "Arial"
				}

			}
, 			{
				"box" : 				{
					"maxclass" : "newobj",
					"text" : "sprintf objsnd_%d",
					"fontsize" : 12.0,
					"numinlets" : 1,
					"patching_rect" : [ 240.0, 176.0, 106.0, 18.0 ],
					"numoutlets" : 1,
					"outlettype" : [ "" ],
					"id" : "obj-21",
					"fontname" : "Helvetica"
				}

			}
, 			{
				"box" : 				{
					"maxclass" : "newobj",
					"text" : "pack s f f f",
					"fontsize" : 12.0,
					"numinlets" : 4,
					"patching_rect" : [ 342.0, 205.0, 65.0, 18.0 ],
					"numoutlets" : 1,
					"outlettype" : [ "" ],
					"id" : "obj-15",
					"fontname" : "Helvetica"
				}

			}
, 			{
				"box" : 				{
					"maxclass" : "newobj",
					"text" : "coll objex",
					"fontsize" : 12.0,
					"numinlets" : 1,
					"patching_rect" : [ 357.0, 176.0, 61.0, 18.0 ],
					"numoutlets" : 4,
					"outlettype" : [ "", "", "", "" ],
					"id" : "obj-13",
					"fontname" : "Helvetica",
					"saved_object_attributes" : 					{
						"embed" : 0
					}

				}

			}
, 			{
				"box" : 				{
					"maxclass" : "newobj",
					"text" : "t b i",
					"fontsize" : 12.0,
					"numinlets" : 1,
					"patching_rect" : [ 333.0, 115.0, 32.5, 18.0 ],
					"numoutlets" : 2,
					"outlettype" : [ "bang", "int" ],
					"id" : "obj-11",
					"fontname" : "Helvetica"
				}

			}
, 			{
				"box" : 				{
					"maxclass" : "newobj",
					"text" : "uzi",
					"fontsize" : 12.0,
					"numinlets" : 2,
					"patching_rect" : [ 333.0, 135.0, 46.0, 18.0 ],
					"numoutlets" : 3,
					"outlettype" : [ "bang", "bang", "int" ],
					"id" : "obj-10",
					"fontname" : "Helvetica"
				}

			}
, 			{
				"box" : 				{
					"maxclass" : "message",
					"text" : "length",
					"fontsize" : 12.0,
					"numinlets" : 2,
					"patching_rect" : [ 333.0, 30.0, 43.0, 16.0 ],
					"numoutlets" : 1,
					"outlettype" : [ "" ],
					"id" : "obj-9",
					"fontname" : "Helvetica"
				}

			}
, 			{
				"box" : 				{
					"maxclass" : "newobj",
					"text" : "coll objex",
					"fontsize" : 12.0,
					"numinlets" : 1,
					"patching_rect" : [ 333.0, 59.0, 61.0, 18.0 ],
					"numoutlets" : 4,
					"outlettype" : [ "", "", "", "" ],
					"id" : "obj-5",
					"fontname" : "Helvetica",
					"saved_object_attributes" : 					{
						"embed" : 0
					}

				}

			}
, 			{
				"box" : 				{
					"maxclass" : "newobj",
					"text" : "rec_dac",
					"fontsize" : 14.0,
					"numinlets" : 2,
					"patching_rect" : [ 51.323975, 434.0, 61.0, 23.0 ],
					"numoutlets" : 0,
					"color" : [ 1.0, 0.337255, 0.619608, 1.0 ],
					"id" : "obj-14",
					"fontname" : "Arial"
				}

			}
, 			{
				"box" : 				{
					"maxclass" : "newobj",
					"text" : "phexp.paraEq",
					"fontsize" : 16.0,
					"numinlets" : 2,
					"bgcolor" : [ 0.678431, 0.819608, 0.819608, 1.0 ],
					"patching_rect" : [ 136.323975, 372.0, 111.0, 25.0 ],
					"numoutlets" : 1,
					"color" : [ 0.419608, 0.435294, 0.521569, 1.0 ],
					"outlettype" : [ "signal" ],
					"id" : "obj-215",
					"fontname" : "Arial"
				}

			}
, 			{
				"box" : 				{
					"maxclass" : "number",
					"fontsize" : 18.0,
					"numinlets" : 1,
					"patching_rect" : [ 333.0, 85.0, 59.0, 27.0 ],
					"numoutlets" : 2,
					"outlettype" : [ "int", "bang" ],
					"id" : "obj-180",
					"fontname" : "Arial"
				}

			}
, 			{
				"box" : 				{
					"maxclass" : "comment",
					"text" : "object sounds",
					"linecount" : 2,
					"frgb" : [ 0.537255, 0.537255, 0.537255, 1.0 ],
					"fontsize" : 24.0,
					"numinlets" : 1,
					"bgcolor" : [ 0.92549, 1.0, 0.870588, 1.0 ],
					"patching_rect" : [ 29.323975, 23.0, 101.0, 54.0 ],
					"numoutlets" : 0,
					"textcolor" : [ 0.537255, 0.537255, 0.537255, 1.0 ],
					"id" : "obj-24",
					"fontname" : "Helvetica Bold"
				}

			}
, 			{
				"box" : 				{
					"maxclass" : "newobj",
					"text" : "ph.headphone_spatializer",
					"fontsize" : 14.0,
					"numinlets" : 6,
					"bgcolor" : [ 0.678431, 0.819608, 0.819608, 1.0 ],
					"patching_rect" : [ 52.0, 405.843018, 171.0, 20.0 ],
					"numoutlets" : 2,
					"color" : [ 0.419608, 0.435294, 0.521569, 1.0 ],
					"outlettype" : [ "signal", "signal" ],
					"id" : "obj-84",
					"fontname" : "Helvetica"
				}

			}
 ],
		"lines" : [ 			{
				"patchline" : 				{
					"source" : [ "obj-28", 0 ],
					"destination" : [ "obj-36", 0 ],
					"hidden" : 0,
					"midpoints" : [  ]
				}

			}
, 			{
				"patchline" : 				{
					"source" : [ "obj-1", 0 ],
					"destination" : [ "obj-28", 0 ],
					"hidden" : 0,
					"midpoints" : [  ]
				}

			}
, 			{
				"patchline" : 				{
					"source" : [ "obj-47", 0 ],
					"destination" : [ "obj-45", 0 ],
					"hidden" : 0,
					"midpoints" : [  ]
				}

			}
, 			{
				"patchline" : 				{
					"source" : [ "obj-46", 0 ],
					"destination" : [ "obj-45", 1 ],
					"hidden" : 0,
					"midpoints" : [  ]
				}

			}
, 			{
				"patchline" : 				{
					"source" : [ "obj-45", 4 ],
					"destination" : [ "obj-49", 0 ],
					"hidden" : 0,
					"midpoints" : [  ]
				}

			}
, 			{
				"patchline" : 				{
					"source" : [ "obj-43", 0 ],
					"destination" : [ "obj-44", 0 ],
					"hidden" : 0,
					"midpoints" : [  ]
				}

			}
, 			{
				"patchline" : 				{
					"source" : [ "obj-4", 4 ],
					"destination" : [ "obj-12", 0 ],
					"hidden" : 0,
					"midpoints" : [  ]
				}

			}
, 			{
				"patchline" : 				{
					"source" : [ "obj-4", 2 ],
					"destination" : [ "obj-12", 1 ],
					"hidden" : 0,
					"midpoints" : [  ]
				}

			}
, 			{
				"patchline" : 				{
					"source" : [ "obj-52", 2 ],
					"destination" : [ "obj-215", 1 ],
					"hidden" : 0,
					"midpoints" : [  ]
				}

			}
, 			{
				"patchline" : 				{
					"source" : [ "obj-52", 4 ],
					"destination" : [ "obj-215", 0 ],
					"hidden" : 0,
					"midpoints" : [  ]
				}

			}
, 			{
				"patchline" : 				{
					"source" : [ "obj-19", 4 ],
					"destination" : [ "obj-25", 0 ],
					"hidden" : 0,
					"midpoints" : [  ]
				}

			}
, 			{
				"patchline" : 				{
					"source" : [ "obj-19", 2 ],
					"destination" : [ "obj-25", 1 ],
					"hidden" : 0,
					"midpoints" : [  ]
				}

			}
, 			{
				"patchline" : 				{
					"source" : [ "obj-20", 0 ],
					"destination" : [ "obj-19", 1 ],
					"hidden" : 0,
					"midpoints" : [  ]
				}

			}
, 			{
				"patchline" : 				{
					"source" : [ "obj-22", 0 ],
					"destination" : [ "obj-19", 0 ],
					"hidden" : 0,
					"midpoints" : [  ]
				}

			}
, 			{
				"patchline" : 				{
					"source" : [ "obj-6", 0 ],
					"destination" : [ "obj-4", 1 ],
					"hidden" : 0,
					"midpoints" : [  ]
				}

			}
, 			{
				"patchline" : 				{
					"source" : [ "obj-7", 0 ],
					"destination" : [ "obj-4", 0 ],
					"hidden" : 0,
					"midpoints" : [  ]
				}

			}
, 			{
				"patchline" : 				{
					"source" : [ "obj-17", 0 ],
					"destination" : [ "obj-18", 0 ],
					"hidden" : 0,
					"midpoints" : [  ]
				}

			}
, 			{
				"patchline" : 				{
					"source" : [ "obj-2", 0 ],
					"destination" : [ "obj-3", 0 ],
					"hidden" : 0,
					"midpoints" : [  ]
				}

			}
, 			{
				"patchline" : 				{
					"source" : [ "obj-68", 0 ],
					"destination" : [ "obj-64", 5 ],
					"hidden" : 0,
					"midpoints" : [  ]
				}

			}
, 			{
				"patchline" : 				{
					"source" : [ "obj-67", 0 ],
					"destination" : [ "obj-68", 0 ],
					"hidden" : 0,
					"midpoints" : [  ]
				}

			}
, 			{
				"patchline" : 				{
					"source" : [ "obj-66", 0 ],
					"destination" : [ "obj-65", 0 ],
					"hidden" : 0,
					"midpoints" : [  ]
				}

			}
, 			{
				"patchline" : 				{
					"source" : [ "obj-59", 0 ],
					"destination" : [ "obj-64", 0 ],
					"hidden" : 0,
					"midpoints" : [  ]
				}

			}
, 			{
				"patchline" : 				{
					"source" : [ "obj-59", 1 ],
					"destination" : [ "obj-64", 1 ],
					"hidden" : 0,
					"midpoints" : [  ]
				}

			}
, 			{
				"patchline" : 				{
					"source" : [ "obj-59", 2 ],
					"destination" : [ "obj-64", 4 ],
					"hidden" : 0,
					"midpoints" : [  ]
				}

			}
, 			{
				"patchline" : 				{
					"source" : [ "obj-59", 3 ],
					"destination" : [ "obj-64", 2 ],
					"hidden" : 0,
					"midpoints" : [  ]
				}

			}
, 			{
				"patchline" : 				{
					"source" : [ "obj-64", 1 ],
					"destination" : [ "obj-62", 1 ],
					"hidden" : 0,
					"midpoints" : [  ]
				}

			}
, 			{
				"patchline" : 				{
					"source" : [ "obj-64", 0 ],
					"destination" : [ "obj-62", 0 ],
					"hidden" : 0,
					"midpoints" : [  ]
				}

			}
, 			{
				"patchline" : 				{
					"source" : [ "obj-63", 0 ],
					"destination" : [ "obj-64", 3 ],
					"hidden" : 0,
					"midpoints" : [  ]
				}

			}
, 			{
				"patchline" : 				{
					"source" : [ "obj-60", 0 ],
					"destination" : [ "obj-59", 1 ],
					"hidden" : 0,
					"midpoints" : [  ]
				}

			}
, 			{
				"patchline" : 				{
					"source" : [ "obj-61", 0 ],
					"destination" : [ "obj-59", 0 ],
					"hidden" : 0,
					"midpoints" : [  ]
				}

			}
, 			{
				"patchline" : 				{
					"source" : [ "obj-59", 4 ],
					"destination" : [ "obj-63", 0 ],
					"hidden" : 0,
					"midpoints" : [  ]
				}

			}
, 			{
				"patchline" : 				{
					"source" : [ "obj-10", 2 ],
					"destination" : [ "obj-21", 0 ],
					"hidden" : 0,
					"midpoints" : [  ]
				}

			}
, 			{
				"patchline" : 				{
					"source" : [ "obj-21", 0 ],
					"destination" : [ "obj-15", 0 ],
					"hidden" : 0,
					"midpoints" : [  ]
				}

			}
, 			{
				"patchline" : 				{
					"source" : [ "obj-15", 0 ],
					"destination" : [ "obj-27", 0 ],
					"hidden" : 0,
					"midpoints" : [  ]
				}

			}
, 			{
				"patchline" : 				{
					"source" : [ "obj-13", 0 ],
					"destination" : [ "obj-15", 1 ],
					"hidden" : 0,
					"midpoints" : [  ]
				}

			}
, 			{
				"patchline" : 				{
					"source" : [ "obj-10", 2 ],
					"destination" : [ "obj-13", 0 ],
					"hidden" : 0,
					"midpoints" : [  ]
				}

			}
, 			{
				"patchline" : 				{
					"source" : [ "obj-11", 0 ],
					"destination" : [ "obj-10", 0 ],
					"hidden" : 0,
					"midpoints" : [  ]
				}

			}
, 			{
				"patchline" : 				{
					"source" : [ "obj-11", 1 ],
					"destination" : [ "obj-10", 1 ],
					"hidden" : 0,
					"midpoints" : [  ]
				}

			}
, 			{
				"patchline" : 				{
					"source" : [ "obj-180", 0 ],
					"destination" : [ "obj-11", 0 ],
					"hidden" : 0,
					"midpoints" : [  ]
				}

			}
, 			{
				"patchline" : 				{
					"source" : [ "obj-5", 0 ],
					"destination" : [ "obj-180", 0 ],
					"hidden" : 0,
					"midpoints" : [  ]
				}

			}
, 			{
				"patchline" : 				{
					"source" : [ "obj-9", 0 ],
					"destination" : [ "obj-5", 0 ],
					"hidden" : 0,
					"midpoints" : [  ]
				}

			}
, 			{
				"patchline" : 				{
					"source" : [ "obj-34", 0 ],
					"destination" : [ "obj-52", 1 ],
					"hidden" : 0,
					"midpoints" : [  ]
				}

			}
, 			{
				"patchline" : 				{
					"source" : [ "obj-30", 0 ],
					"destination" : [ "obj-52", 0 ],
					"hidden" : 0,
					"midpoints" : [  ]
				}

			}
, 			{
				"patchline" : 				{
					"source" : [ "obj-35", 0 ],
					"destination" : [ "obj-9", 0 ],
					"hidden" : 0,
					"midpoints" : [  ]
				}

			}
, 			{
				"patchline" : 				{
					"source" : [ "obj-36", 0 ],
					"destination" : [ "obj-35", 0 ],
					"hidden" : 0,
					"midpoints" : [  ]
				}

			}
, 			{
				"patchline" : 				{
					"source" : [ "obj-49", 0 ],
					"destination" : [ "obj-50", 3 ],
					"hidden" : 0,
					"midpoints" : [  ]
				}

			}
, 			{
				"patchline" : 				{
					"source" : [ "obj-50", 0 ],
					"destination" : [ "obj-48", 0 ],
					"hidden" : 0,
					"midpoints" : [  ]
				}

			}
, 			{
				"patchline" : 				{
					"source" : [ "obj-50", 1 ],
					"destination" : [ "obj-48", 1 ],
					"hidden" : 0,
					"midpoints" : [  ]
				}

			}
, 			{
				"patchline" : 				{
					"source" : [ "obj-45", 3 ],
					"destination" : [ "obj-50", 2 ],
					"hidden" : 0,
					"midpoints" : [  ]
				}

			}
, 			{
				"patchline" : 				{
					"source" : [ "obj-45", 2 ],
					"destination" : [ "obj-50", 4 ],
					"hidden" : 0,
					"midpoints" : [  ]
				}

			}
, 			{
				"patchline" : 				{
					"source" : [ "obj-45", 1 ],
					"destination" : [ "obj-50", 1 ],
					"hidden" : 0,
					"midpoints" : [  ]
				}

			}
, 			{
				"patchline" : 				{
					"source" : [ "obj-45", 0 ],
					"destination" : [ "obj-50", 0 ],
					"hidden" : 0,
					"midpoints" : [  ]
				}

			}
, 			{
				"patchline" : 				{
					"source" : [ "obj-44", 0 ],
					"destination" : [ "obj-50", 5 ],
					"hidden" : 0,
					"midpoints" : [  ]
				}

			}
, 			{
				"patchline" : 				{
					"source" : [ "obj-25", 0 ],
					"destination" : [ "obj-26", 3 ],
					"hidden" : 0,
					"midpoints" : [  ]
				}

			}
, 			{
				"patchline" : 				{
					"source" : [ "obj-26", 1 ],
					"destination" : [ "obj-23", 1 ],
					"hidden" : 0,
					"midpoints" : [  ]
				}

			}
, 			{
				"patchline" : 				{
					"source" : [ "obj-26", 0 ],
					"destination" : [ "obj-23", 0 ],
					"hidden" : 0,
					"midpoints" : [  ]
				}

			}
, 			{
				"patchline" : 				{
					"source" : [ "obj-19", 0 ],
					"destination" : [ "obj-26", 0 ],
					"hidden" : 0,
					"midpoints" : [  ]
				}

			}
, 			{
				"patchline" : 				{
					"source" : [ "obj-19", 1 ],
					"destination" : [ "obj-26", 1 ],
					"hidden" : 0,
					"midpoints" : [  ]
				}

			}
, 			{
				"patchline" : 				{
					"source" : [ "obj-19", 2 ],
					"destination" : [ "obj-26", 4 ],
					"hidden" : 0,
					"midpoints" : [  ]
				}

			}
, 			{
				"patchline" : 				{
					"source" : [ "obj-19", 3 ],
					"destination" : [ "obj-26", 2 ],
					"hidden" : 0,
					"midpoints" : [  ]
				}

			}
, 			{
				"patchline" : 				{
					"source" : [ "obj-18", 0 ],
					"destination" : [ "obj-26", 5 ],
					"hidden" : 0,
					"midpoints" : [  ]
				}

			}
, 			{
				"patchline" : 				{
					"source" : [ "obj-4", 0 ],
					"destination" : [ "obj-16", 0 ],
					"hidden" : 0,
					"midpoints" : [  ]
				}

			}
, 			{
				"patchline" : 				{
					"source" : [ "obj-4", 1 ],
					"destination" : [ "obj-16", 1 ],
					"hidden" : 0,
					"midpoints" : [  ]
				}

			}
, 			{
				"patchline" : 				{
					"source" : [ "obj-4", 2 ],
					"destination" : [ "obj-16", 4 ],
					"hidden" : 0,
					"midpoints" : [  ]
				}

			}
, 			{
				"patchline" : 				{
					"source" : [ "obj-4", 3 ],
					"destination" : [ "obj-16", 2 ],
					"hidden" : 0,
					"midpoints" : [  ]
				}

			}
, 			{
				"patchline" : 				{
					"source" : [ "obj-3", 0 ],
					"destination" : [ "obj-16", 5 ],
					"hidden" : 0,
					"midpoints" : [  ]
				}

			}
, 			{
				"patchline" : 				{
					"source" : [ "obj-16", 0 ],
					"destination" : [ "obj-8", 0 ],
					"hidden" : 0,
					"midpoints" : [  ]
				}

			}
, 			{
				"patchline" : 				{
					"source" : [ "obj-16", 1 ],
					"destination" : [ "obj-8", 1 ],
					"hidden" : 0,
					"midpoints" : [  ]
				}

			}
, 			{
				"patchline" : 				{
					"source" : [ "obj-12", 0 ],
					"destination" : [ "obj-16", 3 ],
					"hidden" : 0,
					"midpoints" : [  ]
				}

			}
, 			{
				"patchline" : 				{
					"source" : [ "obj-215", 0 ],
					"destination" : [ "obj-84", 3 ],
					"hidden" : 0,
					"midpoints" : [  ]
				}

			}
, 			{
				"patchline" : 				{
					"source" : [ "obj-65", 0 ],
					"destination" : [ "obj-84", 5 ],
					"hidden" : 0,
					"midpoints" : [  ]
				}

			}
, 			{
				"patchline" : 				{
					"source" : [ "obj-84", 1 ],
					"destination" : [ "obj-14", 1 ],
					"hidden" : 0,
					"midpoints" : [  ]
				}

			}
, 			{
				"patchline" : 				{
					"source" : [ "obj-84", 0 ],
					"destination" : [ "obj-14", 0 ],
					"hidden" : 0,
					"midpoints" : [  ]
				}

			}
, 			{
				"patchline" : 				{
					"source" : [ "obj-52", 3 ],
					"destination" : [ "obj-84", 2 ],
					"hidden" : 0,
					"midpoints" : [  ]
				}

			}
, 			{
				"patchline" : 				{
					"source" : [ "obj-52", 2 ],
					"destination" : [ "obj-84", 4 ],
					"hidden" : 0,
					"midpoints" : [  ]
				}

			}
, 			{
				"patchline" : 				{
					"source" : [ "obj-52", 1 ],
					"destination" : [ "obj-84", 1 ],
					"hidden" : 0,
					"midpoints" : [  ]
				}

			}
, 			{
				"patchline" : 				{
					"source" : [ "obj-52", 0 ],
					"destination" : [ "obj-84", 0 ],
					"hidden" : 0,
					"midpoints" : [  ]
				}

			}
 ]
	}

}
