{
	"patcher" : 	{
		"fileversion" : 1,
		"rect" : [ 846.0, 210.0, 640.0, 480.0 ],
		"bglocked" : 0,
		"defrect" : [ 846.0, 210.0, 640.0, 480.0 ],
		"openrect" : [ 0.0, 0.0, 0.0, 0.0 ],
		"openinpresentation" : 0,
		"default_fontsize" : 12.0,
		"default_fontface" : 0,
		"default_fontname" : "Helvetica",
		"gridonopen" : 0,
		"gridsize" : [ 15.0, 15.0 ],
		"gridsnaponopen" : 0,
		"toolbarvisible" : 1,
		"boxanimatetime" : 200,
		"imprint" : 0,
		"enablehscroll" : 1,
		"enablevscroll" : 1,
		"devicewidth" : 0.0,
		"boxes" : [ 			{
				"box" : 				{
					"maxclass" : "newobj",
					"text" : "phexp.exit1",
					"outlettype" : [ "signal" ],
					"id" : "obj-16",
					"fontname" : "Arial",
					"patching_rect" : [ 477.323975, 291.0, 92.0, 25.0 ],
					"bgcolor" : [ 0.678431, 0.819608, 0.819608, 1.0 ],
					"fontsize" : 16.0,
					"color" : [ 0.419608, 0.435294, 0.521569, 1.0 ],
					"numinlets" : 1,
					"numoutlets" : 1
				}

			}
, 			{
				"box" : 				{
					"maxclass" : "newobj",
					"text" : "in 1",
					"outlettype" : [ "" ],
					"id" : "obj-12",
					"fontname" : "Helvetica",
					"patching_rect" : [ 285.0, 115.0, 30.0, 18.0 ],
					"fontsize" : 12.0,
					"numinlets" : 1,
					"numoutlets" : 1,
					"saved_object_attributes" : 					{

					}

				}

			}
, 			{
				"box" : 				{
					"maxclass" : "newobj",
					"text" : "in 2",
					"outlettype" : [ "" ],
					"id" : "obj-11",
					"fontname" : "Helvetica",
					"patching_rect" : [ 374.0, 70.0, 30.0, 18.0 ],
					"fontsize" : 12.0,
					"numinlets" : 1,
					"numoutlets" : 1,
					"saved_object_attributes" : 					{

					}

				}

			}
, 			{
				"box" : 				{
					"maxclass" : "newobj",
					"text" : "out 1",
					"id" : "obj-10",
					"fontname" : "Helvetica",
					"patching_rect" : [ 271.0, 498.0, 37.0, 18.0 ],
					"fontsize" : 12.0,
					"numinlets" : 1,
					"numoutlets" : 0,
					"saved_object_attributes" : 					{

					}

				}

			}
, 			{
				"box" : 				{
					"maxclass" : "newobj",
					"text" : "sprintf vis_item%d",
					"outlettype" : [ "" ],
					"id" : "obj-9",
					"fontname" : "Helvetica",
					"patching_rect" : [ 467.0, 181.0, 108.0, 18.0 ],
					"fontsize" : 12.0,
					"numinlets" : 1,
					"numoutlets" : 1
				}

			}
, 			{
				"box" : 				{
					"maxclass" : "newobj",
					"text" : "sprintf analysis.obj_%d",
					"outlettype" : [ "" ],
					"id" : "obj-8",
					"fontname" : "Helvetica",
					"patching_rect" : [ 429.0, 141.0, 133.0, 18.0 ],
					"fontsize" : 12.0,
					"numinlets" : 1,
					"numoutlets" : 1
				}

			}
, 			{
				"box" : 				{
					"maxclass" : "newobj",
					"text" : "r sndpng",
					"outlettype" : [ "" ],
					"id" : "obj-7",
					"fontname" : "Helvetica",
					"patching_rect" : [ 194.0, 66.0, 57.0, 18.0 ],
					"fontsize" : 12.0,
					"numinlets" : 0,
					"numoutlets" : 1
				}

			}
, 			{
				"box" : 				{
					"maxclass" : "message",
					"text" : "3",
					"outlettype" : [ "" ],
					"id" : "obj-5",
					"fontname" : "Helvetica",
					"patching_rect" : [ 194.0, 89.0, 50.0, 16.0 ],
					"fontsize" : 12.0,
					"numinlets" : 2,
					"numoutlets" : 1
				}

			}
, 			{
				"box" : 				{
					"maxclass" : "newobj",
					"text" : "coll objex",
					"outlettype" : [ "", "", "", "" ],
					"id" : "obj-48",
					"fontname" : "Helvetica",
					"patching_rect" : [ 194.0, 112.0, 61.0, 18.0 ],
					"fontsize" : 12.0,
					"numinlets" : 1,
					"numoutlets" : 4,
					"saved_object_attributes" : 					{
						"embed" : 0
					}

				}

			}
, 			{
				"box" : 				{
					"maxclass" : "number",
					"outlettype" : [ "int", "bang" ],
					"id" : "obj-2",
					"fontname" : "Helvetica",
					"patching_rect" : [ 374.0, 96.0, 50.0, 18.0 ],
					"fontsize" : 12.0,
					"numinlets" : 1,
					"numoutlets" : 2
				}

			}
, 			{
				"box" : 				{
					"maxclass" : "newobj",
					"text" : "r pixelsloaded",
					"outlettype" : [ "" ],
					"id" : "obj-50",
					"fontname" : "Arial",
					"patching_rect" : [ 420.723938, 236.0, 85.0, 20.0 ],
					"fontsize" : 12.0,
					"color" : [ 0.317647, 0.709804, 0.321569, 1.0 ],
					"numinlets" : 0,
					"numoutlets" : 1
				}

			}
, 			{
				"box" : 				{
					"maxclass" : "message",
					"text" : "1",
					"outlettype" : [ "" ],
					"id" : "obj-15",
					"fontname" : "Helvetica",
					"patching_rect" : [ 421.0, 267.0, 32.5, 16.0 ],
					"fontsize" : 12.0,
					"numinlets" : 2,
					"numoutlets" : 1
				}

			}
, 			{
				"box" : 				{
					"maxclass" : "newobj",
					"text" : "loadbang",
					"outlettype" : [ "bang" ],
					"id" : "obj-102",
					"fontname" : "Arial",
					"patching_rect" : [ 360.723938, 171.0, 60.0, 20.0 ],
					"fontsize" : 12.0,
					"color" : [ 0.317647, 0.709804, 0.321569, 1.0 ],
					"numinlets" : 1,
					"numoutlets" : 1
				}

			}
, 			{
				"box" : 				{
					"maxclass" : "newobj",
					"text" : "ph.sendspectrum",
					"id" : "obj-86",
					"fontname" : "Helvetica",
					"patching_rect" : [ 235.0, 405.0, 103.0, 18.0 ],
					"fontsize" : 12.0,
					"numinlets" : 4,
					"numoutlets" : 0
				}

			}
, 			{
				"box" : 				{
					"maxclass" : "toggle",
					"outlettype" : [ "int" ],
					"id" : "obj-81",
					"patching_rect" : [ 206.0, 385.0, 20.0, 20.0 ],
					"numinlets" : 1,
					"numoutlets" : 1
				}

			}
, 			{
				"box" : 				{
					"maxclass" : "message",
					"text" : "vis_item3",
					"outlettype" : [ "" ],
					"id" : "obj-69",
					"fontname" : "Helvetica",
					"patching_rect" : [ 288.0, 367.0, 77.0, 16.0 ],
					"fontsize" : 12.0,
					"numinlets" : 2,
					"numoutlets" : 1
				}

			}
, 			{
				"box" : 				{
					"maxclass" : "toggle",
					"outlettype" : [ "int" ],
					"id" : "obj-67",
					"patching_rect" : [ 285.0, 139.0, 23.0, 23.0 ],
					"numinlets" : 1,
					"numoutlets" : 1
				}

			}
, 			{
				"box" : 				{
					"maxclass" : "message",
					"text" : "analysis.obj_3",
					"outlettype" : [ "" ],
					"id" : "obj-40",
					"fontname" : "Helvetica",
					"patching_rect" : [ 263.0, 345.0, 87.0, 16.0 ],
					"fontsize" : 12.0,
					"numinlets" : 2,
					"numoutlets" : 1
				}

			}
, 			{
				"box" : 				{
					"maxclass" : "flonum",
					"outlettype" : [ "float", "bang" ],
					"id" : "obj-37",
					"fontname" : "Helvetica Bold",
					"patching_rect" : [ 272.0, 455.999939, 93.0, 30.0 ],
					"fontsize" : 24.0,
					"numinlets" : 1,
					"numdecimalplaces" : 2,
					"numoutlets" : 2
				}

			}
, 			{
				"box" : 				{
					"maxclass" : "message",
					"text" : "200",
					"outlettype" : [ "" ],
					"id" : "obj-4",
					"fontname" : "Helvetica",
					"patching_rect" : [ 351.0, 231.0, 32.5, 16.0 ],
					"fontsize" : 12.0,
					"numinlets" : 2,
					"numoutlets" : 1
				}

			}
, 			{
				"box" : 				{
					"maxclass" : "newobj",
					"text" : "p cosmspat",
					"id" : "obj-6",
					"fontname" : "Helvetica",
					"patching_rect" : [ 222.0, 319.0, 72.0, 18.0 ],
					"fontsize" : 12.0,
					"numinlets" : 3,
					"numoutlets" : 0,
					"patcher" : 					{
						"fileversion" : 1,
						"rect" : [ 25.0, 69.0, 640.0, 480.0 ],
						"bglocked" : 0,
						"defrect" : [ 25.0, 69.0, 640.0, 480.0 ],
						"openrect" : [ 0.0, 0.0, 0.0, 0.0 ],
						"openinpresentation" : 0,
						"default_fontsize" : 12.0,
						"default_fontface" : 0,
						"default_fontname" : "Helvetica",
						"gridonopen" : 0,
						"gridsize" : [ 15.0, 15.0 ],
						"gridsnaponopen" : 0,
						"toolbarvisible" : 1,
						"boxanimatetime" : 200,
						"imprint" : 0,
						"enablehscroll" : 1,
						"enablevscroll" : 1,
						"devicewidth" : 0.0,
						"boxes" : [ 							{
								"box" : 								{
									"maxclass" : "message",
									"text" : "-1.892481 0.342969",
									"outlettype" : [ "" ],
									"id" : "obj-5",
									"fontname" : "Helvetica",
									"patching_rect" : [ 38.0, 250.0, 146.0, 16.0 ],
									"fontsize" : 12.0,
									"numinlets" : 2,
									"numoutlets" : 1
								}

							}
, 							{
								"box" : 								{
									"maxclass" : "button",
									"outlettype" : [ "bang" ],
									"id" : "obj-1",
									"patching_rect" : [ -10.0, 0.0, 20.0, 20.0 ],
									"numinlets" : 1,
									"numoutlets" : 1
								}

							}
, 							{
								"box" : 								{
									"maxclass" : "newobj",
									"text" : "/ -100.",
									"outlettype" : [ "float" ],
									"id" : "obj-87",
									"fontname" : "Helvetica",
									"patching_rect" : [ 134.0, 100.0, 45.0, 18.0 ],
									"fontsize" : 12.0,
									"numinlets" : 2,
									"numoutlets" : 1
								}

							}
, 							{
								"box" : 								{
									"maxclass" : "newobj",
									"text" : "/ 100.",
									"outlettype" : [ "float" ],
									"id" : "obj-86",
									"fontname" : "Helvetica",
									"patching_rect" : [ 50.0, 101.0, 41.0, 18.0 ],
									"fontsize" : 12.0,
									"numinlets" : 2,
									"numoutlets" : 1
								}

							}
, 							{
								"box" : 								{
									"maxclass" : "newobj",
									"text" : "pack f f",
									"outlettype" : [ "" ],
									"id" : "obj-82",
									"fontname" : "Helvetica",
									"patching_rect" : [ 81.0, 129.0, 49.0, 18.0 ],
									"fontsize" : 12.0,
									"numinlets" : 2,
									"numoutlets" : 1
								}

							}
, 							{
								"box" : 								{
									"maxclass" : "message",
									"text" : "position $1 0 $2",
									"outlettype" : [ "" ],
									"id" : "obj-81",
									"fontname" : "Helvetica",
									"patching_rect" : [ 86.0, 160.0, 95.0, 16.0 ],
									"fontsize" : 12.0,
									"numinlets" : 2,
									"numoutlets" : 1
								}

							}
, 							{
								"box" : 								{
									"maxclass" : "newobj",
									"text" : "p ambisonic_encoding",
									"id" : "obj-77",
									"fontname" : "Arial",
									"patching_rect" : [ 159.0, 244.0, 130.0, 20.0 ],
									"fontsize" : 12.0,
									"color" : [ 0.945098, 0.913725, 0.407843, 1.0 ],
									"numinlets" : 2,
									"numoutlets" : 0,
									"patcher" : 									{
										"fileversion" : 1,
										"rect" : [ 509.0, 173.0, 638.0, 333.0 ],
										"bglocked" : 0,
										"defrect" : [ 509.0, 173.0, 638.0, 333.0 ],
										"openrect" : [ 0.0, 0.0, 0.0, 0.0 ],
										"openinpresentation" : 0,
										"default_fontsize" : 12.0,
										"default_fontface" : 0,
										"default_fontname" : "Arial",
										"gridonopen" : 0,
										"gridsize" : [ 15.0, 15.0 ],
										"gridsnaponopen" : 0,
										"toolbarvisible" : 1,
										"boxanimatetime" : 200,
										"imprint" : 0,
										"enablehscroll" : 1,
										"enablevscroll" : 1,
										"devicewidth" : 0.0,
										"boxes" : [ 											{
												"box" : 												{
													"maxclass" : "comment",
													"text" : "cosm.ambi.encode~ encodes a monophonic signal into ambisonic domain signals (to be decoded by cosm.ambi.decode~)",
													"linecount" : 2,
													"id" : "obj-12",
													"fontname" : "Arial",
													"patching_rect" : [ 240.0, 15.0, 376.0, 34.0 ],
													"fontsize" : 12.0,
													"numinlets" : 1,
													"numoutlets" : 0
												}

											}
, 											{
												"box" : 												{
													"maxclass" : "comment",
													"text" : "Angle format: \"radians\" (default) or \"degrees\"",
													"id" : "obj-15",
													"fontname" : "Arial",
													"patching_rect" : [ 270.0, 165.0, 297.0, 20.0 ],
													"fontsize" : 12.0,
													"numinlets" : 1,
													"numoutlets" : 0
												}

											}
, 											{
												"box" : 												{
													"maxclass" : "comment",
													"text" : "Order: \"1st\" (default), \"2nd\" or \"3rd\" (or optionally \"1st-order\" etc.)",
													"linecount" : 2,
													"id" : "obj-16",
													"fontname" : "Arial",
													"patching_rect" : [ 270.0, 120.0, 199.0, 34.0 ],
													"fontsize" : 12.0,
													"numinlets" : 1,
													"numoutlets" : 0
												}

											}
, 											{
												"box" : 												{
													"maxclass" : "comment",
													"text" : "Dimensions: \"2D\" (default) or \"3D\"",
													"id" : "obj-17",
													"fontname" : "Arial",
													"patching_rect" : [ 270.0, 90.0, 269.0, 20.0 ],
													"fontsize" : 12.0,
													"numinlets" : 1,
													"numoutlets" : 0
												}

											}
, 											{
												"box" : 												{
													"maxclass" : "comment",
													"text" : "ambi.encoden~ arguments:",
													"id" : "obj-39",
													"fontname" : "Arial",
													"patching_rect" : [ 240.0, 60.0, 269.0, 20.0 ],
													"fontsize" : 12.0,
													"numinlets" : 1,
													"numoutlets" : 0
												}

											}
, 											{
												"box" : 												{
													"maxclass" : "newobj",
													"text" : "cosm.ambi.encode~ 3d 1st",
													"outlettype" : [ "signal", "signal", "signal", "signal" ],
													"id" : "obj-6",
													"fontname" : "Arial",
													"patching_rect" : [ 15.0, 120.0, 199.0, 20.0 ],
													"fontsize" : 12.0,
													"numinlets" : 1,
													"numoutlets" : 4
												}

											}
, 											{
												"box" : 												{
													"maxclass" : "comment",
													"text" : "These signals will be decoded to a specific speaker arrangement in the 'audio ambisonic decoding' subpatcher",
													"linecount" : 2,
													"id" : "obj-11",
													"fontname" : "Arial",
													"patching_rect" : [ 15.0, 270.0, 395.0, 34.0 ],
													"fontsize" : 12.0,
													"numinlets" : 1,
													"numoutlets" : 0
												}

											}
, 											{
												"box" : 												{
													"maxclass" : "comment",
													"text" : "Any number of spatialized objects can write into the ambisonic domain signals (so long as the dimensions and order are correct), since the send~ objects sum their inputs.",
													"linecount" : 3,
													"id" : "obj-10",
													"fontname" : "Arial",
													"patching_rect" : [ 15.0, 210.0, 388.0, 48.0 ],
													"fontsize" : 12.0,
													"numinlets" : 1,
													"numoutlets" : 0
												}

											}
, 											{
												"box" : 												{
													"maxclass" : "newobj",
													"text" : "send~ Z",
													"id" : "obj-7",
													"fontname" : "Arial",
													"patching_rect" : [ 195.0, 180.0, 54.0, 20.0 ],
													"fontsize" : 12.0,
													"numinlets" : 1,
													"numoutlets" : 0
												}

											}
, 											{
												"box" : 												{
													"maxclass" : "newobj",
													"text" : "send~ Y",
													"id" : "obj-5",
													"fontname" : "Arial",
													"patching_rect" : [ 135.0, 180.0, 55.0, 20.0 ],
													"fontsize" : 12.0,
													"numinlets" : 1,
													"numoutlets" : 0
												}

											}
, 											{
												"box" : 												{
													"maxclass" : "newobj",
													"text" : "send~ X",
													"id" : "obj-3",
													"fontname" : "Arial",
													"patching_rect" : [ 75.0, 180.0, 55.0, 20.0 ],
													"fontsize" : 12.0,
													"numinlets" : 1,
													"numoutlets" : 0
												}

											}
, 											{
												"box" : 												{
													"maxclass" : "inlet",
													"outlettype" : [ "" ],
													"id" : "obj-4",
													"patching_rect" : [ 75.0, 30.0, 25.0, 25.0 ],
													"numinlets" : 0,
													"numoutlets" : 1,
													"comment" : ""
												}

											}
, 											{
												"box" : 												{
													"maxclass" : "newobj",
													"text" : "send~ W",
													"id" : "obj-2",
													"fontname" : "Arial",
													"patching_rect" : [ 15.0, 180.0, 58.0, 20.0 ],
													"fontsize" : 12.0,
													"numinlets" : 1,
													"numoutlets" : 0
												}

											}
, 											{
												"box" : 												{
													"maxclass" : "inlet",
													"outlettype" : [ "signal" ],
													"id" : "obj-1",
													"patching_rect" : [ 15.0, 30.0, 25.0, 25.0 ],
													"numinlets" : 0,
													"numoutlets" : 1,
													"comment" : ""
												}

											}
 ],
										"lines" : [ 											{
												"patchline" : 												{
													"source" : [ "obj-1", 0 ],
													"destination" : [ "obj-6", 0 ],
													"hidden" : 0,
													"midpoints" : [  ]
												}

											}
, 											{
												"patchline" : 												{
													"source" : [ "obj-4", 0 ],
													"destination" : [ "obj-6", 0 ],
													"hidden" : 0,
													"midpoints" : [  ]
												}

											}
, 											{
												"patchline" : 												{
													"source" : [ "obj-6", 0 ],
													"destination" : [ "obj-2", 0 ],
													"hidden" : 0,
													"midpoints" : [  ]
												}

											}
, 											{
												"patchline" : 												{
													"source" : [ "obj-6", 1 ],
													"destination" : [ "obj-3", 0 ],
													"hidden" : 0,
													"midpoints" : [  ]
												}

											}
, 											{
												"patchline" : 												{
													"source" : [ "obj-6", 2 ],
													"destination" : [ "obj-5", 0 ],
													"hidden" : 0,
													"midpoints" : [  ]
												}

											}
, 											{
												"patchline" : 												{
													"source" : [ "obj-6", 3 ],
													"destination" : [ "obj-7", 0 ],
													"hidden" : 0,
													"midpoints" : [  ]
												}

											}
 ]
									}
,
									"saved_object_attributes" : 									{
										"fontname" : "Arial",
										"default_fontface" : 0,
										"globalpatchername" : "",
										"fontface" : 0,
										"default_fontname" : "Arial",
										"fontsize" : 12.0,
										"default_fontsize" : 12.0
									}

								}

							}
, 							{
								"box" : 								{
									"maxclass" : "newobj",
									"text" : "cosm.audio~",
									"outlettype" : [ "signal", "", "", "" ],
									"id" : "obj-78",
									"fontname" : "Arial",
									"patching_rect" : [ 199.0, 206.0, 79.0, 20.0 ],
									"fontsize" : 12.0,
									"color" : [ 0.945098, 0.913725, 0.407843, 1.0 ],
									"numinlets" : 1,
									"numoutlets" : 4
								}

							}
, 							{
								"box" : 								{
									"maxclass" : "newobj",
									"text" : "r step",
									"outlettype" : [ "" ],
									"id" : "obj-31",
									"fontname" : "Arial",
									"patching_rect" : [ 200.0, 163.0, 41.0, 20.0 ],
									"fontsize" : 12.0,
									"numinlets" : 0,
									"numoutlets" : 1
								}

							}
, 							{
								"box" : 								{
									"maxclass" : "newobj",
									"text" : "cosm.nav",
									"outlettype" : [ "", "", "" ],
									"id" : "obj-76",
									"fontname" : "Arial",
									"patching_rect" : [ 100.0, 196.0, 62.0, 20.0 ],
									"fontsize" : 12.0,
									"color" : [ 0.945098, 0.913725, 0.407843, 1.0 ],
									"numinlets" : 1,
									"numoutlets" : 3
								}

							}
, 							{
								"box" : 								{
									"maxclass" : "inlet",
									"outlettype" : [ "float" ],
									"id" : "obj-2",
									"patching_rect" : [ 50.0, 40.0, 25.0, 25.0 ],
									"numinlets" : 0,
									"numoutlets" : 1,
									"comment" : ""
								}

							}
, 							{
								"box" : 								{
									"maxclass" : "inlet",
									"outlettype" : [ "float" ],
									"id" : "obj-3",
									"patching_rect" : [ 134.0, 40.0, 25.0, 25.0 ],
									"numinlets" : 0,
									"numoutlets" : 1,
									"comment" : ""
								}

							}
, 							{
								"box" : 								{
									"maxclass" : "inlet",
									"outlettype" : [ "signal" ],
									"id" : "obj-4",
									"patching_rect" : [ 199.0, 40.0, 25.0, 25.0 ],
									"numinlets" : 0,
									"numoutlets" : 1,
									"comment" : ""
								}

							}
 ],
						"lines" : [ 							{
								"patchline" : 								{
									"source" : [ "obj-81", 0 ],
									"destination" : [ "obj-76", 0 ],
									"hidden" : 0,
									"midpoints" : [  ]
								}

							}
, 							{
								"patchline" : 								{
									"source" : [ "obj-82", 0 ],
									"destination" : [ "obj-81", 0 ],
									"hidden" : 0,
									"midpoints" : [  ]
								}

							}
, 							{
								"patchline" : 								{
									"source" : [ "obj-31", 0 ],
									"destination" : [ "obj-76", 0 ],
									"hidden" : 0,
									"midpoints" : [  ]
								}

							}
, 							{
								"patchline" : 								{
									"source" : [ "obj-76", 0 ],
									"destination" : [ "obj-78", 0 ],
									"hidden" : 0,
									"midpoints" : [  ]
								}

							}
, 							{
								"patchline" : 								{
									"source" : [ "obj-78", 1 ],
									"destination" : [ "obj-77", 1 ],
									"hidden" : 0,
									"midpoints" : [ 228.5, 234.5, 279.5, 234.5 ]
								}

							}
, 							{
								"patchline" : 								{
									"source" : [ "obj-78", 0 ],
									"destination" : [ "obj-77", 0 ],
									"hidden" : 0,
									"midpoints" : [  ]
								}

							}
, 							{
								"patchline" : 								{
									"source" : [ "obj-87", 0 ],
									"destination" : [ "obj-82", 0 ],
									"hidden" : 0,
									"midpoints" : [  ]
								}

							}
, 							{
								"patchline" : 								{
									"source" : [ "obj-86", 0 ],
									"destination" : [ "obj-82", 1 ],
									"hidden" : 0,
									"midpoints" : [  ]
								}

							}
, 							{
								"patchline" : 								{
									"source" : [ "obj-2", 0 ],
									"destination" : [ "obj-86", 0 ],
									"hidden" : 0,
									"midpoints" : [  ]
								}

							}
, 							{
								"patchline" : 								{
									"source" : [ "obj-3", 0 ],
									"destination" : [ "obj-87", 0 ],
									"hidden" : 0,
									"midpoints" : [  ]
								}

							}
, 							{
								"patchline" : 								{
									"source" : [ "obj-4", 0 ],
									"destination" : [ "obj-78", 0 ],
									"hidden" : 0,
									"midpoints" : [  ]
								}

							}
, 							{
								"patchline" : 								{
									"source" : [ "obj-82", 0 ],
									"destination" : [ "obj-5", 1 ],
									"hidden" : 0,
									"midpoints" : [  ]
								}

							}
 ]
					}
,
					"saved_object_attributes" : 					{
						"fontname" : "Helvetica",
						"default_fontface" : 0,
						"globalpatchername" : "",
						"fontface" : 0,
						"default_fontname" : "Helvetica",
						"fontsize" : 12.0,
						"default_fontsize" : 12.0
					}

				}

			}
, 			{
				"box" : 				{
					"maxclass" : "newobj",
					"text" : "p ph.objmgr",
					"outlettype" : [ "float", "float", "float", "float", "int" ],
					"id" : "obj-52",
					"fontname" : "Helvetica",
					"patching_rect" : [ 231.0, 246.5, 74.0, 18.0 ],
					"fontsize" : 12.0,
					"numinlets" : 2,
					"numoutlets" : 5,
					"patcher" : 					{
						"fileversion" : 1,
						"rect" : [ 810.0, 365.0, 640.0, 480.0 ],
						"bglocked" : 0,
						"defrect" : [ 810.0, 365.0, 640.0, 480.0 ],
						"openrect" : [ 0.0, 0.0, 0.0, 0.0 ],
						"openinpresentation" : 0,
						"default_fontsize" : 12.0,
						"default_fontface" : 0,
						"default_fontname" : "Helvetica",
						"gridonopen" : 0,
						"gridsize" : [ 15.0, 15.0 ],
						"gridsnaponopen" : 0,
						"toolbarvisible" : 1,
						"boxanimatetime" : 200,
						"imprint" : 0,
						"enablehscroll" : 1,
						"enablevscroll" : 1,
						"devicewidth" : 0.0,
						"boxes" : [ 							{
								"box" : 								{
									"maxclass" : "comment",
									"text" : "onoff",
									"id" : "obj-6",
									"fontname" : "Helvetica",
									"patching_rect" : [ 299.0, 299.0, 56.0, 18.0 ],
									"fontsize" : 12.0,
									"numinlets" : 1,
									"numoutlets" : 0
								}

							}
, 							{
								"box" : 								{
									"maxclass" : "comment",
									"text" : "distance",
									"id" : "obj-5",
									"fontname" : "Helvetica",
									"patching_rect" : [ 112.0, 291.0, 56.0, 18.0 ],
									"fontsize" : 12.0,
									"numinlets" : 1,
									"numoutlets" : 0
								}

							}
, 							{
								"box" : 								{
									"maxclass" : "comment",
									"text" : "expired",
									"id" : "obj-4",
									"fontname" : "Helvetica",
									"patching_rect" : [ 213.0, 288.0, 56.0, 18.0 ],
									"fontsize" : 12.0,
									"numinlets" : 1,
									"numoutlets" : 0
								}

							}
, 							{
								"box" : 								{
									"maxclass" : "comment",
									"text" : "x",
									"id" : "obj-3",
									"fontname" : "Helvetica",
									"patching_rect" : [ 69.0, 296.0, 18.0, 18.0 ],
									"fontsize" : 12.0,
									"numinlets" : 1,
									"numoutlets" : 0
								}

							}
, 							{
								"box" : 								{
									"maxclass" : "comment",
									"text" : "z",
									"id" : "obj-2",
									"fontname" : "Helvetica",
									"patching_rect" : [ 42.0, 296.0, 18.0, 18.0 ],
									"fontsize" : 12.0,
									"numinlets" : 1,
									"numoutlets" : 0
								}

							}
, 							{
								"box" : 								{
									"maxclass" : "outlet",
									"id" : "obj-1",
									"patching_rect" : [ 100.0, 317.5, 25.0, 25.0 ],
									"numinlets" : 1,
									"numoutlets" : 0,
									"comment" : "distance"
								}

							}
, 							{
								"box" : 								{
									"maxclass" : "message",
									"text" : "0",
									"outlettype" : [ "" ],
									"id" : "obj-100",
									"fontname" : "Helvetica",
									"patching_rect" : [ 201.0, 99.0, 32.5, 16.0 ],
									"fontsize" : 12.0,
									"numinlets" : 2,
									"numoutlets" : 1
								}

							}
, 							{
								"box" : 								{
									"maxclass" : "newobj",
									"text" : "sel 0",
									"outlettype" : [ "bang", "" ],
									"id" : "obj-99",
									"fontname" : "Helvetica",
									"patching_rect" : [ 202.0, 76.5, 36.0, 18.0 ],
									"fontsize" : 12.0,
									"numinlets" : 2,
									"numoutlets" : 2
								}

							}
, 							{
								"box" : 								{
									"maxclass" : "newobj",
									"text" : "r onoff",
									"outlettype" : [ "" ],
									"id" : "obj-98",
									"fontname" : "Arial",
									"patching_rect" : [ 202.723938, 50.0, 44.0, 20.0 ],
									"fontsize" : 12.0,
									"color" : [ 0.317647, 0.709804, 0.321569, 1.0 ],
									"numinlets" : 0,
									"numoutlets" : 1
								}

							}
, 							{
								"box" : 								{
									"maxclass" : "flonum",
									"outlettype" : [ "float", "bang" ],
									"id" : "obj-39",
									"fontname" : "Helvetica Bold",
									"patching_rect" : [ 197.0, 220.999939, 101.0, 30.0 ],
									"fontsize" : 24.0,
									"numinlets" : 1,
									"numdecimalplaces" : 2,
									"numoutlets" : 2
								}

							}
, 							{
								"box" : 								{
									"maxclass" : "newobj",
									"text" : "expr $f1/1000.",
									"outlettype" : [ "" ],
									"id" : "obj-25",
									"fontname" : "Arial",
									"patching_rect" : [ 197.0, 184.999939, 87.0, 20.0 ],
									"fontsize" : 12.0,
									"numinlets" : 1,
									"numoutlets" : 1
								}

							}
, 							{
								"box" : 								{
									"maxclass" : "newobj",
									"text" : "clocker",
									"outlettype" : [ "float" ],
									"id" : "obj-7",
									"fontname" : "Arial",
									"patching_rect" : [ 197.0, 148.0, 49.0, 20.0 ],
									"fontsize" : 12.0,
									"numinlets" : 2,
									"numoutlets" : 1
								}

							}
, 							{
								"box" : 								{
									"maxclass" : "newobj",
									"text" : "unpack f f f",
									"outlettype" : [ "float", "float", "float" ],
									"id" : "obj-31",
									"fontname" : "Helvetica",
									"patching_rect" : [ 50.0, 239.5, 69.0, 18.0 ],
									"fontsize" : 12.0,
									"numinlets" : 1,
									"numoutlets" : 3
								}

							}
, 							{
								"box" : 								{
									"maxclass" : "toggle",
									"outlettype" : [ "int" ],
									"id" : "obj-193",
									"patching_rect" : [ 263.323975, 96.5, 20.0, 20.0 ],
									"numinlets" : 1,
									"numoutlets" : 1
								}

							}
, 							{
								"box" : 								{
									"maxclass" : "inlet",
									"outlettype" : [ "" ],
									"id" : "obj-45",
									"patching_rect" : [ 89.661987, 40.0, 25.0, 25.0 ],
									"numinlets" : 0,
									"numoutlets" : 1,
									"comment" : "z x dist"
								}

							}
, 							{
								"box" : 								{
									"maxclass" : "inlet",
									"outlettype" : [ "" ],
									"id" : "obj-46",
									"patching_rect" : [ 264.323975, 46.0, 25.0, 25.0 ],
									"numinlets" : 0,
									"numoutlets" : 1,
									"comment" : "onoff"
								}

							}
, 							{
								"box" : 								{
									"maxclass" : "outlet",
									"id" : "obj-47",
									"patching_rect" : [ 50.0, 317.5, 25.0, 25.0 ],
									"numinlets" : 1,
									"numoutlets" : 0,
									"comment" : "z"
								}

							}
, 							{
								"box" : 								{
									"maxclass" : "outlet",
									"annotation" : "x",
									"id" : "obj-48",
									"patching_rect" : [ 75.0, 317.5, 25.0, 25.0 ],
									"numinlets" : 1,
									"numoutlets" : 0,
									"comment" : "x"
								}

							}
, 							{
								"box" : 								{
									"maxclass" : "outlet",
									"id" : "obj-49",
									"patching_rect" : [ 192.0, 312.5, 25.0, 25.0 ],
									"numinlets" : 1,
									"numoutlets" : 0,
									"comment" : "expired"
								}

							}
, 							{
								"box" : 								{
									"maxclass" : "outlet",
									"id" : "obj-51",
									"patching_rect" : [ 325.323975, 319.5, 25.0, 25.0 ],
									"numinlets" : 1,
									"numoutlets" : 0,
									"comment" : "onoff"
								}

							}
 ],
						"lines" : [ 							{
								"patchline" : 								{
									"source" : [ "obj-193", 0 ],
									"destination" : [ "obj-51", 0 ],
									"hidden" : 0,
									"midpoints" : [  ]
								}

							}
, 							{
								"patchline" : 								{
									"source" : [ "obj-31", 1 ],
									"destination" : [ "obj-48", 0 ],
									"hidden" : 0,
									"midpoints" : [  ]
								}

							}
, 							{
								"patchline" : 								{
									"source" : [ "obj-31", 0 ],
									"destination" : [ "obj-47", 0 ],
									"hidden" : 0,
									"midpoints" : [  ]
								}

							}
, 							{
								"patchline" : 								{
									"source" : [ "obj-46", 0 ],
									"destination" : [ "obj-193", 0 ],
									"hidden" : 0,
									"midpoints" : [  ]
								}

							}
, 							{
								"patchline" : 								{
									"source" : [ "obj-45", 0 ],
									"destination" : [ "obj-31", 0 ],
									"hidden" : 0,
									"midpoints" : [  ]
								}

							}
, 							{
								"patchline" : 								{
									"source" : [ "obj-7", 0 ],
									"destination" : [ "obj-25", 0 ],
									"hidden" : 0,
									"midpoints" : [  ]
								}

							}
, 							{
								"patchline" : 								{
									"source" : [ "obj-25", 0 ],
									"destination" : [ "obj-39", 0 ],
									"hidden" : 0,
									"midpoints" : [  ]
								}

							}
, 							{
								"patchline" : 								{
									"source" : [ "obj-39", 0 ],
									"destination" : [ "obj-49", 0 ],
									"hidden" : 0,
									"midpoints" : [  ]
								}

							}
, 							{
								"patchline" : 								{
									"source" : [ "obj-193", 0 ],
									"destination" : [ "obj-7", 0 ],
									"hidden" : 0,
									"midpoints" : [  ]
								}

							}
, 							{
								"patchline" : 								{
									"source" : [ "obj-99", 0 ],
									"destination" : [ "obj-100", 0 ],
									"hidden" : 0,
									"midpoints" : [  ]
								}

							}
, 							{
								"patchline" : 								{
									"source" : [ "obj-98", 0 ],
									"destination" : [ "obj-99", 0 ],
									"hidden" : 0,
									"midpoints" : [  ]
								}

							}
, 							{
								"patchline" : 								{
									"source" : [ "obj-100", 0 ],
									"destination" : [ "obj-7", 0 ],
									"hidden" : 0,
									"midpoints" : [  ]
								}

							}
, 							{
								"patchline" : 								{
									"source" : [ "obj-31", 2 ],
									"destination" : [ "obj-1", 0 ],
									"hidden" : 0,
									"midpoints" : [  ]
								}

							}
 ]
					}
,
					"saved_object_attributes" : 					{
						"fontname" : "Helvetica",
						"default_fontface" : 0,
						"globalpatchername" : "",
						"fontface" : 0,
						"default_fontname" : "Helvetica",
						"fontsize" : 12.0,
						"default_fontsize" : 12.0
					}

				}

			}
, 			{
				"box" : 				{
					"maxclass" : "newobj",
					"text" : "r objon_1",
					"outlettype" : [ "" ],
					"id" : "obj-34",
					"fontname" : "Arial",
					"patching_rect" : [ 143.723938, 180.0, 61.0, 20.0 ],
					"fontsize" : 12.0,
					"color" : [ 0.317647, 0.709804, 0.321569, 1.0 ],
					"numinlets" : 0,
					"numoutlets" : 1
				}

			}
, 			{
				"box" : 				{
					"maxclass" : "newobj",
					"text" : "phexp.paraEq_3",
					"outlettype" : [ "signal" ],
					"id" : "obj-215",
					"fontname" : "Arial",
					"patching_rect" : [ 286.323975, 287.0, 128.0, 25.0 ],
					"bgcolor" : [ 0.678431, 0.819608, 0.819608, 1.0 ],
					"fontsize" : 16.0,
					"color" : [ 0.419608, 0.435294, 0.521569, 1.0 ],
					"numinlets" : 5,
					"numoutlets" : 1
				}

			}
 ],
		"lines" : [ 			{
				"patchline" : 				{
					"source" : [ "obj-50", 0 ],
					"destination" : [ "obj-15", 0 ],
					"hidden" : 0,
					"midpoints" : [  ]
				}

			}
, 			{
				"patchline" : 				{
					"source" : [ "obj-15", 0 ],
					"destination" : [ "obj-215", 4 ],
					"hidden" : 0,
					"midpoints" : [  ]
				}

			}
, 			{
				"patchline" : 				{
					"source" : [ "obj-215", 0 ],
					"destination" : [ "obj-86", 3 ],
					"hidden" : 0,
					"midpoints" : [  ]
				}

			}
, 			{
				"patchline" : 				{
					"source" : [ "obj-52", 3 ],
					"destination" : [ "obj-215", 2 ],
					"hidden" : 0,
					"midpoints" : [ 281.75, 270.75, 350.323975, 270.75 ]
				}

			}
, 			{
				"patchline" : 				{
					"source" : [ "obj-52", 4 ],
					"destination" : [ "obj-215", 0 ],
					"hidden" : 0,
					"midpoints" : [  ]
				}

			}
, 			{
				"patchline" : 				{
					"source" : [ "obj-215", 0 ],
					"destination" : [ "obj-6", 2 ],
					"hidden" : 0,
					"midpoints" : [  ]
				}

			}
, 			{
				"patchline" : 				{
					"source" : [ "obj-52", 0 ],
					"destination" : [ "obj-6", 0 ],
					"hidden" : 0,
					"midpoints" : [  ]
				}

			}
, 			{
				"patchline" : 				{
					"source" : [ "obj-52", 1 ],
					"destination" : [ "obj-6", 1 ],
					"hidden" : 0,
					"midpoints" : [  ]
				}

			}
, 			{
				"patchline" : 				{
					"source" : [ "obj-34", 0 ],
					"destination" : [ "obj-52", 1 ],
					"hidden" : 0,
					"midpoints" : [ 153.223938, 245.75, 295.5, 245.75 ]
				}

			}
, 			{
				"patchline" : 				{
					"source" : [ "obj-52", 3 ],
					"destination" : [ "obj-37", 0 ],
					"hidden" : 0,
					"midpoints" : [  ]
				}

			}
, 			{
				"patchline" : 				{
					"source" : [ "obj-67", 0 ],
					"destination" : [ "obj-52", 1 ],
					"hidden" : 0,
					"midpoints" : [  ]
				}

			}
, 			{
				"patchline" : 				{
					"source" : [ "obj-34", 0 ],
					"destination" : [ "obj-81", 0 ],
					"hidden" : 0,
					"midpoints" : [  ]
				}

			}
, 			{
				"patchline" : 				{
					"source" : [ "obj-34", 0 ],
					"destination" : [ "obj-40", 0 ],
					"hidden" : 0,
					"midpoints" : [ 153.223938, 341.5, 272.5, 341.5 ]
				}

			}
, 			{
				"patchline" : 				{
					"source" : [ "obj-34", 0 ],
					"destination" : [ "obj-69", 0 ],
					"hidden" : 0,
					"midpoints" : [ 153.223938, 362.0, 297.5, 362.0 ]
				}

			}
, 			{
				"patchline" : 				{
					"source" : [ "obj-69", 0 ],
					"destination" : [ "obj-86", 2 ],
					"hidden" : 0,
					"midpoints" : [  ]
				}

			}
, 			{
				"patchline" : 				{
					"source" : [ "obj-81", 0 ],
					"destination" : [ "obj-86", 0 ],
					"hidden" : 0,
					"midpoints" : [  ]
				}

			}
, 			{
				"patchline" : 				{
					"source" : [ "obj-40", 0 ],
					"destination" : [ "obj-86", 1 ],
					"hidden" : 0,
					"midpoints" : [  ]
				}

			}
, 			{
				"patchline" : 				{
					"source" : [ "obj-52", 2 ],
					"destination" : [ "obj-215", 1 ],
					"hidden" : 0,
					"midpoints" : [ 268.0, 277.75, 323.073975, 277.75 ]
				}

			}
, 			{
				"patchline" : 				{
					"source" : [ "obj-4", 0 ],
					"destination" : [ "obj-215", 3 ],
					"hidden" : 0,
					"midpoints" : [  ]
				}

			}
, 			{
				"patchline" : 				{
					"source" : [ "obj-102", 0 ],
					"destination" : [ "obj-4", 0 ],
					"hidden" : 0,
					"midpoints" : [  ]
				}

			}
, 			{
				"patchline" : 				{
					"source" : [ "obj-2", 0 ],
					"destination" : [ "obj-5", 1 ],
					"hidden" : 0,
					"midpoints" : [  ]
				}

			}
, 			{
				"patchline" : 				{
					"source" : [ "obj-5", 0 ],
					"destination" : [ "obj-48", 0 ],
					"hidden" : 0,
					"midpoints" : [  ]
				}

			}
, 			{
				"patchline" : 				{
					"source" : [ "obj-7", 0 ],
					"destination" : [ "obj-5", 0 ],
					"hidden" : 0,
					"midpoints" : [  ]
				}

			}
, 			{
				"patchline" : 				{
					"source" : [ "obj-48", 0 ],
					"destination" : [ "obj-52", 0 ],
					"hidden" : 0,
					"midpoints" : [  ]
				}

			}
, 			{
				"patchline" : 				{
					"source" : [ "obj-8", 0 ],
					"destination" : [ "obj-40", 1 ],
					"hidden" : 0,
					"midpoints" : [  ]
				}

			}
, 			{
				"patchline" : 				{
					"source" : [ "obj-2", 0 ],
					"destination" : [ "obj-8", 0 ],
					"hidden" : 0,
					"midpoints" : [  ]
				}

			}
, 			{
				"patchline" : 				{
					"source" : [ "obj-2", 0 ],
					"destination" : [ "obj-9", 0 ],
					"hidden" : 0,
					"midpoints" : [  ]
				}

			}
, 			{
				"patchline" : 				{
					"source" : [ "obj-9", 0 ],
					"destination" : [ "obj-69", 1 ],
					"hidden" : 0,
					"midpoints" : [  ]
				}

			}
, 			{
				"patchline" : 				{
					"source" : [ "obj-37", 0 ],
					"destination" : [ "obj-10", 0 ],
					"hidden" : 0,
					"midpoints" : [  ]
				}

			}
, 			{
				"patchline" : 				{
					"source" : [ "obj-11", 0 ],
					"destination" : [ "obj-2", 0 ],
					"hidden" : 0,
					"midpoints" : [  ]
				}

			}
, 			{
				"patchline" : 				{
					"source" : [ "obj-12", 0 ],
					"destination" : [ "obj-67", 0 ],
					"hidden" : 0,
					"midpoints" : [  ]
				}

			}
, 			{
				"patchline" : 				{
					"source" : [ "obj-2", 0 ],
					"destination" : [ "obj-15", 1 ],
					"hidden" : 0,
					"midpoints" : [  ]
				}

			}
 ]
	}

}
