{
	"patcher" : 	{
		"fileversion" : 1,
		"rect" : [ 585.0, 230.0, 911.0, 633.0 ],
		"bglocked" : 0,
		"defrect" : [ 585.0, 230.0, 911.0, 633.0 ],
		"openrect" : [ 0.0, 0.0, 0.0, 0.0 ],
		"openinpresentation" : 0,
		"default_fontsize" : 12.0,
		"default_fontface" : 0,
		"default_fontname" : "Helvetica",
		"gridonopen" : 0,
		"gridsize" : [ 15.0, 15.0 ],
		"gridsnaponopen" : 0,
		"toolbarvisible" : 1,
		"boxanimatetime" : 200,
		"imprint" : 0,
		"enablehscroll" : 1,
		"enablevscroll" : 1,
		"devicewidth" : 0.0,
		"boxes" : [ 			{
				"box" : 				{
					"maxclass" : "newobj",
					"text" : "gate~",
					"numinlets" : 2,
					"patching_rect" : [ 196.0, 310.0, 41.0, 18.0 ],
					"id" : "obj-20",
					"fontname" : "Helvetica",
					"numoutlets" : 1,
					"outlettype" : [ "signal" ],
					"fontsize" : 12.0
				}

			}
, 			{
				"box" : 				{
					"maxclass" : "newobj",
					"text" : "if $i1 == 1 then 0 else 1",
					"numinlets" : 1,
					"patching_rect" : [ 24.0, 316.0, 135.0, 18.0 ],
					"id" : "obj-18",
					"fontname" : "Helvetica",
					"numoutlets" : 1,
					"outlettype" : [ "" ],
					"fontsize" : 12.0
				}

			}
, 			{
				"box" : 				{
					"maxclass" : "newobj",
					"text" : "r LHdisable",
					"numinlets" : 0,
					"patching_rect" : [ 25.0, 288.0, 71.0, 18.0 ],
					"id" : "obj-19",
					"fontname" : "Helvetica",
					"numoutlets" : 1,
					"outlettype" : [ "" ],
					"fontsize" : 12.0
				}

			}
, 			{
				"box" : 				{
					"maxclass" : "newobj",
					"text" : "loadmess 1",
					"numinlets" : 1,
					"patching_rect" : [ 451.0, 186.0, 72.0, 18.0 ],
					"id" : "obj-17",
					"fontname" : "Helvetica",
					"numoutlets" : 1,
					"outlettype" : [ "" ],
					"fontsize" : 12.0
				}

			}
, 			{
				"box" : 				{
					"maxclass" : "newobj",
					"text" : "gate~",
					"numinlets" : 2,
					"patching_rect" : [ 309.0, 301.0, 41.0, 18.0 ],
					"id" : "obj-13",
					"fontname" : "Helvetica",
					"numoutlets" : 1,
					"outlettype" : [ "signal" ],
					"fontsize" : 12.0
				}

			}
, 			{
				"box" : 				{
					"maxclass" : "newobj",
					"text" : "if $i1 == 1 then 0 else 1",
					"numinlets" : 1,
					"patching_rect" : [ 358.0, 246.0, 135.0, 18.0 ],
					"id" : "obj-11",
					"fontname" : "Helvetica",
					"numoutlets" : 1,
					"outlettype" : [ "" ],
					"fontsize" : 12.0
				}

			}
, 			{
				"box" : 				{
					"maxclass" : "newobj",
					"text" : "r RHdisable",
					"numinlets" : 0,
					"patching_rect" : [ 359.0, 218.0, 73.0, 18.0 ],
					"id" : "obj-4",
					"fontname" : "Helvetica",
					"numoutlets" : 1,
					"outlettype" : [ "" ],
					"fontsize" : 12.0
				}

			}
, 			{
				"box" : 				{
					"maxclass" : "newobj",
					"text" : "line~",
					"numinlets" : 2,
					"patching_rect" : [ 700.0, 602.0, 36.0, 18.0 ],
					"id" : "obj-44",
					"fontname" : "Helvetica",
					"numoutlets" : 2,
					"outlettype" : [ "signal", "bang" ],
					"fontsize" : 12.0
				}

			}
, 			{
				"box" : 				{
					"maxclass" : "function",
					"numinlets" : 1,
					"patching_rect" : [ 678.0, 483.0, 200.0, 100.0 ],
					"id" : "obj-43",
					"numoutlets" : 4,
					"outlettype" : [ "float", "", "", "bang" ],
					"domain" : 4000.0,
					"addpoints" : [ 0.0, 0.0, 0, 1297.872314, 0.0, 0, 1914.893677, 0.666667, 0, 3659.574463, 0.0, 0, 4000.0, 0.0, 0 ]
				}

			}
, 			{
				"box" : 				{
					"maxclass" : "newobj",
					"text" : "*~",
					"numinlets" : 2,
					"patching_rect" : [ 281.0, 389.0, 32.5, 18.0 ],
					"id" : "obj-42",
					"fontname" : "Helvetica",
					"numoutlets" : 1,
					"outlettype" : [ "signal" ],
					"fontsize" : 12.0
				}

			}
, 			{
				"box" : 				{
					"maxclass" : "newobj",
					"text" : "*~ 4.",
					"numinlets" : 2,
					"patching_rect" : [ 287.0, 328.0, 36.0, 18.0 ],
					"id" : "obj-41",
					"fontname" : "Helvetica",
					"numoutlets" : 1,
					"outlettype" : [ "signal" ],
					"fontsize" : 12.0
				}

			}
, 			{
				"box" : 				{
					"maxclass" : "newobj",
					"text" : "line~",
					"numinlets" : 2,
					"patching_rect" : [ 742.0, 450.0, 36.0, 18.0 ],
					"id" : "obj-38",
					"fontname" : "Helvetica",
					"numoutlets" : 2,
					"outlettype" : [ "signal", "bang" ],
					"fontsize" : 12.0
				}

			}
, 			{
				"box" : 				{
					"maxclass" : "function",
					"numinlets" : 1,
					"patching_rect" : [ 681.0, 313.0, 200.0, 100.0 ],
					"id" : "obj-36",
					"numoutlets" : 4,
					"outlettype" : [ "float", "", "", "bang" ],
					"domain" : 4000.0,
					"addpoints" : [ 0.0, 0.0, 0, 787.23407, 0.653333, 0, 2382.97876, 0.0, 0, 4000.0, 0.0, 0 ]
				}

			}
, 			{
				"box" : 				{
					"maxclass" : "message",
					"text" : "setdomain $1",
					"numinlets" : 2,
					"patching_rect" : [ 727.0, 266.0, 83.0, 16.0 ],
					"id" : "obj-29",
					"fontname" : "Helvetica",
					"numoutlets" : 1,
					"outlettype" : [ "" ],
					"fontsize" : 12.0
				}

			}
, 			{
				"box" : 				{
					"maxclass" : "number",
					"numinlets" : 1,
					"patching_rect" : [ 678.0, 199.0, 50.0, 18.0 ],
					"id" : "obj-24",
					"fontname" : "Helvetica",
					"numoutlets" : 2,
					"outlettype" : [ "int", "bang" ],
					"fontsize" : 12.0
				}

			}
, 			{
				"box" : 				{
					"maxclass" : "toggle",
					"numinlets" : 1,
					"patching_rect" : [ 579.0, 188.0, 20.0, 20.0 ],
					"id" : "obj-23",
					"numoutlets" : 1,
					"outlettype" : [ "int" ]
				}

			}
, 			{
				"box" : 				{
					"maxclass" : "newobj",
					"text" : "metro 1000",
					"numinlets" : 2,
					"patching_rect" : [ 643.0, 244.0, 71.0, 18.0 ],
					"id" : "obj-22",
					"fontname" : "Helvetica",
					"numoutlets" : 1,
					"outlettype" : [ "bang" ],
					"fontsize" : 12.0
				}

			}
, 			{
				"box" : 				{
					"maxclass" : "inlet",
					"numinlets" : 0,
					"patching_rect" : [ 635.0, 41.0, 25.0, 25.0 ],
					"id" : "obj-14",
					"numoutlets" : 1,
					"outlettype" : [ "int" ],
					"comment" : ""
				}

			}
, 			{
				"box" : 				{
					"maxclass" : "inlet",
					"numinlets" : 0,
					"patching_rect" : [ 586.0, 38.0, 25.0, 25.0 ],
					"id" : "obj-10",
					"numoutlets" : 1,
					"outlettype" : [ "int" ],
					"comment" : ""
				}

			}
, 			{
				"box" : 				{
					"maxclass" : "newobj",
					"text" : "*~",
					"numinlets" : 2,
					"patching_rect" : [ 170.0, 502.0, 32.5, 18.0 ],
					"id" : "obj-35",
					"fontname" : "Helvetica",
					"numoutlets" : 1,
					"outlettype" : [ "signal" ],
					"fontsize" : 12.0
				}

			}
, 			{
				"box" : 				{
					"maxclass" : "newobj",
					"text" : "line~",
					"numinlets" : 2,
					"patching_rect" : [ 50.0, 174.0, 36.0, 18.0 ],
					"id" : "obj-34",
					"fontname" : "Helvetica",
					"numoutlets" : 2,
					"outlettype" : [ "signal", "bang" ],
					"fontsize" : 12.0
				}

			}
, 			{
				"box" : 				{
					"maxclass" : "message",
					"text" : "$1 500",
					"numinlets" : 2,
					"patching_rect" : [ 66.0, 145.0, 47.0, 16.0 ],
					"id" : "obj-33",
					"fontname" : "Helvetica",
					"numoutlets" : 1,
					"outlettype" : [ "" ],
					"fontsize" : 12.0
				}

			}
, 			{
				"box" : 				{
					"maxclass" : "toggle",
					"numinlets" : 1,
					"patching_rect" : [ 76.0, 101.0, 20.0, 20.0 ],
					"id" : "obj-32",
					"numoutlets" : 1,
					"outlettype" : [ "int" ]
				}

			}
, 			{
				"box" : 				{
					"maxclass" : "inlet",
					"numinlets" : 0,
					"patching_rect" : [ 83.0, 37.0, 25.0, 25.0 ],
					"id" : "obj-31",
					"numoutlets" : 1,
					"outlettype" : [ "int" ],
					"comment" : ""
				}

			}
, 			{
				"box" : 				{
					"maxclass" : "outlet",
					"numinlets" : 1,
					"patching_rect" : [ 214.0, 535.0, 25.0, 25.0 ],
					"id" : "obj-30",
					"numoutlets" : 0,
					"comment" : ""
				}

			}
, 			{
				"box" : 				{
					"maxclass" : "newobj",
					"text" : "+~",
					"numinlets" : 2,
					"patching_rect" : [ 279.0, 359.0, 32.5, 18.0 ],
					"id" : "obj-28",
					"fontname" : "Helvetica",
					"numoutlets" : 1,
					"outlettype" : [ "signal" ],
					"fontsize" : 12.0
				}

			}
, 			{
				"box" : 				{
					"maxclass" : "newobj",
					"text" : "+~",
					"numinlets" : 2,
					"patching_rect" : [ 213.0, 352.0, 32.5, 18.0 ],
					"id" : "obj-21",
					"fontname" : "Helvetica",
					"numoutlets" : 1,
					"outlettype" : [ "signal" ],
					"fontsize" : 12.0
				}

			}
, 			{
				"box" : 				{
					"maxclass" : "newobj",
					"text" : "loadmess 1",
					"numinlets" : 1,
					"patching_rect" : [ 494.0, 329.0, 72.0, 18.0 ],
					"id" : "obj-16",
					"fontname" : "Helvetica",
					"numoutlets" : 1,
					"outlettype" : [ "" ],
					"fontsize" : 12.0
				}

			}
, 			{
				"box" : 				{
					"maxclass" : "preset",
					"numinlets" : 1,
					"patching_rect" : [ 498.0, 365.0, 100.0, 40.0 ],
					"id" : "obj-15",
					"numoutlets" : 4,
					"outlettype" : [ "preset", "int", "preset", "int" ],
					"preset_data" : [ 						{
							"number" : 1,
							"data" : [ 5, "obj-2", "kslider", "int", 59, 5, "obj-5", "kslider", "int", 53, 6, "obj-9", "gain~", "list", 117, 10.0, 5, "obj-12", "flonum", "float", 0.13, 5, "obj-32", "toggle", "int", 1, 5, "obj-23", "toggle", "int", 1, 5, "obj-24", "number", "int", 4000, 4, "obj-36", "function", "clear", 7, "obj-36", "function", "add", 0.0, 0.0, 0, 7, "obj-36", "function", "add", 787.23407, 0.653333, 0, 7, "obj-36", "function", "add", 2382.97876, 0.0, 0, 7, "obj-36", "function", "add", 4000.0, 0.0, 0, 5, "obj-36", "function", "domain", 4000.0, 6, "obj-36", "function", "range", 0.0, 1.0, 4, "obj-43", "function", "clear", 7, "obj-43", "function", "add", 0.0, 0.0, 0, 7, "obj-43", "function", "add", 1297.872314, 0.0, 0, 7, "obj-43", "function", "add", 1914.893677, 0.666667, 0, 7, "obj-43", "function", "add", 3659.574463, 0.0, 0, 7, "obj-43", "function", "add", 4000.0, 0.0, 0, 5, "obj-43", "function", "domain", 4000.0, 6, "obj-43", "function", "range", 0.0, 1.0 ]
						}
 ]
				}

			}
, 			{
				"box" : 				{
					"maxclass" : "flonum",
					"numinlets" : 1,
					"patching_rect" : [ 448.0, 296.0, 50.0, 18.0 ],
					"id" : "obj-12",
					"fontname" : "Helvetica",
					"numoutlets" : 2,
					"outlettype" : [ "float", "bang" ],
					"fontsize" : 12.0
				}

			}
, 			{
				"box" : 				{
					"maxclass" : "gain~",
					"numinlets" : 2,
					"patching_rect" : [ 200.0, 431.0, 148.0, 26.0 ],
					"id" : "obj-9",
					"numoutlets" : 2,
					"outlettype" : [ "signal", "int" ]
				}

			}
, 			{
				"box" : 				{
					"maxclass" : "newobj",
					"text" : "*~",
					"numinlets" : 2,
					"patching_rect" : [ 213.0, 389.0, 32.5, 18.0 ],
					"id" : "obj-8",
					"fontname" : "Helvetica",
					"numoutlets" : 1,
					"outlettype" : [ "signal" ],
					"fontsize" : 12.0
				}

			}
, 			{
				"box" : 				{
					"maxclass" : "newobj",
					"text" : "mtof",
					"numinlets" : 1,
					"patching_rect" : [ 273.0, 207.0, 34.0, 18.0 ],
					"id" : "obj-6",
					"fontname" : "Helvetica",
					"numoutlets" : 1,
					"outlettype" : [ "" ],
					"fontsize" : 12.0
				}

			}
, 			{
				"box" : 				{
					"maxclass" : "newobj",
					"text" : "tri~",
					"numinlets" : 3,
					"patching_rect" : [ 271.0, 267.0, 46.0, 18.0 ],
					"id" : "obj-7",
					"fontname" : "Helvetica",
					"numoutlets" : 1,
					"outlettype" : [ "signal" ],
					"fontsize" : 12.0
				}

			}
, 			{
				"box" : 				{
					"maxclass" : "kslider",
					"numinlets" : 2,
					"patching_rect" : [ 185.0, 26.0, 336.0, 53.0 ],
					"id" : "obj-5",
					"numoutlets" : 2,
					"outlettype" : [ "int", "int" ]
				}

			}
, 			{
				"box" : 				{
					"maxclass" : "newobj",
					"text" : "mtof",
					"numinlets" : 1,
					"patching_rect" : [ 184.0, 202.0, 34.0, 18.0 ],
					"id" : "obj-3",
					"fontname" : "Helvetica",
					"numoutlets" : 1,
					"outlettype" : [ "" ],
					"fontsize" : 12.0
				}

			}
, 			{
				"box" : 				{
					"maxclass" : "kslider",
					"numinlets" : 2,
					"patching_rect" : [ 185.0, 90.0, 336.0, 53.0 ],
					"id" : "obj-2",
					"numoutlets" : 2,
					"outlettype" : [ "int", "int" ]
				}

			}
, 			{
				"box" : 				{
					"maxclass" : "newobj",
					"text" : "cycle~",
					"numinlets" : 2,
					"patching_rect" : [ 194.0, 256.0, 45.0, 18.0 ],
					"id" : "obj-1",
					"fontname" : "Helvetica",
					"numoutlets" : 1,
					"outlettype" : [ "signal" ],
					"fontsize" : 12.0
				}

			}
 ],
		"lines" : [ 			{
				"patchline" : 				{
					"source" : [ "obj-17", 0 ],
					"destination" : [ "obj-20", 0 ],
					"hidden" : 0,
					"midpoints" : [  ]
				}

			}
, 			{
				"patchline" : 				{
					"source" : [ "obj-18", 0 ],
					"destination" : [ "obj-20", 0 ],
					"hidden" : 0,
					"midpoints" : [  ]
				}

			}
, 			{
				"patchline" : 				{
					"source" : [ "obj-20", 0 ],
					"destination" : [ "obj-21", 0 ],
					"hidden" : 0,
					"midpoints" : [  ]
				}

			}
, 			{
				"patchline" : 				{
					"source" : [ "obj-1", 0 ],
					"destination" : [ "obj-20", 1 ],
					"hidden" : 0,
					"midpoints" : [  ]
				}

			}
, 			{
				"patchline" : 				{
					"source" : [ "obj-19", 0 ],
					"destination" : [ "obj-18", 0 ],
					"hidden" : 0,
					"midpoints" : [  ]
				}

			}
, 			{
				"patchline" : 				{
					"source" : [ "obj-4", 0 ],
					"destination" : [ "obj-11", 0 ],
					"hidden" : 0,
					"midpoints" : [  ]
				}

			}
, 			{
				"patchline" : 				{
					"source" : [ "obj-11", 0 ],
					"destination" : [ "obj-13", 0 ],
					"hidden" : 0,
					"midpoints" : [  ]
				}

			}
, 			{
				"patchline" : 				{
					"source" : [ "obj-13", 0 ],
					"destination" : [ "obj-41", 0 ],
					"hidden" : 0,
					"midpoints" : [  ]
				}

			}
, 			{
				"patchline" : 				{
					"source" : [ "obj-7", 0 ],
					"destination" : [ "obj-13", 1 ],
					"hidden" : 0,
					"midpoints" : [  ]
				}

			}
, 			{
				"patchline" : 				{
					"source" : [ "obj-17", 0 ],
					"destination" : [ "obj-13", 0 ],
					"hidden" : 0,
					"midpoints" : [  ]
				}

			}
, 			{
				"patchline" : 				{
					"source" : [ "obj-6", 0 ],
					"destination" : [ "obj-7", 0 ],
					"hidden" : 0,
					"midpoints" : [  ]
				}

			}
, 			{
				"patchline" : 				{
					"source" : [ "obj-41", 0 ],
					"destination" : [ "obj-28", 0 ],
					"hidden" : 0,
					"midpoints" : [  ]
				}

			}
, 			{
				"patchline" : 				{
					"source" : [ "obj-44", 0 ],
					"destination" : [ "obj-8", 1 ],
					"hidden" : 0,
					"midpoints" : [  ]
				}

			}
, 			{
				"patchline" : 				{
					"source" : [ "obj-43", 1 ],
					"destination" : [ "obj-44", 0 ],
					"hidden" : 0,
					"midpoints" : [  ]
				}

			}
, 			{
				"patchline" : 				{
					"source" : [ "obj-29", 0 ],
					"destination" : [ "obj-43", 0 ],
					"hidden" : 0,
					"midpoints" : [  ]
				}

			}
, 			{
				"patchline" : 				{
					"source" : [ "obj-22", 0 ],
					"destination" : [ "obj-43", 0 ],
					"hidden" : 0,
					"midpoints" : [  ]
				}

			}
, 			{
				"patchline" : 				{
					"source" : [ "obj-8", 0 ],
					"destination" : [ "obj-9", 0 ],
					"hidden" : 0,
					"midpoints" : [  ]
				}

			}
, 			{
				"patchline" : 				{
					"source" : [ "obj-42", 0 ],
					"destination" : [ "obj-9", 0 ],
					"hidden" : 0,
					"midpoints" : [  ]
				}

			}
, 			{
				"patchline" : 				{
					"source" : [ "obj-38", 0 ],
					"destination" : [ "obj-42", 1 ],
					"hidden" : 0,
					"midpoints" : [  ]
				}

			}
, 			{
				"patchline" : 				{
					"source" : [ "obj-28", 0 ],
					"destination" : [ "obj-42", 0 ],
					"hidden" : 0,
					"midpoints" : [  ]
				}

			}
, 			{
				"patchline" : 				{
					"source" : [ "obj-21", 0 ],
					"destination" : [ "obj-8", 0 ],
					"hidden" : 0,
					"midpoints" : [  ]
				}

			}
, 			{
				"patchline" : 				{
					"source" : [ "obj-23", 0 ],
					"destination" : [ "obj-22", 0 ],
					"hidden" : 0,
					"midpoints" : [  ]
				}

			}
, 			{
				"patchline" : 				{
					"source" : [ "obj-24", 0 ],
					"destination" : [ "obj-22", 1 ],
					"hidden" : 0,
					"midpoints" : [  ]
				}

			}
, 			{
				"patchline" : 				{
					"source" : [ "obj-22", 0 ],
					"destination" : [ "obj-36", 0 ],
					"hidden" : 0,
					"midpoints" : [  ]
				}

			}
, 			{
				"patchline" : 				{
					"source" : [ "obj-36", 1 ],
					"destination" : [ "obj-38", 0 ],
					"hidden" : 0,
					"midpoints" : [  ]
				}

			}
, 			{
				"patchline" : 				{
					"source" : [ "obj-24", 0 ],
					"destination" : [ "obj-29", 0 ],
					"hidden" : 0,
					"midpoints" : [  ]
				}

			}
, 			{
				"patchline" : 				{
					"source" : [ "obj-29", 0 ],
					"destination" : [ "obj-36", 0 ],
					"hidden" : 0,
					"midpoints" : [  ]
				}

			}
, 			{
				"patchline" : 				{
					"source" : [ "obj-14", 0 ],
					"destination" : [ "obj-5", 0 ],
					"hidden" : 0,
					"midpoints" : [  ]
				}

			}
, 			{
				"patchline" : 				{
					"source" : [ "obj-10", 0 ],
					"destination" : [ "obj-2", 0 ],
					"hidden" : 0,
					"midpoints" : [  ]
				}

			}
, 			{
				"patchline" : 				{
					"source" : [ "obj-33", 0 ],
					"destination" : [ "obj-34", 0 ],
					"hidden" : 0,
					"midpoints" : [  ]
				}

			}
, 			{
				"patchline" : 				{
					"source" : [ "obj-34", 0 ],
					"destination" : [ "obj-35", 1 ],
					"hidden" : 0,
					"midpoints" : [  ]
				}

			}
, 			{
				"patchline" : 				{
					"source" : [ "obj-2", 0 ],
					"destination" : [ "obj-3", 0 ],
					"hidden" : 0,
					"midpoints" : [  ]
				}

			}
, 			{
				"patchline" : 				{
					"source" : [ "obj-5", 0 ],
					"destination" : [ "obj-6", 0 ],
					"hidden" : 0,
					"midpoints" : [ 119.0, 123.0, 273.0, 188.0 ]
				}

			}
, 			{
				"patchline" : 				{
					"source" : [ "obj-16", 0 ],
					"destination" : [ "obj-15", 0 ],
					"hidden" : 0,
					"midpoints" : [  ]
				}

			}
, 			{
				"patchline" : 				{
					"source" : [ "obj-9", 0 ],
					"destination" : [ "obj-35", 0 ],
					"hidden" : 0,
					"midpoints" : [  ]
				}

			}
, 			{
				"patchline" : 				{
					"source" : [ "obj-35", 0 ],
					"destination" : [ "obj-30", 0 ],
					"hidden" : 0,
					"midpoints" : [  ]
				}

			}
, 			{
				"patchline" : 				{
					"source" : [ "obj-31", 0 ],
					"destination" : [ "obj-32", 0 ],
					"hidden" : 0,
					"midpoints" : [  ]
				}

			}
, 			{
				"patchline" : 				{
					"source" : [ "obj-32", 0 ],
					"destination" : [ "obj-33", 0 ],
					"hidden" : 0,
					"midpoints" : [  ]
				}

			}
, 			{
				"patchline" : 				{
					"source" : [ "obj-3", 0 ],
					"destination" : [ "obj-1", 0 ],
					"hidden" : 0,
					"midpoints" : [  ]
				}

			}
 ]
	}

}
