{
	"patcher" : 	{
		"fileversion" : 1,
		"rect" : [ 423.0, 140.0, 902.0, 793.0 ],
		"bglocked" : 0,
		"defrect" : [ 423.0, 140.0, 902.0, 793.0 ],
		"openrect" : [ 0.0, 0.0, 0.0, 0.0 ],
		"openinpresentation" : 0,
		"default_fontsize" : 12.0,
		"default_fontface" : 0,
		"default_fontname" : "Arial",
		"gridonopen" : 0,
		"gridsize" : [ 15.0, 15.0 ],
		"gridsnaponopen" : 0,
		"toolbarvisible" : 1,
		"boxanimatetime" : 200,
		"imprint" : 0,
		"enablehscroll" : 1,
		"enablevscroll" : 1,
		"devicewidth" : 0.0,
		"boxes" : [ 			{
				"box" : 				{
					"maxclass" : "newobj",
					"text" : "coll picpixels 1",
					"outlettype" : [ "", "", "", "" ],
					"fontsize" : 12.0,
					"patching_rect" : [ 674.0, 532.0, 88.0, 20.0 ],
					"id" : "obj-187",
					"numinlets" : 1,
					"color" : [ 0.843137, 0.741176, 0.431373, 1.0 ],
					"numoutlets" : 4,
					"fontname" : "Arial",
					"saved_object_attributes" : 					{
						"embed" : 0
					}

				}

			}
, 			{
				"box" : 				{
					"maxclass" : "number",
					"outlettype" : [ "int", "bang" ],
					"fontsize" : 12.0,
					"patching_rect" : [ 673.0, 348.0, 50.0, 20.0 ],
					"id" : "obj-16",
					"numinlets" : 1,
					"numoutlets" : 2,
					"fontname" : "Arial"
				}

			}
, 			{
				"box" : 				{
					"maxclass" : "inlet",
					"outlettype" : [ "" ],
					"patching_rect" : [ 737.0, 207.0, 25.0, 25.0 ],
					"id" : "obj-15",
					"numinlets" : 0,
					"numoutlets" : 1,
					"comment" : "lifetime"
				}

			}
, 			{
				"box" : 				{
					"maxclass" : "button",
					"outlettype" : [ "bang" ],
					"patching_rect" : [ 570.0, 252.0, 20.0, 20.0 ],
					"id" : "obj-32",
					"numinlets" : 1,
					"numoutlets" : 1
				}

			}
, 			{
				"box" : 				{
					"maxclass" : "newobj",
					"text" : "+ 1500",
					"outlettype" : [ "int" ],
					"fontsize" : 12.0,
					"patching_rect" : [ 571.0, 326.0, 48.0, 20.0 ],
					"id" : "obj-31",
					"numinlets" : 2,
					"numoutlets" : 1,
					"fontname" : "Arial"
				}

			}
, 			{
				"box" : 				{
					"maxclass" : "newobj",
					"text" : "random 1000",
					"outlettype" : [ "int" ],
					"fontsize" : 12.0,
					"patching_rect" : [ 571.0, 286.0, 81.0, 20.0 ],
					"id" : "obj-30",
					"numinlets" : 2,
					"numoutlets" : 1,
					"fontname" : "Arial"
				}

			}
, 			{
				"box" : 				{
					"maxclass" : "newobj",
					"text" : "scale 0 120 40 60",
					"outlettype" : [ "" ],
					"fontsize" : 12.0,
					"patching_rect" : [ 124.0, 58.0, 105.0, 20.0 ],
					"id" : "obj-29",
					"numinlets" : 6,
					"numoutlets" : 1,
					"fontname" : "Arial"
				}

			}
, 			{
				"box" : 				{
					"maxclass" : "number",
					"outlettype" : [ "int", "bang" ],
					"fontsize" : 12.0,
					"patching_rect" : [ 570.0, 105.0, 50.0, 20.0 ],
					"id" : "obj-28",
					"numinlets" : 1,
					"numoutlets" : 2,
					"fontname" : "Arial"
				}

			}
, 			{
				"box" : 				{
					"maxclass" : "number",
					"outlettype" : [ "int", "bang" ],
					"fontsize" : 12.0,
					"patching_rect" : [ 124.0, 35.0, 50.0, 20.0 ],
					"id" : "obj-27",
					"numinlets" : 1,
					"numoutlets" : 2,
					"fontname" : "Arial"
				}

			}
, 			{
				"box" : 				{
					"maxclass" : "inlet",
					"outlettype" : [ "float" ],
					"patching_rect" : [ 124.0, 6.0, 25.0, 25.0 ],
					"id" : "obj-20",
					"numinlets" : 0,
					"numoutlets" : 1,
					"comment" : "dist"
				}

			}
, 			{
				"box" : 				{
					"maxclass" : "message",
					"text" : "0",
					"outlettype" : [ "" ],
					"fontsize" : 12.0,
					"patching_rect" : [ 594.0, 522.0, 32.5, 18.0 ],
					"id" : "obj-19",
					"numinlets" : 2,
					"numoutlets" : 1,
					"fontname" : "Arial"
				}

			}
, 			{
				"box" : 				{
					"maxclass" : "newobj",
					"text" : "gate~",
					"outlettype" : [ "signal" ],
					"fontsize" : 12.0,
					"patching_rect" : [ 77.0, 582.0, 41.0, 20.0 ],
					"id" : "obj-17",
					"numinlets" : 2,
					"numoutlets" : 1,
					"fontname" : "Arial"
				}

			}
, 			{
				"box" : 				{
					"maxclass" : "newobj",
					"text" : "loadbang",
					"outlettype" : [ "bang" ],
					"fontsize" : 12.0,
					"patching_rect" : [ 594.0, 437.0, 60.0, 20.0 ],
					"id" : "obj-8",
					"numinlets" : 1,
					"numoutlets" : 1,
					"fontname" : "Arial"
				}

			}
, 			{
				"box" : 				{
					"maxclass" : "button",
					"outlettype" : [ "bang" ],
					"patching_rect" : [ 526.0, 484.0, 20.0, 20.0 ],
					"id" : "obj-97",
					"numinlets" : 1,
					"numoutlets" : 1
				}

			}
, 			{
				"box" : 				{
					"maxclass" : "button",
					"outlettype" : [ "bang" ],
					"patching_rect" : [ 504.0, 456.0, 20.0, 20.0 ],
					"id" : "obj-91",
					"numinlets" : 1,
					"numoutlets" : 1
				}

			}
, 			{
				"box" : 				{
					"maxclass" : "newobj",
					"text" : "ph.scandatasound",
					"outlettype" : [ "signal" ],
					"fontsize" : 12.0,
					"patching_rect" : [ 396.0, 658.0, 109.0, 20.0 ],
					"id" : "obj-87",
					"numinlets" : 4,
					"numoutlets" : 1,
					"fontname" : "Arial"
				}

			}
, 			{
				"box" : 				{
					"maxclass" : "newobj",
					"text" : "sel 0",
					"outlettype" : [ "bang", "" ],
					"fontsize" : 12.0,
					"patching_rect" : [ 143.0, 93.0, 36.0, 20.0 ],
					"id" : "obj-86",
					"numinlets" : 2,
					"numoutlets" : 2,
					"fontname" : "Arial"
				}

			}
, 			{
				"box" : 				{
					"maxclass" : "message",
					"text" : "0 500",
					"outlettype" : [ "" ],
					"fontsize" : 12.0,
					"patching_rect" : [ 529.0, 423.0, 41.0, 18.0 ],
					"id" : "obj-85",
					"numinlets" : 2,
					"numoutlets" : 1,
					"fontname" : "Arial"
				}

			}
, 			{
				"box" : 				{
					"maxclass" : "message",
					"text" : "$1 1000",
					"outlettype" : [ "" ],
					"fontsize" : 12.0,
					"patching_rect" : [ 471.0, 143.0, 54.0, 18.0 ],
					"id" : "obj-83",
					"numinlets" : 2,
					"numoutlets" : 1,
					"fontname" : "Arial"
				}

			}
, 			{
				"box" : 				{
					"maxclass" : "newobj",
					"text" : "line",
					"outlettype" : [ "", "" ],
					"fontsize" : 12.0,
					"patching_rect" : [ 471.0, 164.0, 46.0, 20.0 ],
					"id" : "obj-84",
					"numinlets" : 3,
					"numoutlets" : 2,
					"fontname" : "Arial"
				}

			}
, 			{
				"box" : 				{
					"maxclass" : "message",
					"text" : "$1 1000",
					"outlettype" : [ "" ],
					"fontsize" : 12.0,
					"patching_rect" : [ 324.0, 124.0, 54.0, 18.0 ],
					"id" : "obj-79",
					"numinlets" : 2,
					"numoutlets" : 1,
					"fontname" : "Arial"
				}

			}
, 			{
				"box" : 				{
					"maxclass" : "newobj",
					"text" : "line",
					"outlettype" : [ "", "" ],
					"fontsize" : 12.0,
					"patching_rect" : [ 324.0, 151.0, 46.0, 20.0 ],
					"id" : "obj-80",
					"numinlets" : 3,
					"numoutlets" : 2,
					"fontname" : "Arial"
				}

			}
, 			{
				"box" : 				{
					"maxclass" : "message",
					"text" : "$1 1000",
					"outlettype" : [ "" ],
					"fontsize" : 12.0,
					"patching_rect" : [ 199.0, 101.0, 54.0, 18.0 ],
					"id" : "obj-78",
					"numinlets" : 2,
					"numoutlets" : 1,
					"fontname" : "Arial"
				}

			}
, 			{
				"box" : 				{
					"maxclass" : "newobj",
					"text" : "line",
					"outlettype" : [ "", "" ],
					"fontsize" : 12.0,
					"patching_rect" : [ 199.0, 122.0, 46.0, 20.0 ],
					"id" : "obj-77",
					"numinlets" : 3,
					"numoutlets" : 2,
					"fontname" : "Arial"
				}

			}
, 			{
				"box" : 				{
					"maxclass" : "newobj",
					"text" : "expr $f1*1000+1000",
					"outlettype" : [ "" ],
					"fontsize" : 12.0,
					"patching_rect" : [ 22.0, 210.0, 119.0, 20.0 ],
					"id" : "obj-76",
					"numinlets" : 1,
					"numoutlets" : 1,
					"fontname" : "Arial"
				}

			}
, 			{
				"box" : 				{
					"maxclass" : "number~",
					"outlettype" : [ "signal", "float" ],
					"sig" : 0.0,
					"mode" : 2,
					"fontsize" : 12.0,
					"patching_rect" : [ 16.0, 182.0, 56.0, 20.0 ],
					"id" : "obj-75",
					"numinlets" : 2,
					"numoutlets" : 2,
					"fontname" : "Arial"
				}

			}
, 			{
				"box" : 				{
					"maxclass" : "newobj",
					"text" : "cycle~ 0.03",
					"outlettype" : [ "signal" ],
					"fontsize" : 12.0,
					"patching_rect" : [ 8.0, 155.0, 72.0, 20.0 ],
					"id" : "obj-74",
					"numinlets" : 2,
					"numoutlets" : 1,
					"fontname" : "Arial"
				}

			}
, 			{
				"box" : 				{
					"maxclass" : "newobj",
					"text" : "p vib",
					"outlettype" : [ "signal" ],
					"fontsize" : 12.0,
					"patching_rect" : [ 324.0, 177.0, 46.0, 20.0 ],
					"id" : "obj-68",
					"numinlets" : 3,
					"numoutlets" : 1,
					"fontname" : "Arial",
					"patcher" : 					{
						"fileversion" : 1,
						"rect" : [ 25.0, 69.0, 640.0, 480.0 ],
						"bglocked" : 0,
						"defrect" : [ 25.0, 69.0, 640.0, 480.0 ],
						"openrect" : [ 0.0, 0.0, 0.0, 0.0 ],
						"openinpresentation" : 0,
						"default_fontsize" : 12.0,
						"default_fontface" : 0,
						"default_fontname" : "Helvetica",
						"gridonopen" : 0,
						"gridsize" : [ 15.0, 15.0 ],
						"gridsnaponopen" : 0,
						"toolbarvisible" : 1,
						"boxanimatetime" : 200,
						"imprint" : 0,
						"enablehscroll" : 1,
						"enablevscroll" : 1,
						"devicewidth" : 0.0,
						"boxes" : [ 							{
								"box" : 								{
									"maxclass" : "flonum",
									"outlettype" : [ "float", "bang" ],
									"fontsize" : 12.0,
									"patching_rect" : [ 61.0, 161.0, 50.0, 20.0 ],
									"id" : "obj-56",
									"numinlets" : 1,
									"numoutlets" : 2,
									"fontname" : "Arial"
								}

							}
, 							{
								"box" : 								{
									"maxclass" : "newobj",
									"text" : "* 0.",
									"outlettype" : [ "float" ],
									"fontsize" : 12.0,
									"patching_rect" : [ 50.0, 127.0, 32.5, 20.0 ],
									"id" : "obj-55",
									"numinlets" : 2,
									"numoutlets" : 1,
									"fontname" : "Arial"
								}

							}
, 							{
								"box" : 								{
									"maxclass" : "newobj",
									"text" : "pak 0. 0.",
									"outlettype" : [ "" ],
									"fontsize" : 12.0,
									"patching_rect" : [ 51.0, 100.0, 57.0, 20.0 ],
									"id" : "obj-53",
									"numinlets" : 2,
									"numoutlets" : 1,
									"fontname" : "Arial"
								}

							}
, 							{
								"box" : 								{
									"maxclass" : "newobj",
									"text" : "+~",
									"outlettype" : [ "signal" ],
									"fontsize" : 12.0,
									"patching_rect" : [ 106.0, 221.0, 32.5, 20.0 ],
									"id" : "obj-51",
									"numinlets" : 2,
									"numoutlets" : 1,
									"fontname" : "Arial"
								}

							}
, 							{
								"box" : 								{
									"maxclass" : "newobj",
									"text" : "*~",
									"outlettype" : [ "signal" ],
									"fontsize" : 12.0,
									"patching_rect" : [ 112.0, 194.0, 32.5, 20.0 ],
									"id" : "obj-50",
									"numinlets" : 2,
									"numoutlets" : 1,
									"fontname" : "Arial"
								}

							}
, 							{
								"box" : 								{
									"maxclass" : "newobj",
									"text" : "cycle~ 10",
									"outlettype" : [ "signal" ],
									"fontsize" : 12.0,
									"patching_rect" : [ 111.0, 144.0, 62.0, 20.0 ],
									"id" : "obj-49",
									"numinlets" : 2,
									"numoutlets" : 1,
									"fontname" : "Arial"
								}

							}
, 							{
								"box" : 								{
									"maxclass" : "inlet",
									"outlettype" : [ "" ],
									"patching_rect" : [ 73.5, 40.0, 25.0, 25.0 ],
									"id" : "obj-59",
									"numinlets" : 0,
									"numoutlets" : 1,
									"comment" : ""
								}

							}
, 							{
								"box" : 								{
									"maxclass" : "inlet",
									"outlettype" : [ "float" ],
									"patching_rect" : [ 89.0, 40.0, 25.0, 25.0 ],
									"id" : "obj-60",
									"numinlets" : 0,
									"numoutlets" : 1,
									"comment" : ""
								}

							}
, 							{
								"box" : 								{
									"maxclass" : "inlet",
									"outlettype" : [ "float" ],
									"patching_rect" : [ 111.0, 40.0, 25.0, 25.0 ],
									"id" : "obj-61",
									"numinlets" : 0,
									"numoutlets" : 1,
									"comment" : ""
								}

							}
, 							{
								"box" : 								{
									"maxclass" : "outlet",
									"patching_rect" : [ 106.0, 301.0, 25.0, 25.0 ],
									"id" : "obj-62",
									"numinlets" : 1,
									"numoutlets" : 0,
									"comment" : ""
								}

							}
 ],
						"lines" : [ 							{
								"patchline" : 								{
									"source" : [ "obj-51", 0 ],
									"destination" : [ "obj-62", 0 ],
									"hidden" : 0,
									"midpoints" : [  ]
								}

							}
, 							{
								"patchline" : 								{
									"source" : [ "obj-61", 0 ],
									"destination" : [ "obj-49", 0 ],
									"hidden" : 0,
									"midpoints" : [  ]
								}

							}
, 							{
								"patchline" : 								{
									"source" : [ "obj-60", 0 ],
									"destination" : [ "obj-53", 1 ],
									"hidden" : 0,
									"midpoints" : [  ]
								}

							}
, 							{
								"patchline" : 								{
									"source" : [ "obj-59", 0 ],
									"destination" : [ "obj-51", 0 ],
									"hidden" : 0,
									"midpoints" : [  ]
								}

							}
, 							{
								"patchline" : 								{
									"source" : [ "obj-59", 0 ],
									"destination" : [ "obj-53", 0 ],
									"hidden" : 0,
									"midpoints" : [  ]
								}

							}
, 							{
								"patchline" : 								{
									"source" : [ "obj-50", 0 ],
									"destination" : [ "obj-51", 1 ],
									"hidden" : 0,
									"midpoints" : [  ]
								}

							}
, 							{
								"patchline" : 								{
									"source" : [ "obj-56", 0 ],
									"destination" : [ "obj-50", 0 ],
									"hidden" : 0,
									"midpoints" : [  ]
								}

							}
, 							{
								"patchline" : 								{
									"source" : [ "obj-49", 0 ],
									"destination" : [ "obj-50", 1 ],
									"hidden" : 0,
									"midpoints" : [  ]
								}

							}
, 							{
								"patchline" : 								{
									"source" : [ "obj-55", 0 ],
									"destination" : [ "obj-56", 0 ],
									"hidden" : 0,
									"midpoints" : [  ]
								}

							}
, 							{
								"patchline" : 								{
									"source" : [ "obj-53", 0 ],
									"destination" : [ "obj-55", 0 ],
									"hidden" : 0,
									"midpoints" : [  ]
								}

							}
 ]
					}
,
					"saved_object_attributes" : 					{
						"default_fontsize" : 12.0,
						"fontface" : 0,
						"fontsize" : 12.0,
						"default_fontface" : 0,
						"globalpatchername" : "",
						"default_fontname" : "Helvetica",
						"fontname" : "Helvetica"
					}

				}

			}
, 			{
				"box" : 				{
					"maxclass" : "flonum",
					"outlettype" : [ "float", "bang" ],
					"fontsize" : 12.0,
					"patching_rect" : [ 386.0, 155.0, 50.0, 20.0 ],
					"id" : "obj-69",
					"numinlets" : 1,
					"numoutlets" : 2,
					"fontname" : "Arial"
				}

			}
, 			{
				"box" : 				{
					"maxclass" : "flonum",
					"outlettype" : [ "float", "bang" ],
					"fontsize" : 12.0,
					"patching_rect" : [ 382.0, 131.0, 50.0, 20.0 ],
					"id" : "obj-70",
					"numinlets" : 1,
					"numoutlets" : 2,
					"fontname" : "Arial"
				}

			}
, 			{
				"box" : 				{
					"maxclass" : "newobj",
					"text" : "mtof",
					"outlettype" : [ "" ],
					"fontsize" : 12.0,
					"patching_rect" : [ 324.0, 94.0, 34.0, 20.0 ],
					"id" : "obj-71",
					"numinlets" : 1,
					"numoutlets" : 1,
					"fontname" : "Arial"
				}

			}
, 			{
				"box" : 				{
					"maxclass" : "newobj",
					"text" : "p vib",
					"outlettype" : [ "signal" ],
					"fontsize" : 12.0,
					"patching_rect" : [ 231.0, 165.0, 46.0, 20.0 ],
					"id" : "obj-63",
					"numinlets" : 3,
					"numoutlets" : 1,
					"fontname" : "Arial",
					"patcher" : 					{
						"fileversion" : 1,
						"rect" : [ 25.0, 69.0, 640.0, 480.0 ],
						"bglocked" : 0,
						"defrect" : [ 25.0, 69.0, 640.0, 480.0 ],
						"openrect" : [ 0.0, 0.0, 0.0, 0.0 ],
						"openinpresentation" : 0,
						"default_fontsize" : 12.0,
						"default_fontface" : 0,
						"default_fontname" : "Helvetica",
						"gridonopen" : 0,
						"gridsize" : [ 15.0, 15.0 ],
						"gridsnaponopen" : 0,
						"toolbarvisible" : 1,
						"boxanimatetime" : 200,
						"imprint" : 0,
						"enablehscroll" : 1,
						"enablevscroll" : 1,
						"devicewidth" : 0.0,
						"boxes" : [ 							{
								"box" : 								{
									"maxclass" : "flonum",
									"outlettype" : [ "float", "bang" ],
									"fontsize" : 12.0,
									"patching_rect" : [ 61.0, 161.0, 50.0, 20.0 ],
									"id" : "obj-56",
									"numinlets" : 1,
									"numoutlets" : 2,
									"fontname" : "Arial"
								}

							}
, 							{
								"box" : 								{
									"maxclass" : "newobj",
									"text" : "* 0.",
									"outlettype" : [ "float" ],
									"fontsize" : 12.0,
									"patching_rect" : [ 50.0, 127.0, 32.5, 20.0 ],
									"id" : "obj-55",
									"numinlets" : 2,
									"numoutlets" : 1,
									"fontname" : "Arial"
								}

							}
, 							{
								"box" : 								{
									"maxclass" : "newobj",
									"text" : "pak 0. 0.",
									"outlettype" : [ "" ],
									"fontsize" : 12.0,
									"patching_rect" : [ 51.0, 100.0, 57.0, 20.0 ],
									"id" : "obj-53",
									"numinlets" : 2,
									"numoutlets" : 1,
									"fontname" : "Arial"
								}

							}
, 							{
								"box" : 								{
									"maxclass" : "newobj",
									"text" : "+~",
									"outlettype" : [ "signal" ],
									"fontsize" : 12.0,
									"patching_rect" : [ 106.0, 221.0, 32.5, 20.0 ],
									"id" : "obj-51",
									"numinlets" : 2,
									"numoutlets" : 1,
									"fontname" : "Arial"
								}

							}
, 							{
								"box" : 								{
									"maxclass" : "newobj",
									"text" : "*~",
									"outlettype" : [ "signal" ],
									"fontsize" : 12.0,
									"patching_rect" : [ 112.0, 194.0, 32.5, 20.0 ],
									"id" : "obj-50",
									"numinlets" : 2,
									"numoutlets" : 1,
									"fontname" : "Arial"
								}

							}
, 							{
								"box" : 								{
									"maxclass" : "newobj",
									"text" : "cycle~ 10",
									"outlettype" : [ "signal" ],
									"fontsize" : 12.0,
									"patching_rect" : [ 111.0, 144.0, 62.0, 20.0 ],
									"id" : "obj-49",
									"numinlets" : 2,
									"numoutlets" : 1,
									"fontname" : "Arial"
								}

							}
, 							{
								"box" : 								{
									"maxclass" : "inlet",
									"outlettype" : [ "" ],
									"patching_rect" : [ 73.5, 40.0, 25.0, 25.0 ],
									"id" : "obj-59",
									"numinlets" : 0,
									"numoutlets" : 1,
									"comment" : ""
								}

							}
, 							{
								"box" : 								{
									"maxclass" : "inlet",
									"outlettype" : [ "float" ],
									"patching_rect" : [ 89.0, 40.0, 25.0, 25.0 ],
									"id" : "obj-60",
									"numinlets" : 0,
									"numoutlets" : 1,
									"comment" : ""
								}

							}
, 							{
								"box" : 								{
									"maxclass" : "inlet",
									"outlettype" : [ "float" ],
									"patching_rect" : [ 111.0, 40.0, 25.0, 25.0 ],
									"id" : "obj-61",
									"numinlets" : 0,
									"numoutlets" : 1,
									"comment" : ""
								}

							}
, 							{
								"box" : 								{
									"maxclass" : "outlet",
									"patching_rect" : [ 106.0, 301.0, 25.0, 25.0 ],
									"id" : "obj-62",
									"numinlets" : 1,
									"numoutlets" : 0,
									"comment" : ""
								}

							}
 ],
						"lines" : [ 							{
								"patchline" : 								{
									"source" : [ "obj-53", 0 ],
									"destination" : [ "obj-55", 0 ],
									"hidden" : 0,
									"midpoints" : [  ]
								}

							}
, 							{
								"patchline" : 								{
									"source" : [ "obj-55", 0 ],
									"destination" : [ "obj-56", 0 ],
									"hidden" : 0,
									"midpoints" : [  ]
								}

							}
, 							{
								"patchline" : 								{
									"source" : [ "obj-49", 0 ],
									"destination" : [ "obj-50", 1 ],
									"hidden" : 0,
									"midpoints" : [  ]
								}

							}
, 							{
								"patchline" : 								{
									"source" : [ "obj-56", 0 ],
									"destination" : [ "obj-50", 0 ],
									"hidden" : 0,
									"midpoints" : [  ]
								}

							}
, 							{
								"patchline" : 								{
									"source" : [ "obj-50", 0 ],
									"destination" : [ "obj-51", 1 ],
									"hidden" : 0,
									"midpoints" : [  ]
								}

							}
, 							{
								"patchline" : 								{
									"source" : [ "obj-59", 0 ],
									"destination" : [ "obj-53", 0 ],
									"hidden" : 0,
									"midpoints" : [  ]
								}

							}
, 							{
								"patchline" : 								{
									"source" : [ "obj-59", 0 ],
									"destination" : [ "obj-51", 0 ],
									"hidden" : 0,
									"midpoints" : [  ]
								}

							}
, 							{
								"patchline" : 								{
									"source" : [ "obj-60", 0 ],
									"destination" : [ "obj-53", 1 ],
									"hidden" : 0,
									"midpoints" : [  ]
								}

							}
, 							{
								"patchline" : 								{
									"source" : [ "obj-61", 0 ],
									"destination" : [ "obj-49", 0 ],
									"hidden" : 0,
									"midpoints" : [  ]
								}

							}
, 							{
								"patchline" : 								{
									"source" : [ "obj-51", 0 ],
									"destination" : [ "obj-62", 0 ],
									"hidden" : 0,
									"midpoints" : [  ]
								}

							}
 ]
					}
,
					"saved_object_attributes" : 					{
						"default_fontsize" : 12.0,
						"fontface" : 0,
						"fontsize" : 12.0,
						"default_fontface" : 0,
						"globalpatchername" : "",
						"default_fontname" : "Helvetica",
						"fontname" : "Helvetica"
					}

				}

			}
, 			{
				"box" : 				{
					"maxclass" : "flonum",
					"outlettype" : [ "float", "bang" ],
					"fontsize" : 12.0,
					"patching_rect" : [ 261.0, 143.0, 50.0, 20.0 ],
					"id" : "obj-57",
					"numinlets" : 1,
					"numoutlets" : 2,
					"fontname" : "Arial"
				}

			}
, 			{
				"box" : 				{
					"maxclass" : "flonum",
					"outlettype" : [ "float", "bang" ],
					"fontsize" : 12.0,
					"patching_rect" : [ 246.0, 122.0, 50.0, 20.0 ],
					"id" : "obj-54",
					"numinlets" : 1,
					"numoutlets" : 2,
					"fontname" : "Arial"
				}

			}
, 			{
				"box" : 				{
					"maxclass" : "flonum",
					"outlettype" : [ "float", "bang" ],
					"fontsize" : 12.0,
					"patching_rect" : [ 28.0, 297.0, 50.0, 20.0 ],
					"id" : "obj-47",
					"numinlets" : 1,
					"numoutlets" : 2,
					"fontname" : "Arial"
				}

			}
, 			{
				"box" : 				{
					"maxclass" : "flonum",
					"outlettype" : [ "float", "bang" ],
					"fontsize" : 12.0,
					"patching_rect" : [ 27.0, 270.0, 50.0, 20.0 ],
					"id" : "obj-46",
					"numinlets" : 1,
					"numoutlets" : 2,
					"fontname" : "Arial"
				}

			}
, 			{
				"box" : 				{
					"maxclass" : "number",
					"outlettype" : [ "int", "bang" ],
					"fontsize" : 12.0,
					"patching_rect" : [ 25.0, 243.0, 50.0, 20.0 ],
					"id" : "obj-43",
					"numinlets" : 1,
					"numoutlets" : 2,
					"fontname" : "Arial"
				}

			}
, 			{
				"box" : 				{
					"maxclass" : "newobj",
					"text" : "reson~",
					"outlettype" : [ "signal" ],
					"fontsize" : 12.0,
					"patching_rect" : [ 89.0, 332.0, 59.5, 20.0 ],
					"id" : "obj-42",
					"numinlets" : 4,
					"numoutlets" : 1,
					"fontname" : "Arial"
				}

			}
, 			{
				"box" : 				{
					"maxclass" : "newobj",
					"text" : "+ 7",
					"outlettype" : [ "int" ],
					"fontsize" : 12.0,
					"patching_rect" : [ 471.0, 73.0, 32.5, 20.0 ],
					"id" : "obj-41",
					"numinlets" : 2,
					"numoutlets" : 1,
					"fontname" : "Arial"
				}

			}
, 			{
				"box" : 				{
					"maxclass" : "newobj",
					"text" : "+ 3",
					"outlettype" : [ "int" ],
					"fontsize" : 12.0,
					"patching_rect" : [ 324.0, 72.0, 32.5, 20.0 ],
					"id" : "obj-39",
					"numinlets" : 2,
					"numoutlets" : 1,
					"fontname" : "Arial"
				}

			}
, 			{
				"box" : 				{
					"maxclass" : "message",
					"text" : "setdomain $1",
					"outlettype" : [ "" ],
					"fontsize" : 12.0,
					"patching_rect" : [ 270.0, 330.0, 83.0, 18.0 ],
					"id" : "obj-38",
					"numinlets" : 2,
					"numoutlets" : 1,
					"fontname" : "Arial"
				}

			}
, 			{
				"box" : 				{
					"maxclass" : "newobj",
					"text" : "line~",
					"outlettype" : [ "signal", "bang" ],
					"fontsize" : 12.0,
					"patching_rect" : [ 293.0, 508.0, 36.0, 20.0 ],
					"id" : "obj-37",
					"numinlets" : 2,
					"numoutlets" : 2,
					"fontname" : "Arial"
				}

			}
, 			{
				"box" : 				{
					"maxclass" : "function",
					"outlettype" : [ "float", "", "", "bang" ],
					"domain" : 291.0,
					"patching_rect" : [ 233.0, 365.0, 200.0, 100.0 ],
					"id" : "obj-35",
					"numinlets" : 1,
					"numoutlets" : 4,
					"addpoints" : [ 0.0, 0.133333, 0, 57.271278, 0.6, 0, 143.952133, 0.68, 0, 212.058502, 0.546667, 0, 291.0, 0.133333, 0 ]
				}

			}
, 			{
				"box" : 				{
					"maxclass" : "newobj",
					"text" : "tri~",
					"outlettype" : [ "signal" ],
					"fontsize" : 12.0,
					"patching_rect" : [ 471.0, 202.0, 46.0, 20.0 ],
					"id" : "obj-26",
					"numinlets" : 3,
					"numoutlets" : 1,
					"fontname" : "Arial"
				}

			}
, 			{
				"box" : 				{
					"maxclass" : "newobj",
					"text" : "tri~",
					"outlettype" : [ "signal" ],
					"fontsize" : 12.0,
					"patching_rect" : [ 317.0, 215.0, 46.0, 20.0 ],
					"id" : "obj-24",
					"numinlets" : 3,
					"numoutlets" : 1,
					"fontname" : "Arial"
				}

			}
, 			{
				"box" : 				{
					"maxclass" : "newobj",
					"text" : "mtof",
					"outlettype" : [ "" ],
					"fontsize" : 12.0,
					"patching_rect" : [ 471.0, 101.0, 34.0, 20.0 ],
					"id" : "obj-21",
					"numinlets" : 1,
					"numoutlets" : 1,
					"fontname" : "Arial"
				}

			}
, 			{
				"box" : 				{
					"maxclass" : "newobj",
					"text" : "mtof",
					"outlettype" : [ "" ],
					"fontsize" : 12.0,
					"patching_rect" : [ 233.0, 56.0, 34.0, 20.0 ],
					"id" : "obj-18",
					"numinlets" : 1,
					"numoutlets" : 1,
					"fontname" : "Arial"
				}

			}
, 			{
				"box" : 				{
					"maxclass" : "kslider",
					"outlettype" : [ "int", "int" ],
					"patching_rect" : [ 359.0, 4.0, 336.0, 53.0 ],
					"id" : "obj-11",
					"numinlets" : 2,
					"numoutlets" : 2
				}

			}
, 			{
				"box" : 				{
					"maxclass" : "newobj",
					"text" : "tri~",
					"outlettype" : [ "signal" ],
					"fontsize" : 12.0,
					"patching_rect" : [ 232.0, 203.0, 46.0, 20.0 ],
					"id" : "obj-7",
					"numinlets" : 3,
					"numoutlets" : 1,
					"fontname" : "Arial"
				}

			}
, 			{
				"box" : 				{
					"maxclass" : "inlet",
					"outlettype" : [ "" ],
					"patching_rect" : [ 697.0, 102.0, 25.0, 25.0 ],
					"id" : "obj-13",
					"numinlets" : 0,
					"numoutlets" : 1,
					"comment" : "lifetime"
				}

			}
, 			{
				"box" : 				{
					"maxclass" : "newobj",
					"text" : "scale 0 120 2000 250",
					"outlettype" : [ "" ],
					"fontsize" : 12.0,
					"patching_rect" : [ 649.0, 137.0, 125.0, 20.0 ],
					"id" : "obj-6",
					"numinlets" : 6,
					"numoutlets" : 1,
					"fontname" : "Arial"
				}

			}
, 			{
				"box" : 				{
					"maxclass" : "inlet",
					"outlettype" : [ "float" ],
					"patching_rect" : [ 658.0, 104.0, 25.0, 25.0 ],
					"id" : "obj-44",
					"numinlets" : 0,
					"numoutlets" : 1,
					"comment" : "expired"
				}

			}
, 			{
				"box" : 				{
					"maxclass" : "newobj",
					"text" : "*~",
					"outlettype" : [ "signal" ],
					"fontsize" : 12.0,
					"patching_rect" : [ 79.0, 415.0, 32.5, 20.0 ],
					"id" : "obj-40",
					"numinlets" : 2,
					"numoutlets" : 1,
					"fontname" : "Arial"
				}

			}
, 			{
				"box" : 				{
					"maxclass" : "newobj",
					"text" : "+~",
					"outlettype" : [ "signal" ],
					"fontsize" : 12.0,
					"patching_rect" : [ 120.0, 378.0, 32.5, 20.0 ],
					"id" : "obj-25",
					"numinlets" : 2,
					"numoutlets" : 1,
					"fontname" : "Arial"
				}

			}
, 			{
				"box" : 				{
					"maxclass" : "message",
					"text" : "3",
					"outlettype" : [ "" ],
					"fontsize" : 12.0,
					"patching_rect" : [ 556.0, 675.0, 32.5, 18.0 ],
					"id" : "obj-14",
					"numinlets" : 2,
					"numoutlets" : 1,
					"fontname" : "Arial"
				}

			}
, 			{
				"box" : 				{
					"maxclass" : "newobj",
					"text" : "loadbang",
					"outlettype" : [ "bang" ],
					"fontsize" : 12.0,
					"patching_rect" : [ 556.0, 646.0, 60.0, 20.0 ],
					"id" : "obj-3",
					"numinlets" : 1,
					"numoutlets" : 1,
					"fontname" : "Arial"
				}

			}
, 			{
				"box" : 				{
					"maxclass" : "newobj",
					"text" : "r loadbang",
					"outlettype" : [ "" ],
					"fontsize" : 12.0,
					"patching_rect" : [ 556.0, 618.0, 67.0, 20.0 ],
					"id" : "obj-2",
					"numinlets" : 0,
					"numoutlets" : 1,
					"fontname" : "Arial"
				}

			}
, 			{
				"box" : 				{
					"maxclass" : "preset",
					"outlettype" : [ "preset", "int", "preset", "int" ],
					"patching_rect" : [ 556.0, 704.0, 100.0, 40.0 ],
					"id" : "obj-1",
					"numinlets" : 1,
					"numoutlets" : 4,
					"preset_data" : [ 						{
							"number" : 1,
							"data" : [ 5, "<invalid>", "filtergraph~", "nfilters", 5, 9, "<invalid>", "filtergraph~", "setoptions", 4, 7, 1, 0, 0, 8, "<invalid>", "filtergraph~", "params", 4, 7997.625488, 0.042341, 1.200354, 9, "<invalid>", "filtergraph~", "setoptions", 3, 5, 1, 0, 0, 8, "<invalid>", "filtergraph~", "params", 3, 2367.174561, 0.374833, 1.198664, 9, "<invalid>", "filtergraph~", "setoptions", 2, 5, 1, 0, 0, 8, "<invalid>", "filtergraph~", "params", 2, 5800.489746, 1.080309, 1.225469, 9, "<invalid>", "filtergraph~", "setoptions", 1, 5, 1, 0, 0, 8, "<invalid>", "filtergraph~", "params", 1, 161.849777, 2.081829, 1.694217, 9, "<invalid>", "filtergraph~", "setoptions", 0, 6, 1, 1, 0, 8, "<invalid>", "filtergraph~", "params", 0, 52.48645, 0.80695, 1.130219, 6, "obj-4", "gain~", "list", 138, 10.0, 5, "obj-43", "flonum", "float", 174.61412, 5, "<invalid>", "number", "int", 53, 4, "<invalid>", "function", "clear", 7, "<invalid>", "function", "add", 0.0, 0.0, 0, 7, "<invalid>", "function", "add", 16.0, 0.866667, 0, 7, "<invalid>", "function", "add", 148.936172, 0.16, 2, 7, "<invalid>", "function", "add", 276.595734, 0.0, 0, 5, "<invalid>", "function", "domain", 309.0, 6, "<invalid>", "function", "range", 0.0, 1.0, 5, "obj-10", "toggle", "int", 1, 5, "obj-12", "number", "int", 309 ]
						}
, 						{
							"number" : 2,
							"data" : [ 6, "obj-4", "gain~", "list", 144, 10.0, 5, "obj-43", "flonum", "float", 3.641904, 5, "<invalid>", "number", "int", -14, 5, "obj-10", "toggle", "int", 1, 5, "obj-12", "number", "int", 1310, 5, "obj-46", "flonum", "float", 0.924776 ]
						}
, 						{
							"number" : 3,
							"data" : [ 6, "obj-4", "gain~", "list", 135, 10.0, 5, "obj-10", "toggle", "int", 1, 5, "obj-12", "number", "int", 2000, 5, "obj-11", "kslider", "int", 47, 4, "obj-35", "function", "clear", 7, "obj-35", "function", "add", 0.0, 0.133333, 0, 7, "obj-35", "function", "add", 393.617035, 0.6, 0, 7, "obj-35", "function", "add", 989.361694, 0.68, 0, 7, "obj-35", "function", "add", 1457.446777, 0.546667, 0, 7, "obj-35", "function", "add", 2000.0, 0.133333, 0, 5, "obj-35", "function", "domain", 2000.0, 6, "obj-35", "function", "range", 0.0, 1.0, 5, "obj-43", "number", "int", 119, 5, "obj-46", "flonum", "float", 4.38, 5, "obj-47", "flonum", "float", 4.3, 5, "obj-54", "flonum", "float", 0.01, 5, "obj-57", "flonum", "float", 10.0, 5, "obj-70", "flonum", "float", 0.01, 5, "obj-69", "flonum", "float", 10.0, 5, "obj-75", "number~", "list", 0.0 ]
						}
 ]
				}

			}
, 			{
				"box" : 				{
					"maxclass" : "inlet",
					"outlettype" : [ "int" ],
					"patching_rect" : [ 22.0, 17.0, 25.0, 25.0 ],
					"id" : "obj-23",
					"numinlets" : 0,
					"numoutlets" : 1,
					"comment" : "onoff"
				}

			}
, 			{
				"box" : 				{
					"maxclass" : "outlet",
					"patching_rect" : [ 54.0, 743.0, 25.0, 25.0 ],
					"id" : "obj-22",
					"numinlets" : 1,
					"numoutlets" : 0,
					"comment" : ""
				}

			}
, 			{
				"box" : 				{
					"maxclass" : "number",
					"outlettype" : [ "int", "bang" ],
					"minimum" : 250,
					"fontsize" : 12.0,
					"patching_rect" : [ 52.0, 32.0, 64.0, 20.0 ],
					"id" : "obj-12",
					"numinlets" : 1,
					"numoutlets" : 2,
					"fontname" : "Arial"
				}

			}
, 			{
				"box" : 				{
					"maxclass" : "toggle",
					"outlettype" : [ "int" ],
					"patching_rect" : [ 22.0, 47.0, 20.0, 20.0 ],
					"id" : "obj-10",
					"numinlets" : 1,
					"numoutlets" : 1
				}

			}
, 			{
				"box" : 				{
					"maxclass" : "newobj",
					"text" : "metro 250",
					"outlettype" : [ "bang" ],
					"fontsize" : 12.0,
					"patching_rect" : [ 22.0, 73.0, 65.0, 20.0 ],
					"id" : "obj-9",
					"numinlets" : 2,
					"numoutlets" : 1,
					"fontname" : "Arial"
				}

			}
, 			{
				"box" : 				{
					"maxclass" : "button",
					"outlettype" : [ "bang" ],
					"patching_rect" : [ 24.0, 97.0, 20.0, 20.0 ],
					"id" : "obj-5",
					"numinlets" : 1,
					"numoutlets" : 1
				}

			}
, 			{
				"box" : 				{
					"maxclass" : "gain~",
					"outlettype" : [ "signal", "int" ],
					"patching_rect" : [ 56.0, 624.0, 19.0, 111.0 ],
					"id" : "obj-4",
					"numinlets" : 2,
					"orientation" : 2,
					"numoutlets" : 2
				}

			}
 ],
		"lines" : [ 			{
				"patchline" : 				{
					"source" : [ "obj-27", 0 ],
					"destination" : [ "obj-29", 0 ],
					"hidden" : 0,
					"midpoints" : [  ]
				}

			}
, 			{
				"patchline" : 				{
					"source" : [ "obj-29", 0 ],
					"destination" : [ "obj-11", 0 ],
					"hidden" : 0,
					"midpoints" : [  ]
				}

			}
, 			{
				"patchline" : 				{
					"source" : [ "obj-187", 0 ],
					"destination" : [ "obj-87", 1 ],
					"hidden" : 0,
					"midpoints" : [  ]
				}

			}
, 			{
				"patchline" : 				{
					"source" : [ "obj-16", 0 ],
					"destination" : [ "obj-187", 0 ],
					"hidden" : 0,
					"midpoints" : [  ]
				}

			}
, 			{
				"patchline" : 				{
					"source" : [ "obj-15", 0 ],
					"destination" : [ "obj-16", 0 ],
					"hidden" : 0,
					"midpoints" : [  ]
				}

			}
, 			{
				"patchline" : 				{
					"source" : [ "obj-97", 0 ],
					"destination" : [ "obj-87", 2 ],
					"hidden" : 0,
					"midpoints" : [ 535.5, 508.5, 465.5, 508.5 ]
				}

			}
, 			{
				"patchline" : 				{
					"source" : [ "obj-77", 0 ],
					"destination" : [ "obj-87", 3 ],
					"hidden" : 0,
					"midpoints" : [  ]
				}

			}
, 			{
				"patchline" : 				{
					"source" : [ "obj-40", 0 ],
					"destination" : [ "obj-4", 0 ],
					"hidden" : 0,
					"midpoints" : [  ]
				}

			}
, 			{
				"patchline" : 				{
					"source" : [ "obj-91", 0 ],
					"destination" : [ "obj-97", 0 ],
					"hidden" : 0,
					"midpoints" : [  ]
				}

			}
, 			{
				"patchline" : 				{
					"source" : [ "obj-85", 0 ],
					"destination" : [ "obj-37", 0 ],
					"hidden" : 0,
					"midpoints" : [  ]
				}

			}
, 			{
				"patchline" : 				{
					"source" : [ "obj-86", 0 ],
					"destination" : [ "obj-85", 0 ],
					"hidden" : 0,
					"midpoints" : [  ]
				}

			}
, 			{
				"patchline" : 				{
					"source" : [ "obj-10", 0 ],
					"destination" : [ "obj-86", 0 ],
					"hidden" : 0,
					"midpoints" : [  ]
				}

			}
, 			{
				"patchline" : 				{
					"source" : [ "obj-84", 0 ],
					"destination" : [ "obj-26", 0 ],
					"hidden" : 0,
					"midpoints" : [  ]
				}

			}
, 			{
				"patchline" : 				{
					"source" : [ "obj-21", 0 ],
					"destination" : [ "obj-83", 0 ],
					"hidden" : 0,
					"midpoints" : [  ]
				}

			}
, 			{
				"patchline" : 				{
					"source" : [ "obj-83", 0 ],
					"destination" : [ "obj-84", 0 ],
					"hidden" : 0,
					"midpoints" : [  ]
				}

			}
, 			{
				"patchline" : 				{
					"source" : [ "obj-80", 0 ],
					"destination" : [ "obj-68", 0 ],
					"hidden" : 0,
					"midpoints" : [  ]
				}

			}
, 			{
				"patchline" : 				{
					"source" : [ "obj-71", 0 ],
					"destination" : [ "obj-79", 0 ],
					"hidden" : 0,
					"midpoints" : [  ]
				}

			}
, 			{
				"patchline" : 				{
					"source" : [ "obj-79", 0 ],
					"destination" : [ "obj-80", 0 ],
					"hidden" : 0,
					"midpoints" : [  ]
				}

			}
, 			{
				"patchline" : 				{
					"source" : [ "obj-77", 0 ],
					"destination" : [ "obj-63", 0 ],
					"hidden" : 0,
					"midpoints" : [  ]
				}

			}
, 			{
				"patchline" : 				{
					"source" : [ "obj-78", 0 ],
					"destination" : [ "obj-77", 0 ],
					"hidden" : 0,
					"midpoints" : [  ]
				}

			}
, 			{
				"patchline" : 				{
					"source" : [ "obj-18", 0 ],
					"destination" : [ "obj-78", 0 ],
					"hidden" : 0,
					"midpoints" : [  ]
				}

			}
, 			{
				"patchline" : 				{
					"source" : [ "obj-39", 0 ],
					"destination" : [ "obj-71", 0 ],
					"hidden" : 0,
					"midpoints" : [  ]
				}

			}
, 			{
				"patchline" : 				{
					"source" : [ "obj-11", 0 ],
					"destination" : [ "obj-39", 0 ],
					"hidden" : 0,
					"midpoints" : [  ]
				}

			}
, 			{
				"patchline" : 				{
					"source" : [ "obj-74", 0 ],
					"destination" : [ "obj-75", 0 ],
					"hidden" : 0,
					"midpoints" : [  ]
				}

			}
, 			{
				"patchline" : 				{
					"source" : [ "obj-76", 0 ],
					"destination" : [ "obj-43", 0 ],
					"hidden" : 0,
					"midpoints" : [  ]
				}

			}
, 			{
				"patchline" : 				{
					"source" : [ "obj-75", 1 ],
					"destination" : [ "obj-76", 0 ],
					"hidden" : 0,
					"midpoints" : [  ]
				}

			}
, 			{
				"patchline" : 				{
					"source" : [ "obj-24", 0 ],
					"destination" : [ "obj-25", 1 ],
					"hidden" : 0,
					"midpoints" : [  ]
				}

			}
, 			{
				"patchline" : 				{
					"source" : [ "obj-26", 0 ],
					"destination" : [ "obj-25", 1 ],
					"hidden" : 0,
					"midpoints" : [  ]
				}

			}
, 			{
				"patchline" : 				{
					"source" : [ "obj-68", 0 ],
					"destination" : [ "obj-24", 0 ],
					"hidden" : 0,
					"midpoints" : [  ]
				}

			}
, 			{
				"patchline" : 				{
					"source" : [ "obj-69", 0 ],
					"destination" : [ "obj-68", 2 ],
					"hidden" : 0,
					"midpoints" : [  ]
				}

			}
, 			{
				"patchline" : 				{
					"source" : [ "obj-70", 0 ],
					"destination" : [ "obj-68", 1 ],
					"hidden" : 0,
					"midpoints" : [  ]
				}

			}
, 			{
				"patchline" : 				{
					"source" : [ "obj-54", 0 ],
					"destination" : [ "obj-63", 1 ],
					"hidden" : 0,
					"midpoints" : [  ]
				}

			}
, 			{
				"patchline" : 				{
					"source" : [ "obj-57", 0 ],
					"destination" : [ "obj-63", 2 ],
					"hidden" : 0,
					"midpoints" : [  ]
				}

			}
, 			{
				"patchline" : 				{
					"source" : [ "obj-63", 0 ],
					"destination" : [ "obj-7", 0 ],
					"hidden" : 0,
					"midpoints" : [  ]
				}

			}
, 			{
				"patchline" : 				{
					"source" : [ "obj-47", 0 ],
					"destination" : [ "obj-42", 3 ],
					"hidden" : 0,
					"midpoints" : [  ]
				}

			}
, 			{
				"patchline" : 				{
					"source" : [ "obj-46", 0 ],
					"destination" : [ "obj-42", 1 ],
					"hidden" : 0,
					"midpoints" : [  ]
				}

			}
, 			{
				"patchline" : 				{
					"source" : [ "obj-42", 0 ],
					"destination" : [ "obj-25", 0 ],
					"hidden" : 0,
					"midpoints" : [  ]
				}

			}
, 			{
				"patchline" : 				{
					"source" : [ "obj-43", 0 ],
					"destination" : [ "obj-42", 2 ],
					"hidden" : 0,
					"midpoints" : [  ]
				}

			}
, 			{
				"patchline" : 				{
					"source" : [ "obj-7", 0 ],
					"destination" : [ "obj-42", 0 ],
					"hidden" : 0,
					"midpoints" : [  ]
				}

			}
, 			{
				"patchline" : 				{
					"source" : [ "obj-11", 0 ],
					"destination" : [ "obj-41", 0 ],
					"hidden" : 0,
					"midpoints" : [  ]
				}

			}
, 			{
				"patchline" : 				{
					"source" : [ "obj-41", 0 ],
					"destination" : [ "obj-21", 0 ],
					"hidden" : 0,
					"midpoints" : [  ]
				}

			}
, 			{
				"patchline" : 				{
					"source" : [ "obj-12", 0 ],
					"destination" : [ "obj-38", 0 ],
					"hidden" : 0,
					"midpoints" : [  ]
				}

			}
, 			{
				"patchline" : 				{
					"source" : [ "obj-38", 0 ],
					"destination" : [ "obj-35", 0 ],
					"hidden" : 0,
					"midpoints" : [  ]
				}

			}
, 			{
				"patchline" : 				{
					"source" : [ "obj-37", 0 ],
					"destination" : [ "obj-40", 1 ],
					"hidden" : 0,
					"midpoints" : [  ]
				}

			}
, 			{
				"patchline" : 				{
					"source" : [ "obj-35", 1 ],
					"destination" : [ "obj-37", 0 ],
					"hidden" : 0,
					"midpoints" : [  ]
				}

			}
, 			{
				"patchline" : 				{
					"source" : [ "obj-5", 0 ],
					"destination" : [ "obj-35", 0 ],
					"hidden" : 0,
					"midpoints" : [  ]
				}

			}
, 			{
				"patchline" : 				{
					"source" : [ "obj-25", 0 ],
					"destination" : [ "obj-40", 0 ],
					"hidden" : 0,
					"midpoints" : [  ]
				}

			}
, 			{
				"patchline" : 				{
					"source" : [ "obj-11", 0 ],
					"destination" : [ "obj-18", 0 ],
					"hidden" : 0,
					"midpoints" : [  ]
				}

			}
, 			{
				"patchline" : 				{
					"source" : [ "obj-14", 0 ],
					"destination" : [ "obj-1", 0 ],
					"hidden" : 0,
					"midpoints" : [  ]
				}

			}
, 			{
				"patchline" : 				{
					"source" : [ "obj-3", 0 ],
					"destination" : [ "obj-14", 0 ],
					"hidden" : 0,
					"midpoints" : [  ]
				}

			}
, 			{
				"patchline" : 				{
					"source" : [ "obj-2", 0 ],
					"destination" : [ "obj-3", 0 ],
					"hidden" : 0,
					"midpoints" : [  ]
				}

			}
, 			{
				"patchline" : 				{
					"source" : [ "obj-9", 0 ],
					"destination" : [ "obj-5", 0 ],
					"hidden" : 0,
					"midpoints" : [  ]
				}

			}
, 			{
				"patchline" : 				{
					"source" : [ "obj-10", 0 ],
					"destination" : [ "obj-9", 0 ],
					"hidden" : 0,
					"midpoints" : [  ]
				}

			}
, 			{
				"patchline" : 				{
					"source" : [ "obj-12", 0 ],
					"destination" : [ "obj-9", 1 ],
					"hidden" : 0,
					"midpoints" : [  ]
				}

			}
, 			{
				"patchline" : 				{
					"source" : [ "obj-23", 0 ],
					"destination" : [ "obj-10", 0 ],
					"hidden" : 0,
					"midpoints" : [  ]
				}

			}
, 			{
				"patchline" : 				{
					"source" : [ "obj-8", 0 ],
					"destination" : [ "obj-91", 0 ],
					"hidden" : 0,
					"midpoints" : [  ]
				}

			}
, 			{
				"patchline" : 				{
					"source" : [ "obj-4", 0 ],
					"destination" : [ "obj-22", 0 ],
					"hidden" : 0,
					"midpoints" : [  ]
				}

			}
, 			{
				"patchline" : 				{
					"source" : [ "obj-8", 0 ],
					"destination" : [ "obj-85", 0 ],
					"hidden" : 0,
					"midpoints" : [  ]
				}

			}
, 			{
				"patchline" : 				{
					"source" : [ "obj-10", 0 ],
					"destination" : [ "obj-17", 0 ],
					"hidden" : 0,
					"midpoints" : [  ]
				}

			}
, 			{
				"patchline" : 				{
					"source" : [ "obj-8", 0 ],
					"destination" : [ "obj-19", 0 ],
					"hidden" : 0,
					"midpoints" : [  ]
				}

			}
, 			{
				"patchline" : 				{
					"source" : [ "obj-19", 0 ],
					"destination" : [ "obj-17", 0 ],
					"hidden" : 0,
					"midpoints" : [  ]
				}

			}
, 			{
				"patchline" : 				{
					"source" : [ "obj-87", 0 ],
					"destination" : [ "obj-17", 1 ],
					"hidden" : 0,
					"midpoints" : [ 405.5, 687.0, 257.0, 687.0, 257.0, 572.0, 108.5, 572.0 ]
				}

			}
, 			{
				"patchline" : 				{
					"source" : [ "obj-17", 0 ],
					"destination" : [ "obj-4", 0 ],
					"hidden" : 0,
					"midpoints" : [  ]
				}

			}
, 			{
				"patchline" : 				{
					"source" : [ "obj-20", 0 ],
					"destination" : [ "obj-27", 0 ],
					"hidden" : 0,
					"midpoints" : [  ]
				}

			}
, 			{
				"patchline" : 				{
					"source" : [ "obj-11", 0 ],
					"destination" : [ "obj-28", 0 ],
					"hidden" : 0,
					"midpoints" : [  ]
				}

			}
, 			{
				"patchline" : 				{
					"source" : [ "obj-30", 0 ],
					"destination" : [ "obj-31", 0 ],
					"hidden" : 0,
					"midpoints" : [  ]
				}

			}
, 			{
				"patchline" : 				{
					"source" : [ "obj-32", 0 ],
					"destination" : [ "obj-30", 0 ],
					"hidden" : 0,
					"midpoints" : [  ]
				}

			}
, 			{
				"patchline" : 				{
					"source" : [ "obj-8", 0 ],
					"destination" : [ "obj-32", 0 ],
					"hidden" : 0,
					"midpoints" : [  ]
				}

			}
, 			{
				"patchline" : 				{
					"source" : [ "obj-10", 0 ],
					"destination" : [ "obj-87", 0 ],
					"hidden" : 0,
					"midpoints" : [ 31.5, 545.0, 405.5, 545.0 ]
				}

			}
, 			{
				"patchline" : 				{
					"source" : [ "obj-44", 0 ],
					"destination" : [ "obj-6", 0 ],
					"hidden" : 0,
					"midpoints" : [  ]
				}

			}
, 			{
				"patchline" : 				{
					"source" : [ "obj-13", 0 ],
					"destination" : [ "obj-6", 2 ],
					"hidden" : 0,
					"midpoints" : [  ]
				}

			}
, 			{
				"patchline" : 				{
					"source" : [ "obj-6", 0 ],
					"destination" : [ "obj-12", 0 ],
					"hidden" : 0,
					"midpoints" : [  ]
				}

			}
 ]
	}

}
