{
	"patcher" : 	{
		"fileversion" : 1,
		"rect" : [ 263.0, 62.0, 1188.0, 801.0 ],
		"bglocked" : 0,
		"defrect" : [ 263.0, 62.0, 1188.0, 801.0 ],
		"openrect" : [ 0.0, 0.0, 0.0, 0.0 ],
		"openinpresentation" : 0,
		"default_fontsize" : 12.0,
		"default_fontface" : 0,
		"default_fontname" : "Arial",
		"gridonopen" : 0,
		"gridsize" : [ 15.0, 15.0 ],
		"gridsnaponopen" : 0,
		"toolbarvisible" : 1,
		"boxanimatetime" : 200,
		"imprint" : 0,
		"enablehscroll" : 1,
		"enablevscroll" : 1,
		"devicewidth" : 0.0,
		"boxes" : [ 			{
				"box" : 				{
					"maxclass" : "preset",
					"patching_rect" : [ 666.0, 751.0, 100.0, 40.0 ],
					"id" : "obj-51",
					"numinlets" : 1,
					"numoutlets" : 4,
					"outlettype" : [ "preset", "int", "preset", "int" ],
					"preset_data" : [ 						{
							"number" : 1,
							"data" : [ 5, "obj-31", "toggle", "int", 1, 5, "obj-8", "flonum", "float", 3093.696289, 6, "obj-56", "gain~", "list", 51, 10.0, 5, "obj-70", "flonum", "float", -2717.1875, 6, "obj-34", "gain~", "list", 44, 10.0, 5, "obj-40", "flonum", "float", 51.962879, 5, "obj-44", "flonum", "float", 5694.417969, 5, "obj-42", "flonum", "float", 44.058273, 5, "obj-46", "flonum", "float", -2717.1875, 5, "obj-47", "flonum", "float", -5013.342285, 5, "obj-49", "flonum", "float", -717.1875, 5, "obj-48", "flonum", "float", -3013.342285, 5, "obj-6", "flonum", "float", 0.868654, 5, "obj-37", "flonum", "float", 10.0, 5, "obj-36", "flonum", "float", 218.0, 5, "obj-35", "flonum", "float", 0.45, 5, "obj-11", "flonum", "float", 251.0, 5, "obj-10", "flonum", "float", 0.0 ]
						}
 ]
				}

			}
, 			{
				"box" : 				{
					"maxclass" : "newobj",
					"text" : "delay 300",
					"patching_rect" : [ 284.0, 612.0, 63.0, 20.0 ],
					"id" : "obj-19",
					"fontname" : "Arial",
					"numinlets" : 2,
					"numoutlets" : 1,
					"fontsize" : 12.0,
					"outlettype" : [ "bang" ]
				}

			}
, 			{
				"box" : 				{
					"maxclass" : "button",
					"patching_rect" : [ 178.0, 632.0, 20.0, 20.0 ],
					"id" : "obj-18",
					"numinlets" : 1,
					"numoutlets" : 1,
					"outlettype" : [ "bang" ]
				}

			}
, 			{
				"box" : 				{
					"maxclass" : "newobj",
					"text" : "*~",
					"patching_rect" : [ 400.0, 740.0, 32.5, 20.0 ],
					"id" : "obj-17",
					"fontname" : "Arial",
					"numinlets" : 2,
					"numoutlets" : 1,
					"fontsize" : 12.0,
					"outlettype" : [ "signal" ]
				}

			}
, 			{
				"box" : 				{
					"maxclass" : "newobj",
					"text" : "metro 1000",
					"patching_rect" : [ 189.0, 576.0, 71.0, 20.0 ],
					"id" : "obj-14",
					"fontname" : "Arial",
					"numinlets" : 2,
					"numoutlets" : 1,
					"fontsize" : 12.0,
					"outlettype" : [ "bang" ]
				}

			}
, 			{
				"box" : 				{
					"maxclass" : "comment",
					"text" : "release (ms)",
					"patching_rect" : [ 467.0, 667.553162, 73.0, 20.0 ],
					"id" : "obj-20",
					"fontname" : "Arial",
					"numinlets" : 1,
					"numoutlets" : 0,
					"fontsize" : 11.595187
				}

			}
, 			{
				"box" : 				{
					"maxclass" : "comment",
					"text" : "sustain (factor of amplitude - ie, 0.6 = 60%)",
					"patching_rect" : [ 452.0, 643.96167, 230.0, 20.0 ],
					"id" : "obj-21",
					"fontname" : "Arial",
					"numinlets" : 1,
					"numoutlets" : 0,
					"fontsize" : 11.595187
				}

			}
, 			{
				"box" : 				{
					"maxclass" : "comment",
					"text" : "decay (ms)",
					"patching_rect" : [ 438.0, 620.370239, 66.0, 20.0 ],
					"id" : "obj-22",
					"fontname" : "Arial",
					"numinlets" : 1,
					"numoutlets" : 0,
					"fontsize" : 11.595187
				}

			}
, 			{
				"box" : 				{
					"maxclass" : "flonum",
					"patching_rect" : [ 214.0, 651.974487, 50.0, 20.0 ],
					"id" : "obj-10",
					"fontname" : "Arial",
					"numinlets" : 1,
					"numoutlets" : 2,
					"fontsize" : 11.595187,
					"outlettype" : [ "float", "bang" ]
				}

			}
, 			{
				"box" : 				{
					"maxclass" : "flonum",
					"patching_rect" : [ 415.0, 667.553162, 50.0, 20.0 ],
					"id" : "obj-11",
					"fontname" : "Arial",
					"numinlets" : 1,
					"numoutlets" : 2,
					"fontsize" : 11.595187,
					"outlettype" : [ "float", "bang" ]
				}

			}
, 			{
				"box" : 				{
					"maxclass" : "flonum",
					"patching_rect" : [ 401.0, 643.96167, 50.0, 20.0 ],
					"id" : "obj-35",
					"fontname" : "Arial",
					"numinlets" : 1,
					"numoutlets" : 2,
					"fontsize" : 11.595187,
					"outlettype" : [ "float", "bang" ]
				}

			}
, 			{
				"box" : 				{
					"maxclass" : "flonum",
					"patching_rect" : [ 387.0, 620.370239, 50.0, 20.0 ],
					"id" : "obj-36",
					"fontname" : "Arial",
					"numinlets" : 1,
					"numoutlets" : 2,
					"fontsize" : 11.595187,
					"outlettype" : [ "float", "bang" ]
				}

			}
, 			{
				"box" : 				{
					"maxclass" : "flonum",
					"patching_rect" : [ 373.0, 596.778687, 50.0, 20.0 ],
					"id" : "obj-37",
					"fontname" : "Arial",
					"numinlets" : 1,
					"numoutlets" : 2,
					"fontsize" : 11.595187,
					"outlettype" : [ "float", "bang" ]
				}

			}
, 			{
				"box" : 				{
					"maxclass" : "message",
					"text" : "0",
					"patching_rect" : [ 331.0, 658.974487, 18.0, 18.0 ],
					"id" : "obj-38",
					"fontname" : "Arial",
					"numinlets" : 2,
					"numoutlets" : 1,
					"fontsize" : 11.595187,
					"outlettype" : [ "" ]
				}

			}
, 			{
				"box" : 				{
					"maxclass" : "message",
					"text" : "1",
					"patching_rect" : [ 291.0, 658.974487, 32.5, 18.0 ],
					"id" : "obj-12",
					"fontname" : "Arial",
					"numinlets" : 2,
					"numoutlets" : 1,
					"fontsize" : 11.595187,
					"outlettype" : [ "" ]
				}

			}
, 			{
				"box" : 				{
					"maxclass" : "newobj",
					"text" : "adsr~",
					"patching_rect" : [ 359.0, 694.0, 75.0, 20.0 ],
					"id" : "obj-41",
					"fontname" : "Arial",
					"numinlets" : 5,
					"numoutlets" : 4,
					"fontsize" : 11.595187,
					"outlettype" : [ "signal", "signal", "", "" ]
				}

			}
, 			{
				"box" : 				{
					"maxclass" : "comment",
					"text" : "attack (ms)",
					"patching_rect" : [ 422.0, 596.778687, 66.0, 20.0 ],
					"id" : "obj-13",
					"fontname" : "Arial",
					"numinlets" : 1,
					"numoutlets" : 0,
					"fontsize" : 11.595187
				}

			}
, 			{
				"box" : 				{
					"maxclass" : "flonum",
					"patching_rect" : [ 119.0, 314.0, 50.0, 20.0 ],
					"id" : "obj-6",
					"fontname" : "Arial",
					"numinlets" : 1,
					"numoutlets" : 2,
					"fontsize" : 12.0,
					"outlettype" : [ "float", "bang" ]
				}

			}
, 			{
				"box" : 				{
					"maxclass" : "newobj",
					"text" : "expr -.125+($f1*-1+1.)/2.",
					"patching_rect" : [ 118.0, 278.5, 142.0, 20.0 ],
					"id" : "obj-2",
					"fontname" : "Arial",
					"numinlets" : 1,
					"numoutlets" : 1,
					"fontsize" : 12.0,
					"outlettype" : [ "" ]
				}

			}
, 			{
				"box" : 				{
					"maxclass" : "newobj",
					"text" : "/ 3.14",
					"patching_rect" : [ 119.0, 250.0, 41.0, 20.0 ],
					"id" : "obj-4",
					"fontname" : "Arial",
					"numinlets" : 2,
					"numoutlets" : 1,
					"fontsize" : 12.0,
					"outlettype" : [ "float" ]
				}

			}
, 			{
				"box" : 				{
					"maxclass" : "flonum",
					"patching_rect" : [ 517.0, 319.0, 50.0, 20.0 ],
					"id" : "obj-48",
					"fontname" : "Arial",
					"numinlets" : 1,
					"numoutlets" : 2,
					"fontsize" : 12.0,
					"outlettype" : [ "float", "bang" ]
				}

			}
, 			{
				"box" : 				{
					"maxclass" : "flonum",
					"patching_rect" : [ 557.0, 349.0, 50.0, 20.0 ],
					"id" : "obj-49",
					"fontname" : "Arial",
					"numinlets" : 1,
					"numoutlets" : 2,
					"fontsize" : 12.0,
					"outlettype" : [ "float", "bang" ]
				}

			}
, 			{
				"box" : 				{
					"maxclass" : "flonum",
					"patching_rect" : [ 691.0, 381.0, 50.0, 20.0 ],
					"id" : "obj-47",
					"fontname" : "Arial",
					"numinlets" : 1,
					"numoutlets" : 2,
					"fontsize" : 12.0,
					"outlettype" : [ "float", "bang" ]
				}

			}
, 			{
				"box" : 				{
					"maxclass" : "flonum",
					"patching_rect" : [ 731.0, 411.0, 50.0, 20.0 ],
					"id" : "obj-46",
					"fontname" : "Arial",
					"numinlets" : 1,
					"numoutlets" : 2,
					"fontsize" : 12.0,
					"outlettype" : [ "float", "bang" ]
				}

			}
, 			{
				"box" : 				{
					"maxclass" : "flonum",
					"patching_rect" : [ 879.0, 369.0, 50.0, 20.0 ],
					"id" : "obj-42",
					"fontname" : "Arial",
					"numinlets" : 1,
					"numoutlets" : 2,
					"fontsize" : 12.0,
					"outlettype" : [ "float", "bang" ]
				}

			}
, 			{
				"box" : 				{
					"maxclass" : "newobj",
					"text" : "expr 70.-3.*log($f1)",
					"patching_rect" : [ 881.0, 339.0, 113.0, 20.0 ],
					"id" : "obj-43",
					"fontname" : "Arial",
					"numinlets" : 1,
					"numoutlets" : 1,
					"fontsize" : 12.0,
					"outlettype" : [ "" ]
				}

			}
, 			{
				"box" : 				{
					"maxclass" : "flonum",
					"patching_rect" : [ 881.0, 305.0, 50.0, 20.0 ],
					"id" : "obj-44",
					"fontname" : "Arial",
					"numinlets" : 1,
					"numoutlets" : 2,
					"fontsize" : 12.0,
					"outlettype" : [ "float", "bang" ]
				}

			}
, 			{
				"box" : 				{
					"maxclass" : "newobj",
					"text" : "expr sqrt($f1*$f1+$f2*$f2)",
					"patching_rect" : [ 876.0, 276.0, 148.0, 20.0 ],
					"id" : "obj-45",
					"fontname" : "Arial",
					"numinlets" : 2,
					"numoutlets" : 1,
					"fontsize" : 12.0,
					"outlettype" : [ "" ]
				}

			}
, 			{
				"box" : 				{
					"maxclass" : "flonum",
					"patching_rect" : [ 459.0, 486.0, 50.0, 20.0 ],
					"id" : "obj-40",
					"fontname" : "Arial",
					"numinlets" : 1,
					"numoutlets" : 2,
					"fontsize" : 12.0,
					"outlettype" : [ "float", "bang" ]
				}

			}
, 			{
				"box" : 				{
					"maxclass" : "newobj",
					"text" : "expr 60.-log($f1)",
					"patching_rect" : [ 461.0, 456.0, 99.0, 20.0 ],
					"id" : "obj-39",
					"fontname" : "Arial",
					"numinlets" : 1,
					"numoutlets" : 1,
					"fontsize" : 12.0,
					"outlettype" : [ "" ]
				}

			}
, 			{
				"box" : 				{
					"maxclass" : "newobj",
					"text" : "cycle~ 120",
					"patching_rect" : [ 854.0, 412.0, 68.0, 20.0 ],
					"id" : "obj-27",
					"fontname" : "Arial",
					"numinlets" : 2,
					"numoutlets" : 1,
					"fontsize" : 12.0,
					"outlettype" : [ "signal" ]
				}

			}
, 			{
				"box" : 				{
					"maxclass" : "newobj",
					"text" : "p objx",
					"patching_rect" : [ 830.0, 528.5, 46.0, 20.0 ],
					"id" : "obj-28",
					"fontname" : "Arial",
					"numinlets" : 3,
					"numoutlets" : 0,
					"fontsize" : 12.0,
					"patcher" : 					{
						"fileversion" : 1,
						"rect" : [ 406.0, 167.0, 640.0, 480.0 ],
						"bglocked" : 0,
						"defrect" : [ 406.0, 167.0, 640.0, 480.0 ],
						"openrect" : [ 0.0, 0.0, 0.0, 0.0 ],
						"openinpresentation" : 0,
						"default_fontsize" : 12.0,
						"default_fontface" : 0,
						"default_fontname" : "Arial",
						"gridonopen" : 0,
						"gridsize" : [ 15.0, 15.0 ],
						"gridsnaponopen" : 0,
						"toolbarvisible" : 1,
						"boxanimatetime" : 200,
						"imprint" : 0,
						"enablehscroll" : 1,
						"enablevscroll" : 1,
						"devicewidth" : 0.0,
						"boxes" : [ 							{
								"box" : 								{
									"maxclass" : "flonum",
									"patching_rect" : [ 67.0, 323.0, 50.0, 20.0 ],
									"id" : "obj-3",
									"fontname" : "Arial",
									"numinlets" : 1,
									"numoutlets" : 2,
									"fontsize" : 12.0,
									"outlettype" : [ "float", "bang" ]
								}

							}
, 							{
								"box" : 								{
									"maxclass" : "newobj",
									"text" : "/ 3.14",
									"patching_rect" : [ 67.0, 271.0, 41.0, 20.0 ],
									"id" : "obj-1",
									"fontname" : "Arial",
									"numinlets" : 2,
									"numoutlets" : 1,
									"fontsize" : 12.0,
									"outlettype" : [ "float" ]
								}

							}
, 							{
								"box" : 								{
									"maxclass" : "flonum",
									"patching_rect" : [ 275.0, 156.5, 50.0, 20.0 ],
									"id" : "obj-57",
									"fontname" : "Arial",
									"numinlets" : 1,
									"numoutlets" : 2,
									"fontsize" : 12.0,
									"outlettype" : [ "float", "bang" ]
								}

							}
, 							{
								"box" : 								{
									"maxclass" : "newobj",
									"text" : "line~",
									"patching_rect" : [ 292.0, 206.5, 37.0, 20.0 ],
									"id" : "obj-15",
									"fontname" : "Arial",
									"numinlets" : 2,
									"numoutlets" : 2,
									"fontsize" : 12.0,
									"outlettype" : [ "signal", "bang" ]
								}

							}
, 							{
								"box" : 								{
									"maxclass" : "newobj",
									"text" : "maximum 0.",
									"patching_rect" : [ 170.0, 171.5, 76.0, 20.0 ],
									"id" : "obj-53",
									"fontname" : "Arial",
									"numinlets" : 2,
									"numoutlets" : 2,
									"fontsize" : 12.0,
									"outlettype" : [ "float", "int" ]
								}

							}
, 							{
								"box" : 								{
									"maxclass" : "flonum",
									"patching_rect" : [ 171.0, 141.5, 50.0, 20.0 ],
									"id" : "obj-52",
									"fontname" : "Arial",
									"numinlets" : 1,
									"numoutlets" : 2,
									"fontsize" : 12.0,
									"outlettype" : [ "float", "bang" ]
								}

							}
, 							{
								"box" : 								{
									"maxclass" : "newobj",
									"text" : "expr -.125+($f1*-1+1.)/2.",
									"patching_rect" : [ 173.0, 106.5, 142.0, 20.0 ],
									"id" : "obj-51",
									"fontname" : "Arial",
									"numinlets" : 1,
									"numoutlets" : 1,
									"fontsize" : 12.0,
									"outlettype" : [ "" ]
								}

							}
, 							{
								"box" : 								{
									"maxclass" : "comment",
									"text" : "right rear",
									"linecount" : 2,
									"patching_rect" : [ 303.0, 353.5, 38.0, 34.0 ],
									"id" : "obj-46",
									"fontname" : "Arial",
									"numinlets" : 1,
									"numoutlets" : 0,
									"fontface" : 1,
									"fontsize" : 12.0
								}

							}
, 							{
								"box" : 								{
									"maxclass" : "comment",
									"text" : "left rear",
									"linecount" : 2,
									"patching_rect" : [ 254.0, 353.5, 31.0, 34.0 ],
									"id" : "obj-45",
									"fontname" : "Arial",
									"numinlets" : 1,
									"numoutlets" : 0,
									"fontface" : 1,
									"fontsize" : 12.0
								}

							}
, 							{
								"box" : 								{
									"maxclass" : "comment",
									"text" : "right front",
									"linecount" : 2,
									"patching_rect" : [ 202.0, 353.5, 38.0, 34.0 ],
									"id" : "obj-44",
									"fontname" : "Arial",
									"numinlets" : 1,
									"numoutlets" : 0,
									"fontface" : 1,
									"fontsize" : 12.0
								}

							}
, 							{
								"box" : 								{
									"maxclass" : "comment",
									"text" : "left front",
									"linecount" : 2,
									"patching_rect" : [ 148.0, 353.5, 39.0, 34.0 ],
									"id" : "obj-43",
									"fontname" : "Arial",
									"numinlets" : 1,
									"numoutlets" : 0,
									"fontface" : 1,
									"fontsize" : 12.0
								}

							}
, 							{
								"box" : 								{
									"maxclass" : "newobj",
									"text" : "dac~ 1 2 3 4",
									"patching_rect" : [ 144.0, 329.5, 181.0, 20.0 ],
									"id" : "obj-41",
									"fontname" : "Arial",
									"numinlets" : 4,
									"numoutlets" : 0,
									"fontsize" : 12.0
								}

							}
, 							{
								"box" : 								{
									"maxclass" : "meter~",
									"patching_rect" : [ 314.0, 262.5, 16.0, 58.0 ],
									"id" : "obj-42",
									"numinlets" : 1,
									"numoutlets" : 1,
									"outlettype" : [ "float" ]
								}

							}
, 							{
								"box" : 								{
									"maxclass" : "meter~",
									"patching_rect" : [ 262.0, 262.5, 16.0, 58.0 ],
									"id" : "obj-47",
									"numinlets" : 1,
									"numoutlets" : 1,
									"outlettype" : [ "float" ]
								}

							}
, 							{
								"box" : 								{
									"maxclass" : "meter~",
									"patching_rect" : [ 210.0, 262.5, 16.0, 58.0 ],
									"id" : "obj-48",
									"numinlets" : 1,
									"numoutlets" : 1,
									"outlettype" : [ "float" ]
								}

							}
, 							{
								"box" : 								{
									"maxclass" : "meter~",
									"patching_rect" : [ 158.0, 262.5, 16.0, 58.0 ],
									"id" : "obj-49",
									"numinlets" : 1,
									"numoutlets" : 1,
									"outlettype" : [ "float" ]
								}

							}
, 							{
								"box" : 								{
									"maxclass" : "newobj",
									"text" : "pan4S",
									"patching_rect" : [ 143.0, 237.5, 181.0, 20.0 ],
									"id" : "obj-50",
									"fontname" : "Arial",
									"numinlets" : 2,
									"color" : [ 0.811765, 0.372549, 0.372549, 1.0 ],
									"numoutlets" : 4,
									"fontsize" : 12.0,
									"outlettype" : [ "signal", "signal", "signal", "signal" ]
								}

							}
, 							{
								"box" : 								{
									"maxclass" : "flonum",
									"patching_rect" : [ 72.0, 193.5, 50.0, 20.0 ],
									"id" : "obj-6",
									"fontname" : "Arial",
									"numinlets" : 1,
									"numoutlets" : 2,
									"fontsize" : 12.0,
									"outlettype" : [ "float", "bang" ]
								}

							}
, 							{
								"box" : 								{
									"maxclass" : "newobj",
									"text" : "atan2",
									"patching_rect" : [ 50.0, 134.5, 41.0, 20.0 ],
									"id" : "obj-4",
									"fontname" : "Arial",
									"numinlets" : 2,
									"numoutlets" : 1,
									"fontsize" : 12.0,
									"outlettype" : [ "float" ]
								}

							}
, 							{
								"box" : 								{
									"maxclass" : "inlet",
									"patching_rect" : [ 50.0, 40.0, 25.0, 25.0 ],
									"id" : "obj-81",
									"numinlets" : 0,
									"numoutlets" : 1,
									"outlettype" : [ "" ],
									"comment" : ""
								}

							}
, 							{
								"box" : 								{
									"maxclass" : "inlet",
									"patching_rect" : [ 72.0, 40.0, 25.0, 25.0 ],
									"id" : "obj-82",
									"numinlets" : 0,
									"numoutlets" : 1,
									"outlettype" : [ "" ],
									"comment" : ""
								}

							}
, 							{
								"box" : 								{
									"maxclass" : "inlet",
									"patching_rect" : [ 143.0, 52.0, 25.0, 25.0 ],
									"id" : "obj-83",
									"numinlets" : 0,
									"numoutlets" : 1,
									"outlettype" : [ "signal" ],
									"comment" : ""
								}

							}
 ],
						"lines" : [ 							{
								"patchline" : 								{
									"source" : [ "obj-1", 0 ],
									"destination" : [ "obj-51", 0 ],
									"hidden" : 0,
									"midpoints" : [  ]
								}

							}
, 							{
								"patchline" : 								{
									"source" : [ "obj-51", 0 ],
									"destination" : [ "obj-52", 0 ],
									"hidden" : 0,
									"midpoints" : [  ]
								}

							}
, 							{
								"patchline" : 								{
									"source" : [ "obj-6", 0 ],
									"destination" : [ "obj-1", 0 ],
									"hidden" : 0,
									"midpoints" : [  ]
								}

							}
, 							{
								"patchline" : 								{
									"source" : [ "obj-1", 0 ],
									"destination" : [ "obj-3", 0 ],
									"hidden" : 0,
									"midpoints" : [  ]
								}

							}
, 							{
								"patchline" : 								{
									"source" : [ "obj-50", 3 ],
									"destination" : [ "obj-41", 3 ],
									"hidden" : 0,
									"midpoints" : [  ]
								}

							}
, 							{
								"patchline" : 								{
									"source" : [ "obj-50", 2 ],
									"destination" : [ "obj-41", 2 ],
									"hidden" : 0,
									"midpoints" : [  ]
								}

							}
, 							{
								"patchline" : 								{
									"source" : [ "obj-50", 1 ],
									"destination" : [ "obj-41", 1 ],
									"hidden" : 0,
									"midpoints" : [  ]
								}

							}
, 							{
								"patchline" : 								{
									"source" : [ "obj-50", 0 ],
									"destination" : [ "obj-41", 0 ],
									"hidden" : 0,
									"midpoints" : [  ]
								}

							}
, 							{
								"patchline" : 								{
									"source" : [ "obj-4", 0 ],
									"destination" : [ "obj-6", 0 ],
									"hidden" : 0,
									"midpoints" : [  ]
								}

							}
, 							{
								"patchline" : 								{
									"source" : [ "obj-50", 0 ],
									"destination" : [ "obj-49", 0 ],
									"hidden" : 0,
									"midpoints" : [ 152.5, 260.5, 167.5, 260.5 ]
								}

							}
, 							{
								"patchline" : 								{
									"source" : [ "obj-50", 1 ],
									"destination" : [ "obj-48", 0 ],
									"hidden" : 0,
									"midpoints" : [ 206.5, 260.5, 219.5, 260.5 ]
								}

							}
, 							{
								"patchline" : 								{
									"source" : [ "obj-50", 2 ],
									"destination" : [ "obj-47", 0 ],
									"hidden" : 0,
									"midpoints" : [ 260.5, 259.5, 271.5, 259.5 ]
								}

							}
, 							{
								"patchline" : 								{
									"source" : [ "obj-50", 3 ],
									"destination" : [ "obj-42", 0 ],
									"hidden" : 0,
									"midpoints" : [ 314.5, 260.5, 323.5, 260.5 ]
								}

							}
, 							{
								"patchline" : 								{
									"source" : [ "obj-52", 0 ],
									"destination" : [ "obj-53", 0 ],
									"hidden" : 0,
									"midpoints" : [  ]
								}

							}
, 							{
								"patchline" : 								{
									"source" : [ "obj-15", 0 ],
									"destination" : [ "obj-50", 1 ],
									"hidden" : 0,
									"midpoints" : [  ]
								}

							}
, 							{
								"patchline" : 								{
									"source" : [ "obj-57", 0 ],
									"destination" : [ "obj-15", 0 ],
									"hidden" : 0,
									"midpoints" : [  ]
								}

							}
, 							{
								"patchline" : 								{
									"source" : [ "obj-53", 0 ],
									"destination" : [ "obj-57", 0 ],
									"hidden" : 0,
									"midpoints" : [  ]
								}

							}
, 							{
								"patchline" : 								{
									"source" : [ "obj-81", 0 ],
									"destination" : [ "obj-4", 0 ],
									"hidden" : 0,
									"midpoints" : [  ]
								}

							}
, 							{
								"patchline" : 								{
									"source" : [ "obj-82", 0 ],
									"destination" : [ "obj-4", 1 ],
									"hidden" : 0,
									"midpoints" : [  ]
								}

							}
, 							{
								"patchline" : 								{
									"source" : [ "obj-83", 0 ],
									"destination" : [ "obj-50", 0 ],
									"hidden" : 0,
									"midpoints" : [  ]
								}

							}
 ]
					}
,
					"saved_object_attributes" : 					{
						"default_fontsize" : 12.0,
						"fontname" : "Arial",
						"default_fontface" : 0,
						"globalpatchername" : "",
						"default_fontname" : "Arial",
						"fontface" : 0,
						"fontsize" : 12.0
					}

				}

			}
, 			{
				"box" : 				{
					"maxclass" : "gain~",
					"patching_rect" : [ 855.0, 460.0, 154.0, 24.0 ],
					"id" : "obj-34",
					"numinlets" : 2,
					"numoutlets" : 2,
					"outlettype" : [ "signal", "int" ]
				}

			}
, 			{
				"box" : 				{
					"maxclass" : "newobj",
					"text" : "route dx dy",
					"patching_rect" : [ 730.0, 344.0, 70.0, 20.0 ],
					"id" : "obj-26",
					"fontname" : "Arial",
					"numinlets" : 1,
					"numoutlets" : 3,
					"fontsize" : 12.0,
					"outlettype" : [ "", "", "" ]
				}

			}
, 			{
				"box" : 				{
					"maxclass" : "newobj",
					"text" : "route dx dy",
					"patching_rect" : [ 623.0, 346.0, 70.0, 20.0 ],
					"id" : "obj-25",
					"fontname" : "Arial",
					"numinlets" : 1,
					"numoutlets" : 3,
					"fontsize" : 12.0,
					"outlettype" : [ "", "", "" ]
				}

			}
, 			{
				"box" : 				{
					"maxclass" : "newobj",
					"text" : "pack i s f",
					"patching_rect" : [ 681.0, 274.0, 58.0, 20.0 ],
					"id" : "obj-16",
					"fontname" : "Arial",
					"numinlets" : 3,
					"numoutlets" : 1,
					"fontsize" : 12.0,
					"outlettype" : [ "" ]
				}

			}
, 			{
				"box" : 				{
					"maxclass" : "newobj",
					"text" : "cycle~ 340",
					"patching_rect" : [ 656.0, 413.0, 68.0, 20.0 ],
					"id" : "obj-86",
					"fontname" : "Arial",
					"numinlets" : 2,
					"numoutlets" : 1,
					"fontsize" : 12.0,
					"outlettype" : [ "signal" ]
				}

			}
, 			{
				"box" : 				{
					"maxclass" : "ezdac~",
					"patching_rect" : [ 155.0, 457.0, 45.0, 45.0 ],
					"id" : "obj-85",
					"numinlets" : 2,
					"numoutlets" : 0
				}

			}
, 			{
				"box" : 				{
					"maxclass" : "newobj",
					"text" : "p objx",
					"patching_rect" : [ 632.0, 529.5, 46.0, 20.0 ],
					"id" : "obj-84",
					"fontname" : "Arial",
					"numinlets" : 4,
					"numoutlets" : 0,
					"fontsize" : 12.0,
					"patcher" : 					{
						"fileversion" : 1,
						"rect" : [ 159.0, 92.0, 640.0, 480.0 ],
						"bglocked" : 0,
						"defrect" : [ 159.0, 92.0, 640.0, 480.0 ],
						"openrect" : [ 0.0, 0.0, 0.0, 0.0 ],
						"openinpresentation" : 0,
						"default_fontsize" : 12.0,
						"default_fontface" : 0,
						"default_fontname" : "Arial",
						"gridonopen" : 0,
						"gridsize" : [ 15.0, 15.0 ],
						"gridsnaponopen" : 0,
						"toolbarvisible" : 1,
						"boxanimatetime" : 200,
						"imprint" : 0,
						"enablehscroll" : 1,
						"enablevscroll" : 1,
						"devicewidth" : 0.0,
						"visible" : 1,
						"boxes" : [ 							{
								"box" : 								{
									"maxclass" : "inlet",
									"patching_rect" : [ 429.0, 51.0, 25.0, 25.0 ],
									"id" : "obj-7",
									"numinlets" : 0,
									"numoutlets" : 1,
									"outlettype" : [ "float" ],
									"comment" : ""
								}

							}
, 							{
								"box" : 								{
									"maxclass" : "newobj",
									"text" : "expr $f1+$f2",
									"patching_rect" : [ 424.0, 160.0, 78.0, 20.0 ],
									"id" : "obj-2",
									"fontname" : "Arial",
									"numinlets" : 2,
									"numoutlets" : 1,
									"fontsize" : 12.0,
									"outlettype" : [ "" ]
								}

							}
, 							{
								"box" : 								{
									"maxclass" : "newobj",
									"text" : "expr -.125+($f1*-1+1.)/2.",
									"patching_rect" : [ 243.0, 75.5, 142.0, 20.0 ],
									"id" : "obj-5",
									"fontname" : "Arial",
									"numinlets" : 1,
									"numoutlets" : 1,
									"fontsize" : 12.0,
									"outlettype" : [ "" ]
								}

							}
, 							{
								"box" : 								{
									"maxclass" : "flonum",
									"patching_rect" : [ 79.0, 347.0, 50.0, 20.0 ],
									"id" : "obj-3",
									"fontname" : "Arial",
									"numinlets" : 1,
									"numoutlets" : 2,
									"fontsize" : 12.0,
									"outlettype" : [ "float", "bang" ]
								}

							}
, 							{
								"box" : 								{
									"maxclass" : "newobj",
									"text" : "/ 3.14",
									"patching_rect" : [ 80.0, 294.0, 41.0, 20.0 ],
									"id" : "obj-1",
									"fontname" : "Arial",
									"numinlets" : 2,
									"numoutlets" : 1,
									"fontsize" : 12.0,
									"outlettype" : [ "float" ]
								}

							}
, 							{
								"box" : 								{
									"maxclass" : "flonum",
									"patching_rect" : [ 275.0, 156.5, 50.0, 20.0 ],
									"id" : "obj-57",
									"fontname" : "Arial",
									"numinlets" : 1,
									"numoutlets" : 2,
									"fontsize" : 12.0,
									"outlettype" : [ "float", "bang" ]
								}

							}
, 							{
								"box" : 								{
									"maxclass" : "newobj",
									"text" : "line~",
									"patching_rect" : [ 292.0, 206.5, 37.0, 20.0 ],
									"id" : "obj-15",
									"fontname" : "Arial",
									"numinlets" : 2,
									"numoutlets" : 2,
									"fontsize" : 12.0,
									"outlettype" : [ "signal", "bang" ]
								}

							}
, 							{
								"box" : 								{
									"maxclass" : "newobj",
									"text" : "maximum 0.",
									"patching_rect" : [ 170.0, 171.5, 76.0, 20.0 ],
									"id" : "obj-53",
									"fontname" : "Arial",
									"numinlets" : 2,
									"numoutlets" : 2,
									"fontsize" : 12.0,
									"outlettype" : [ "float", "int" ]
								}

							}
, 							{
								"box" : 								{
									"maxclass" : "flonum",
									"patching_rect" : [ 171.0, 141.5, 50.0, 20.0 ],
									"id" : "obj-52",
									"fontname" : "Arial",
									"numinlets" : 1,
									"numoutlets" : 2,
									"fontsize" : 12.0,
									"outlettype" : [ "float", "bang" ]
								}

							}
, 							{
								"box" : 								{
									"maxclass" : "comment",
									"text" : "right rear",
									"linecount" : 2,
									"patching_rect" : [ 303.0, 353.5, 38.0, 34.0 ],
									"id" : "obj-46",
									"fontname" : "Arial",
									"numinlets" : 1,
									"numoutlets" : 0,
									"fontface" : 1,
									"fontsize" : 12.0
								}

							}
, 							{
								"box" : 								{
									"maxclass" : "comment",
									"text" : "left rear",
									"linecount" : 2,
									"patching_rect" : [ 254.0, 353.5, 31.0, 34.0 ],
									"id" : "obj-45",
									"fontname" : "Arial",
									"numinlets" : 1,
									"numoutlets" : 0,
									"fontface" : 1,
									"fontsize" : 12.0
								}

							}
, 							{
								"box" : 								{
									"maxclass" : "comment",
									"text" : "right front",
									"linecount" : 2,
									"patching_rect" : [ 202.0, 353.5, 38.0, 34.0 ],
									"id" : "obj-44",
									"fontname" : "Arial",
									"numinlets" : 1,
									"numoutlets" : 0,
									"fontface" : 1,
									"fontsize" : 12.0
								}

							}
, 							{
								"box" : 								{
									"maxclass" : "comment",
									"text" : "left front",
									"linecount" : 2,
									"patching_rect" : [ 148.0, 353.5, 39.0, 34.0 ],
									"id" : "obj-43",
									"fontname" : "Arial",
									"numinlets" : 1,
									"numoutlets" : 0,
									"fontface" : 1,
									"fontsize" : 12.0
								}

							}
, 							{
								"box" : 								{
									"maxclass" : "newobj",
									"text" : "dac~ 1 2 3 4",
									"patching_rect" : [ 144.0, 329.5, 181.0, 20.0 ],
									"id" : "obj-41",
									"fontname" : "Arial",
									"numinlets" : 4,
									"numoutlets" : 0,
									"fontsize" : 12.0
								}

							}
, 							{
								"box" : 								{
									"maxclass" : "meter~",
									"patching_rect" : [ 314.0, 262.5, 16.0, 58.0 ],
									"id" : "obj-42",
									"numinlets" : 1,
									"numoutlets" : 1,
									"outlettype" : [ "float" ]
								}

							}
, 							{
								"box" : 								{
									"maxclass" : "meter~",
									"patching_rect" : [ 262.0, 262.5, 16.0, 58.0 ],
									"id" : "obj-47",
									"numinlets" : 1,
									"numoutlets" : 1,
									"outlettype" : [ "float" ]
								}

							}
, 							{
								"box" : 								{
									"maxclass" : "meter~",
									"patching_rect" : [ 210.0, 262.5, 16.0, 58.0 ],
									"id" : "obj-48",
									"numinlets" : 1,
									"numoutlets" : 1,
									"outlettype" : [ "float" ]
								}

							}
, 							{
								"box" : 								{
									"maxclass" : "meter~",
									"patching_rect" : [ 158.0, 262.5, 16.0, 58.0 ],
									"id" : "obj-49",
									"numinlets" : 1,
									"numoutlets" : 1,
									"outlettype" : [ "float" ]
								}

							}
, 							{
								"box" : 								{
									"maxclass" : "newobj",
									"text" : "pan4S",
									"patching_rect" : [ 143.0, 237.5, 181.0, 20.0 ],
									"id" : "obj-50",
									"fontname" : "Arial",
									"numinlets" : 2,
									"color" : [ 0.811765, 0.372549, 0.372549, 1.0 ],
									"numoutlets" : 4,
									"fontsize" : 12.0,
									"outlettype" : [ "signal", "signal", "signal", "signal" ]
								}

							}
, 							{
								"box" : 								{
									"maxclass" : "flonum",
									"patching_rect" : [ 72.0, 193.5, 50.0, 20.0 ],
									"id" : "obj-6",
									"fontname" : "Arial",
									"numinlets" : 1,
									"numoutlets" : 2,
									"fontsize" : 12.0,
									"outlettype" : [ "float", "bang" ]
								}

							}
, 							{
								"box" : 								{
									"maxclass" : "newobj",
									"text" : "atan2",
									"patching_rect" : [ 50.0, 134.5, 41.0, 20.0 ],
									"id" : "obj-4",
									"fontname" : "Arial",
									"numinlets" : 2,
									"numoutlets" : 1,
									"fontsize" : 12.0,
									"outlettype" : [ "float" ]
								}

							}
, 							{
								"box" : 								{
									"maxclass" : "inlet",
									"patching_rect" : [ 50.0, 40.0, 25.0, 25.0 ],
									"id" : "obj-81",
									"numinlets" : 0,
									"numoutlets" : 1,
									"outlettype" : [ "" ],
									"comment" : ""
								}

							}
, 							{
								"box" : 								{
									"maxclass" : "inlet",
									"patching_rect" : [ 72.0, 40.0, 25.0, 25.0 ],
									"id" : "obj-82",
									"numinlets" : 0,
									"numoutlets" : 1,
									"outlettype" : [ "" ],
									"comment" : ""
								}

							}
, 							{
								"box" : 								{
									"maxclass" : "inlet",
									"patching_rect" : [ 143.0, 52.0, 25.0, 25.0 ],
									"id" : "obj-83",
									"numinlets" : 0,
									"numoutlets" : 1,
									"outlettype" : [ "signal" ],
									"comment" : ""
								}

							}
 ],
						"lines" : [ 							{
								"patchline" : 								{
									"source" : [ "obj-50", 3 ],
									"destination" : [ "obj-41", 1 ],
									"hidden" : 0,
									"midpoints" : [  ]
								}

							}
, 							{
								"patchline" : 								{
									"source" : [ "obj-50", 2 ],
									"destination" : [ "obj-41", 0 ],
									"hidden" : 0,
									"midpoints" : [  ]
								}

							}
, 							{
								"patchline" : 								{
									"source" : [ "obj-1", 0 ],
									"destination" : [ "obj-5", 0 ],
									"hidden" : 0,
									"midpoints" : [  ]
								}

							}
, 							{
								"patchline" : 								{
									"source" : [ "obj-1", 0 ],
									"destination" : [ "obj-3", 0 ],
									"hidden" : 0,
									"midpoints" : [  ]
								}

							}
, 							{
								"patchline" : 								{
									"source" : [ "obj-6", 0 ],
									"destination" : [ "obj-1", 0 ],
									"hidden" : 0,
									"midpoints" : [  ]
								}

							}
, 							{
								"patchline" : 								{
									"source" : [ "obj-83", 0 ],
									"destination" : [ "obj-50", 0 ],
									"hidden" : 0,
									"midpoints" : [  ]
								}

							}
, 							{
								"patchline" : 								{
									"source" : [ "obj-82", 0 ],
									"destination" : [ "obj-4", 1 ],
									"hidden" : 0,
									"midpoints" : [  ]
								}

							}
, 							{
								"patchline" : 								{
									"source" : [ "obj-81", 0 ],
									"destination" : [ "obj-4", 0 ],
									"hidden" : 0,
									"midpoints" : [  ]
								}

							}
, 							{
								"patchline" : 								{
									"source" : [ "obj-53", 0 ],
									"destination" : [ "obj-57", 0 ],
									"hidden" : 0,
									"midpoints" : [  ]
								}

							}
, 							{
								"patchline" : 								{
									"source" : [ "obj-57", 0 ],
									"destination" : [ "obj-15", 0 ],
									"hidden" : 0,
									"midpoints" : [  ]
								}

							}
, 							{
								"patchline" : 								{
									"source" : [ "obj-15", 0 ],
									"destination" : [ "obj-50", 1 ],
									"hidden" : 0,
									"midpoints" : [  ]
								}

							}
, 							{
								"patchline" : 								{
									"source" : [ "obj-52", 0 ],
									"destination" : [ "obj-53", 0 ],
									"hidden" : 0,
									"midpoints" : [  ]
								}

							}
, 							{
								"patchline" : 								{
									"source" : [ "obj-50", 3 ],
									"destination" : [ "obj-42", 0 ],
									"hidden" : 0,
									"midpoints" : [ 314.5, 260.5, 323.5, 260.5 ]
								}

							}
, 							{
								"patchline" : 								{
									"source" : [ "obj-50", 2 ],
									"destination" : [ "obj-47", 0 ],
									"hidden" : 0,
									"midpoints" : [ 260.5, 259.5, 271.5, 259.5 ]
								}

							}
, 							{
								"patchline" : 								{
									"source" : [ "obj-50", 1 ],
									"destination" : [ "obj-48", 0 ],
									"hidden" : 0,
									"midpoints" : [ 206.5, 260.5, 219.5, 260.5 ]
								}

							}
, 							{
								"patchline" : 								{
									"source" : [ "obj-50", 0 ],
									"destination" : [ "obj-49", 0 ],
									"hidden" : 0,
									"midpoints" : [ 152.5, 260.5, 167.5, 260.5 ]
								}

							}
, 							{
								"patchline" : 								{
									"source" : [ "obj-4", 0 ],
									"destination" : [ "obj-6", 0 ],
									"hidden" : 0,
									"midpoints" : [  ]
								}

							}
, 							{
								"patchline" : 								{
									"source" : [ "obj-50", 0 ],
									"destination" : [ "obj-41", 0 ],
									"hidden" : 0,
									"midpoints" : [  ]
								}

							}
, 							{
								"patchline" : 								{
									"source" : [ "obj-50", 1 ],
									"destination" : [ "obj-41", 1 ],
									"hidden" : 0,
									"midpoints" : [  ]
								}

							}
, 							{
								"patchline" : 								{
									"source" : [ "obj-50", 2 ],
									"destination" : [ "obj-41", 2 ],
									"hidden" : 0,
									"midpoints" : [  ]
								}

							}
, 							{
								"patchline" : 								{
									"source" : [ "obj-50", 3 ],
									"destination" : [ "obj-41", 3 ],
									"hidden" : 0,
									"midpoints" : [  ]
								}

							}
, 							{
								"patchline" : 								{
									"source" : [ "obj-5", 0 ],
									"destination" : [ "obj-2", 0 ],
									"hidden" : 0,
									"midpoints" : [  ]
								}

							}
, 							{
								"patchline" : 								{
									"source" : [ "obj-2", 0 ],
									"destination" : [ "obj-52", 0 ],
									"hidden" : 0,
									"midpoints" : [  ]
								}

							}
, 							{
								"patchline" : 								{
									"source" : [ "obj-7", 0 ],
									"destination" : [ "obj-2", 1 ],
									"hidden" : 0,
									"midpoints" : [  ]
								}

							}
 ]
					}
,
					"saved_object_attributes" : 					{
						"default_fontsize" : 12.0,
						"fontname" : "Arial",
						"default_fontface" : 0,
						"globalpatchername" : "",
						"default_fontname" : "Arial",
						"fontface" : 0,
						"fontsize" : 12.0
					}

				}

			}
, 			{
				"box" : 				{
					"maxclass" : "newobj",
					"text" : "route 4 5",
					"patching_rect" : [ 682.0, 312.0, 58.0, 20.0 ],
					"id" : "obj-80",
					"fontname" : "Arial",
					"numinlets" : 1,
					"numoutlets" : 3,
					"fontsize" : 12.0,
					"outlettype" : [ "", "", "" ]
				}

			}
, 			{
				"box" : 				{
					"maxclass" : "message",
					"text" : "dy",
					"patching_rect" : [ 664.0, 234.0, 50.0, 18.0 ],
					"id" : "obj-76",
					"fontname" : "Arial",
					"numinlets" : 2,
					"numoutlets" : 1,
					"fontsize" : 12.0,
					"outlettype" : [ "" ]
				}

			}
, 			{
				"box" : 				{
					"maxclass" : "newobj",
					"text" : "prepend set",
					"patching_rect" : [ 655.0, 200.0, 74.0, 20.0 ],
					"id" : "obj-77",
					"fontname" : "Arial",
					"numinlets" : 1,
					"numoutlets" : 1,
					"fontsize" : 12.0,
					"outlettype" : [ "" ]
				}

			}
, 			{
				"box" : 				{
					"maxclass" : "message",
					"text" : "5",
					"patching_rect" : [ 571.0, 237.0, 50.0, 18.0 ],
					"id" : "obj-75",
					"fontname" : "Arial",
					"numinlets" : 2,
					"numoutlets" : 1,
					"fontsize" : 12.0,
					"outlettype" : [ "" ]
				}

			}
, 			{
				"box" : 				{
					"maxclass" : "newobj",
					"text" : "prepend set",
					"patching_rect" : [ 562.0, 203.0, 74.0, 20.0 ],
					"id" : "obj-74",
					"fontname" : "Arial",
					"numinlets" : 1,
					"numoutlets" : 1,
					"fontsize" : 12.0,
					"outlettype" : [ "" ]
				}

			}
, 			{
				"box" : 				{
					"maxclass" : "flonum",
					"patching_rect" : [ 750.0, 233.0, 97.0, 20.0 ],
					"id" : "obj-70",
					"fontname" : "Arial",
					"numinlets" : 1,
					"numoutlets" : 2,
					"fontsize" : 12.0,
					"outlettype" : [ "float", "bang" ]
				}

			}
, 			{
				"box" : 				{
					"maxclass" : "newobj",
					"text" : "unpack i s",
					"patching_rect" : [ 567.0, 172.0, 65.0, 20.0 ],
					"id" : "obj-69",
					"fontname" : "Arial",
					"numinlets" : 1,
					"numoutlets" : 2,
					"fontsize" : 12.0,
					"outlettype" : [ "int", "" ]
				}

			}
, 			{
				"box" : 				{
					"maxclass" : "newobj",
					"text" : "unpack s f",
					"patching_rect" : [ 544.0, 57.0, 65.0, 20.0 ],
					"id" : "obj-66",
					"fontname" : "Arial",
					"numinlets" : 1,
					"numoutlets" : 2,
					"fontsize" : 12.0,
					"outlettype" : [ "", "float" ]
				}

			}
, 			{
				"box" : 				{
					"maxclass" : "newobj",
					"text" : "regexp \\\\/([\\\\d])\\\\/(dx|dy)",
					"patching_rect" : [ 539.0, 143.0, 135.0, 20.0 ],
					"id" : "obj-65",
					"fontname" : "Arial",
					"numinlets" : 1,
					"numoutlets" : 5,
					"fontsize" : 12.0,
					"outlettype" : [ "", "", "", "", "" ]
				}

			}
, 			{
				"box" : 				{
					"maxclass" : "gain~",
					"patching_rect" : [ 663.0, 466.0, 154.0, 24.0 ],
					"id" : "obj-56",
					"numinlets" : 2,
					"numoutlets" : 2,
					"outlettype" : [ "signal", "int" ]
				}

			}
, 			{
				"box" : 				{
					"maxclass" : "flonum",
					"patching_rect" : [ 461.0, 422.0, 50.0, 20.0 ],
					"id" : "obj-8",
					"fontname" : "Arial",
					"numinlets" : 1,
					"numoutlets" : 2,
					"fontsize" : 12.0,
					"outlettype" : [ "float", "bang" ]
				}

			}
, 			{
				"box" : 				{
					"maxclass" : "newobj",
					"text" : "expr sqrt($f1*$f1+$f2*$f2)",
					"patching_rect" : [ 456.0, 393.0, 148.0, 20.0 ],
					"id" : "obj-7",
					"fontname" : "Arial",
					"numinlets" : 2,
					"numoutlets" : 1,
					"fontsize" : 12.0,
					"outlettype" : [ "" ]
				}

			}
, 			{
				"box" : 				{
					"maxclass" : "message",
					"text" : "1",
					"patching_rect" : [ 359.0, 114.0, 32.5, 18.0 ],
					"id" : "obj-33",
					"fontname" : "Arial",
					"numinlets" : 2,
					"numoutlets" : 1,
					"fontsize" : 12.0,
					"outlettype" : [ "" ]
				}

			}
, 			{
				"box" : 				{
					"maxclass" : "message",
					"text" : "0",
					"patching_rect" : [ 401.0, 114.0, 32.5, 18.0 ],
					"id" : "obj-32",
					"fontname" : "Arial",
					"numinlets" : 2,
					"numoutlets" : 1,
					"fontsize" : 12.0,
					"outlettype" : [ "" ]
				}

			}
, 			{
				"box" : 				{
					"maxclass" : "toggle",
					"patching_rect" : [ 401.0, 143.0, 20.0, 20.0 ],
					"id" : "obj-31",
					"numinlets" : 1,
					"numoutlets" : 1,
					"outlettype" : [ "int" ]
				}

			}
, 			{
				"box" : 				{
					"maxclass" : "newobj",
					"text" : "loadbang",
					"patching_rect" : [ 262.0, 60.0, 60.0, 20.0 ],
					"id" : "obj-29",
					"fontname" : "Arial",
					"numinlets" : 1,
					"numoutlets" : 1,
					"fontsize" : 12.0,
					"outlettype" : [ "bang" ]
				}

			}
, 			{
				"box" : 				{
					"maxclass" : "newobj",
					"text" : "OSC-route /center /start /stop /obj /rot",
					"patching_rect" : [ 52.0, 68.0, 211.0, 20.0 ],
					"id" : "obj-1",
					"fontname" : "Arial",
					"numinlets" : 1,
					"numoutlets" : 6,
					"fontsize" : 12.0,
					"outlettype" : [ "", "", "", "", "", "" ]
				}

			}
, 			{
				"box" : 				{
					"maxclass" : "newobj",
					"text" : "OSC-route /skels",
					"patching_rect" : [ 53.0, 39.0, 102.0, 20.0 ],
					"id" : "obj-5",
					"fontname" : "Arial",
					"numinlets" : 1,
					"numoutlets" : 2,
					"fontsize" : 12.0,
					"outlettype" : [ "", "" ]
				}

			}
, 			{
				"box" : 				{
					"maxclass" : "newobj",
					"text" : "udpreceive 9000",
					"patching_rect" : [ 54.0, 12.0, 99.0, 20.0 ],
					"id" : "obj-3",
					"fontname" : "Arial",
					"numinlets" : 1,
					"numoutlets" : 1,
					"fontsize" : 12.0,
					"outlettype" : [ "" ]
				}

			}
 ],
		"lines" : [ 			{
				"patchline" : 				{
					"source" : [ "obj-10", 0 ],
					"destination" : [ "obj-41", 0 ],
					"hidden" : 0,
					"midpoints" : [ 223.5, 685.0, 368.5, 685.0 ]
				}

			}
, 			{
				"patchline" : 				{
					"source" : [ "obj-11", 0 ],
					"destination" : [ "obj-41", 4 ],
					"hidden" : 0,
					"midpoints" : [  ]
				}

			}
, 			{
				"patchline" : 				{
					"source" : [ "obj-35", 0 ],
					"destination" : [ "obj-41", 3 ],
					"hidden" : 0,
					"midpoints" : [  ]
				}

			}
, 			{
				"patchline" : 				{
					"source" : [ "obj-36", 0 ],
					"destination" : [ "obj-41", 2 ],
					"hidden" : 0,
					"midpoints" : [  ]
				}

			}
, 			{
				"patchline" : 				{
					"source" : [ "obj-37", 0 ],
					"destination" : [ "obj-41", 1 ],
					"hidden" : 0,
					"midpoints" : [  ]
				}

			}
, 			{
				"patchline" : 				{
					"source" : [ "obj-12", 0 ],
					"destination" : [ "obj-41", 0 ],
					"hidden" : 0,
					"midpoints" : [ 300.5, 685.0, 368.5, 685.0 ]
				}

			}
, 			{
				"patchline" : 				{
					"source" : [ "obj-38", 0 ],
					"destination" : [ "obj-41", 0 ],
					"hidden" : 0,
					"midpoints" : [ 340.5, 685.0, 368.5, 685.0 ]
				}

			}
, 			{
				"patchline" : 				{
					"source" : [ "obj-41", 0 ],
					"destination" : [ "obj-17", 1 ],
					"hidden" : 0,
					"midpoints" : [  ]
				}

			}
, 			{
				"patchline" : 				{
					"source" : [ "obj-86", 0 ],
					"destination" : [ "obj-17", 0 ],
					"hidden" : 0,
					"midpoints" : [  ]
				}

			}
, 			{
				"patchline" : 				{
					"source" : [ "obj-17", 0 ],
					"destination" : [ "obj-56", 0 ],
					"hidden" : 0,
					"midpoints" : [  ]
				}

			}
, 			{
				"patchline" : 				{
					"source" : [ "obj-31", 0 ],
					"destination" : [ "obj-14", 0 ],
					"hidden" : 0,
					"midpoints" : [  ]
				}

			}
, 			{
				"patchline" : 				{
					"source" : [ "obj-14", 0 ],
					"destination" : [ "obj-12", 0 ],
					"hidden" : 0,
					"midpoints" : [  ]
				}

			}
, 			{
				"patchline" : 				{
					"source" : [ "obj-14", 0 ],
					"destination" : [ "obj-18", 0 ],
					"hidden" : 0,
					"midpoints" : [  ]
				}

			}
, 			{
				"patchline" : 				{
					"source" : [ "obj-14", 0 ],
					"destination" : [ "obj-19", 0 ],
					"hidden" : 0,
					"midpoints" : [  ]
				}

			}
, 			{
				"patchline" : 				{
					"source" : [ "obj-19", 0 ],
					"destination" : [ "obj-38", 0 ],
					"hidden" : 0,
					"midpoints" : [  ]
				}

			}
, 			{
				"patchline" : 				{
					"source" : [ "obj-6", 0 ],
					"destination" : [ "obj-84", 3 ],
					"hidden" : 0,
					"midpoints" : [  ]
				}

			}
, 			{
				"patchline" : 				{
					"source" : [ "obj-39", 0 ],
					"destination" : [ "obj-40", 0 ],
					"hidden" : 0,
					"midpoints" : [  ]
				}

			}
, 			{
				"patchline" : 				{
					"source" : [ "obj-8", 0 ],
					"destination" : [ "obj-39", 0 ],
					"hidden" : 0,
					"midpoints" : [  ]
				}

			}
, 			{
				"patchline" : 				{
					"source" : [ "obj-31", 0 ],
					"destination" : [ "obj-85", 0 ],
					"hidden" : 0,
					"midpoints" : [  ]
				}

			}
, 			{
				"patchline" : 				{
					"source" : [ "obj-25", 1 ],
					"destination" : [ "obj-49", 0 ],
					"hidden" : 0,
					"midpoints" : [  ]
				}

			}
, 			{
				"patchline" : 				{
					"source" : [ "obj-25", 0 ],
					"destination" : [ "obj-48", 0 ],
					"hidden" : 0,
					"midpoints" : [ 526.0, 318.0 ]
				}

			}
, 			{
				"patchline" : 				{
					"source" : [ "obj-26", 0 ],
					"destination" : [ "obj-47", 0 ],
					"hidden" : 0,
					"midpoints" : [  ]
				}

			}
, 			{
				"patchline" : 				{
					"source" : [ "obj-26", 1 ],
					"destination" : [ "obj-46", 0 ],
					"hidden" : 0,
					"midpoints" : [  ]
				}

			}
, 			{
				"patchline" : 				{
					"source" : [ "obj-27", 0 ],
					"destination" : [ "obj-34", 0 ],
					"hidden" : 0,
					"midpoints" : [  ]
				}

			}
, 			{
				"patchline" : 				{
					"source" : [ "obj-44", 0 ],
					"destination" : [ "obj-43", 0 ],
					"hidden" : 0,
					"midpoints" : [  ]
				}

			}
, 			{
				"patchline" : 				{
					"source" : [ "obj-43", 0 ],
					"destination" : [ "obj-42", 0 ],
					"hidden" : 0,
					"midpoints" : [  ]
				}

			}
, 			{
				"patchline" : 				{
					"source" : [ "obj-42", 0 ],
					"destination" : [ "obj-34", 0 ],
					"hidden" : 0,
					"midpoints" : [  ]
				}

			}
, 			{
				"patchline" : 				{
					"source" : [ "obj-26", 1 ],
					"destination" : [ "obj-45", 1 ],
					"hidden" : 0,
					"midpoints" : [  ]
				}

			}
, 			{
				"patchline" : 				{
					"source" : [ "obj-26", 0 ],
					"destination" : [ "obj-45", 0 ],
					"hidden" : 0,
					"midpoints" : [  ]
				}

			}
, 			{
				"patchline" : 				{
					"source" : [ "obj-45", 0 ],
					"destination" : [ "obj-44", 0 ],
					"hidden" : 0,
					"midpoints" : [  ]
				}

			}
, 			{
				"patchline" : 				{
					"source" : [ "obj-40", 0 ],
					"destination" : [ "obj-56", 0 ],
					"hidden" : 0,
					"midpoints" : [  ]
				}

			}
, 			{
				"patchline" : 				{
					"source" : [ "obj-25", 1 ],
					"destination" : [ "obj-7", 1 ],
					"hidden" : 0,
					"midpoints" : [  ]
				}

			}
, 			{
				"patchline" : 				{
					"source" : [ "obj-25", 0 ],
					"destination" : [ "obj-7", 0 ],
					"hidden" : 0,
					"midpoints" : [  ]
				}

			}
, 			{
				"patchline" : 				{
					"source" : [ "obj-26", 1 ],
					"destination" : [ "obj-28", 0 ],
					"hidden" : 0,
					"midpoints" : [  ]
				}

			}
, 			{
				"patchline" : 				{
					"source" : [ "obj-26", 0 ],
					"destination" : [ "obj-28", 1 ],
					"hidden" : 0,
					"midpoints" : [  ]
				}

			}
, 			{
				"patchline" : 				{
					"source" : [ "obj-34", 0 ],
					"destination" : [ "obj-28", 2 ],
					"hidden" : 0,
					"midpoints" : [  ]
				}

			}
, 			{
				"patchline" : 				{
					"source" : [ "obj-25", 1 ],
					"destination" : [ "obj-84", 0 ],
					"hidden" : 0,
					"midpoints" : [  ]
				}

			}
, 			{
				"patchline" : 				{
					"source" : [ "obj-25", 0 ],
					"destination" : [ "obj-84", 1 ],
					"hidden" : 0,
					"midpoints" : [  ]
				}

			}
, 			{
				"patchline" : 				{
					"source" : [ "obj-80", 1 ],
					"destination" : [ "obj-26", 0 ],
					"hidden" : 0,
					"midpoints" : [  ]
				}

			}
, 			{
				"patchline" : 				{
					"source" : [ "obj-80", 0 ],
					"destination" : [ "obj-25", 0 ],
					"hidden" : 0,
					"midpoints" : [  ]
				}

			}
, 			{
				"patchline" : 				{
					"source" : [ "obj-16", 0 ],
					"destination" : [ "obj-80", 0 ],
					"hidden" : 0,
					"midpoints" : [  ]
				}

			}
, 			{
				"patchline" : 				{
					"source" : [ "obj-69", 1 ],
					"destination" : [ "obj-16", 1 ],
					"hidden" : 0,
					"midpoints" : [  ]
				}

			}
, 			{
				"patchline" : 				{
					"source" : [ "obj-69", 0 ],
					"destination" : [ "obj-16", 0 ],
					"hidden" : 0,
					"midpoints" : [  ]
				}

			}
, 			{
				"patchline" : 				{
					"source" : [ "obj-70", 0 ],
					"destination" : [ "obj-16", 2 ],
					"hidden" : 0,
					"midpoints" : [  ]
				}

			}
, 			{
				"patchline" : 				{
					"source" : [ "obj-66", 0 ],
					"destination" : [ "obj-65", 0 ],
					"hidden" : 0,
					"midpoints" : [  ]
				}

			}
, 			{
				"patchline" : 				{
					"source" : [ "obj-65", 1 ],
					"destination" : [ "obj-69", 0 ],
					"hidden" : 0,
					"midpoints" : [  ]
				}

			}
, 			{
				"patchline" : 				{
					"source" : [ "obj-29", 0 ],
					"destination" : [ "obj-32", 0 ],
					"hidden" : 0,
					"midpoints" : [ 271.5, 88.5, 410.5, 88.5 ]
				}

			}
, 			{
				"patchline" : 				{
					"source" : [ "obj-32", 0 ],
					"destination" : [ "obj-31", 0 ],
					"hidden" : 0,
					"midpoints" : [  ]
				}

			}
, 			{
				"patchline" : 				{
					"source" : [ "obj-33", 0 ],
					"destination" : [ "obj-31", 0 ],
					"hidden" : 0,
					"midpoints" : [  ]
				}

			}
, 			{
				"patchline" : 				{
					"source" : [ "obj-3", 0 ],
					"destination" : [ "obj-5", 0 ],
					"hidden" : 0,
					"midpoints" : [  ]
				}

			}
, 			{
				"patchline" : 				{
					"source" : [ "obj-7", 0 ],
					"destination" : [ "obj-8", 0 ],
					"hidden" : 0,
					"midpoints" : [  ]
				}

			}
, 			{
				"patchline" : 				{
					"source" : [ "obj-66", 1 ],
					"destination" : [ "obj-70", 0 ],
					"hidden" : 0,
					"midpoints" : [  ]
				}

			}
, 			{
				"patchline" : 				{
					"source" : [ "obj-74", 0 ],
					"destination" : [ "obj-75", 0 ],
					"hidden" : 0,
					"midpoints" : [  ]
				}

			}
, 			{
				"patchline" : 				{
					"source" : [ "obj-77", 0 ],
					"destination" : [ "obj-76", 0 ],
					"hidden" : 0,
					"midpoints" : [  ]
				}

			}
, 			{
				"patchline" : 				{
					"source" : [ "obj-69", 1 ],
					"destination" : [ "obj-77", 0 ],
					"hidden" : 0,
					"midpoints" : [  ]
				}

			}
, 			{
				"patchline" : 				{
					"source" : [ "obj-69", 0 ],
					"destination" : [ "obj-74", 0 ],
					"hidden" : 0,
					"midpoints" : [  ]
				}

			}
, 			{
				"patchline" : 				{
					"source" : [ "obj-56", 0 ],
					"destination" : [ "obj-84", 2 ],
					"hidden" : 0,
					"midpoints" : [  ]
				}

			}
, 			{
				"patchline" : 				{
					"source" : [ "obj-1", 3 ],
					"destination" : [ "obj-66", 0 ],
					"hidden" : 0,
					"midpoints" : [  ]
				}

			}
, 			{
				"patchline" : 				{
					"source" : [ "obj-1", 2 ],
					"destination" : [ "obj-32", 0 ],
					"hidden" : 0,
					"midpoints" : [ 138.300003, 94.5, 410.5, 94.5 ]
				}

			}
, 			{
				"patchline" : 				{
					"source" : [ "obj-1", 1 ],
					"destination" : [ "obj-33", 0 ],
					"hidden" : 0,
					"midpoints" : [ 99.900002, 103.5, 368.5, 103.5 ]
				}

			}
, 			{
				"patchline" : 				{
					"source" : [ "obj-5", 0 ],
					"destination" : [ "obj-1", 0 ],
					"hidden" : 0,
					"midpoints" : [  ]
				}

			}
, 			{
				"patchline" : 				{
					"source" : [ "obj-4", 0 ],
					"destination" : [ "obj-2", 0 ],
					"hidden" : 0,
					"midpoints" : [  ]
				}

			}
, 			{
				"patchline" : 				{
					"source" : [ "obj-1", 4 ],
					"destination" : [ "obj-4", 0 ],
					"hidden" : 0,
					"midpoints" : [  ]
				}

			}
, 			{
				"patchline" : 				{
					"source" : [ "obj-2", 0 ],
					"destination" : [ "obj-6", 0 ],
					"hidden" : 0,
					"midpoints" : [  ]
				}

			}
 ]
	}

}
