{
	"patcher" : 	{
		"fileversion" : 1,
		"rect" : [ 25.0, 69.0, 980.0, 703.0 ],
		"bglocked" : 0,
		"defrect" : [ 25.0, 69.0, 980.0, 703.0 ],
		"openrect" : [ 0.0, 0.0, 0.0, 0.0 ],
		"openinpresentation" : 0,
		"default_fontsize" : 12.0,
		"default_fontface" : 0,
		"default_fontname" : "Arial",
		"gridonopen" : 0,
		"gridsize" : [ 15.0, 15.0 ],
		"gridsnaponopen" : 0,
		"toolbarvisible" : 1,
		"boxanimatetime" : 200,
		"imprint" : 0,
		"enablehscroll" : 1,
		"enablevscroll" : 1,
		"devicewidth" : 0.0,
		"boxes" : [ 			{
				"box" : 				{
					"maxclass" : "newobj",
					"text" : "scale -1. 1. 0. 1.",
					"outlettype" : [ "" ],
					"fontsize" : 12.0,
					"numinlets" : 6,
					"numoutlets" : 1,
					"id" : "obj-24",
					"fontname" : "Arial",
					"patching_rect" : [ 394.0, 23.0, 96.0, 20.0 ]
				}

			}
, 			{
				"box" : 				{
					"maxclass" : "number~",
					"outlettype" : [ "signal", "float" ],
					"mode" : 2,
					"sig" : 0.0,
					"fontsize" : 12.0,
					"numinlets" : 2,
					"numoutlets" : 2,
					"id" : "obj-23",
					"fontname" : "Arial",
					"patching_rect" : [ 324.0, 38.0, 56.0, 20.0 ]
				}

			}
, 			{
				"box" : 				{
					"maxclass" : "flonum",
					"outlettype" : [ "float", "bang" ],
					"fontsize" : 12.0,
					"numinlets" : 1,
					"numoutlets" : 2,
					"id" : "obj-22",
					"fontname" : "Arial",
					"patching_rect" : [ 497.0, 43.0, 50.0, 20.0 ]
				}

			}
, 			{
				"box" : 				{
					"maxclass" : "newobj",
					"text" : "cycle~ 0.1",
					"outlettype" : [ "signal" ],
					"fontsize" : 12.0,
					"numinlets" : 2,
					"numoutlets" : 1,
					"id" : "obj-21",
					"fontname" : "Arial",
					"patching_rect" : [ 300.0, 17.0, 65.0, 20.0 ]
				}

			}
, 			{
				"box" : 				{
					"maxclass" : "newobj",
					"text" : "split 0. 0.5",
					"outlettype" : [ "float", "float" ],
					"fontsize" : 12.0,
					"numinlets" : 3,
					"numoutlets" : 2,
					"id" : "obj-19",
					"fontname" : "Arial",
					"patching_rect" : [ 548.0, 181.0, 65.0, 20.0 ]
				}

			}
, 			{
				"box" : 				{
					"maxclass" : "newobj",
					"text" : "scale 0. 0.5 0. 1.",
					"outlettype" : [ "" ],
					"fontsize" : 12.0,
					"numinlets" : 6,
					"numoutlets" : 1,
					"id" : "obj-20",
					"fontname" : "Arial",
					"patching_rect" : [ 547.0, 213.0, 99.0, 20.0 ]
				}

			}
, 			{
				"box" : 				{
					"maxclass" : "newobj",
					"text" : "split 0.5 1.",
					"outlettype" : [ "float", "float" ],
					"fontsize" : 12.0,
					"numinlets" : 3,
					"numoutlets" : 2,
					"id" : "obj-18",
					"fontname" : "Arial",
					"patching_rect" : [ 434.0, 181.0, 65.0, 20.0 ]
				}

			}
, 			{
				"box" : 				{
					"maxclass" : "newobj",
					"text" : "* 100.",
					"outlettype" : [ "float" ],
					"fontsize" : 12.0,
					"numinlets" : 2,
					"numoutlets" : 1,
					"id" : "obj-16",
					"fontname" : "Arial",
					"patching_rect" : [ 524.0, 299.0, 42.0, 20.0 ]
				}

			}
, 			{
				"box" : 				{
					"maxclass" : "flonum",
					"outlettype" : [ "float", "bang" ],
					"fontsize" : 12.0,
					"numinlets" : 1,
					"numoutlets" : 2,
					"id" : "obj-14",
					"fontname" : "Arial",
					"patching_rect" : [ 433.0, 256.0, 50.0, 20.0 ]
				}

			}
, 			{
				"box" : 				{
					"maxclass" : "newobj",
					"text" : "scale 0.5 1. 1. 0.",
					"outlettype" : [ "" ],
					"fontsize" : 12.0,
					"numinlets" : 6,
					"numoutlets" : 1,
					"id" : "obj-13",
					"fontname" : "Arial",
					"patching_rect" : [ 433.0, 213.0, 99.0, 20.0 ]
				}

			}
, 			{
				"box" : 				{
					"maxclass" : "flonum",
					"outlettype" : [ "float", "bang" ],
					"fontsize" : 12.0,
					"numinlets" : 1,
					"numoutlets" : 2,
					"id" : "obj-12",
					"fontname" : "Arial",
					"patching_rect" : [ 434.0, 146.0, 50.0, 20.0 ]
				}

			}
, 			{
				"box" : 				{
					"maxclass" : "newobj",
					"text" : "* 100.",
					"outlettype" : [ "float" ],
					"fontsize" : 12.0,
					"numinlets" : 2,
					"numoutlets" : 1,
					"id" : "obj-11",
					"fontname" : "Arial",
					"patching_rect" : [ 432.0, 300.0, 42.0, 20.0 ]
				}

			}
, 			{
				"box" : 				{
					"maxclass" : "number",
					"outlettype" : [ "int", "bang" ],
					"fontsize" : 12.0,
					"numinlets" : 1,
					"numoutlets" : 2,
					"id" : "obj-10",
					"fontname" : "Arial",
					"patching_rect" : [ 634.0, 233.0, 50.0, 20.0 ]
				}

			}
, 			{
				"box" : 				{
					"maxclass" : "slider",
					"outlettype" : [ "" ],
					"floatoutput" : 1,
					"numinlets" : 1,
					"size" : 1.0,
					"numoutlets" : 1,
					"id" : "obj-9",
					"patching_rect" : [ 332.0, 86.0, 191.0, 27.0 ]
				}

			}
, 			{
				"box" : 				{
					"maxclass" : "flonum",
					"outlettype" : [ "float", "bang" ],
					"fontsize" : 12.0,
					"numinlets" : 1,
					"numoutlets" : 2,
					"id" : "obj-8",
					"fontname" : "Arial",
					"patching_rect" : [ 221.0, 431.0, 50.0, 20.0 ]
				}

			}
, 			{
				"box" : 				{
					"maxclass" : "gain~",
					"outlettype" : [ "signal", "int" ],
					"numinlets" : 2,
					"interp" : 6.939227,
					"numoutlets" : 2,
					"id" : "obj-6",
					"patching_rect" : [ 296.0, 246.0, 46.0, 139.0 ]
				}

			}
, 			{
				"box" : 				{
					"maxclass" : "ezdac~",
					"numinlets" : 2,
					"numoutlets" : 0,
					"id" : "obj-5",
					"patching_rect" : [ 318.0, 492.0, 45.0, 45.0 ]
				}

			}
, 			{
				"box" : 				{
					"maxclass" : "gain~",
					"outlettype" : [ "signal", "int" ],
					"numinlets" : 2,
					"interp" : 150.060776,
					"numoutlets" : 2,
					"id" : "obj-4",
					"patching_rect" : [ 215.0, 244.0, 46.0, 139.0 ]
				}

			}
, 			{
				"box" : 				{
					"maxclass" : "number",
					"outlettype" : [ "int", "bang" ],
					"fontsize" : 12.0,
					"numinlets" : 1,
					"numoutlets" : 2,
					"id" : "obj-3",
					"fontname" : "Arial",
					"patching_rect" : [ 205.0, 50.0, 50.0, 20.0 ]
				}

			}
, 			{
				"box" : 				{
					"maxclass" : "newobj",
					"text" : "cycle~",
					"outlettype" : [ "signal" ],
					"fontsize" : 12.0,
					"numinlets" : 2,
					"numoutlets" : 1,
					"id" : "obj-2",
					"fontname" : "Arial",
					"patching_rect" : [ 206.0, 90.0, 45.0, 20.0 ]
				}

			}
, 			{
				"box" : 				{
					"maxclass" : "newobj",
					"text" : "dac~",
					"fontsize" : 12.0,
					"numinlets" : 2,
					"numoutlets" : 0,
					"id" : "obj-1",
					"fontname" : "Arial",
					"patching_rect" : [ 294.0, 424.0, 37.0, 20.0 ]
				}

			}
 ],
		"lines" : [ 			{
				"patchline" : 				{
					"source" : [ "obj-22", 0 ],
					"destination" : [ "obj-9", 0 ],
					"hidden" : 0,
					"midpoints" : [  ]
				}

			}
, 			{
				"patchline" : 				{
					"source" : [ "obj-24", 0 ],
					"destination" : [ "obj-22", 0 ],
					"hidden" : 0,
					"midpoints" : [  ]
				}

			}
, 			{
				"patchline" : 				{
					"source" : [ "obj-23", 1 ],
					"destination" : [ "obj-24", 0 ],
					"hidden" : 0,
					"midpoints" : [  ]
				}

			}
, 			{
				"patchline" : 				{
					"source" : [ "obj-21", 0 ],
					"destination" : [ "obj-23", 0 ],
					"hidden" : 0,
					"midpoints" : [  ]
				}

			}
, 			{
				"patchline" : 				{
					"source" : [ "obj-20", 0 ],
					"destination" : [ "obj-16", 0 ],
					"hidden" : 0,
					"midpoints" : [  ]
				}

			}
, 			{
				"patchline" : 				{
					"source" : [ "obj-19", 0 ],
					"destination" : [ "obj-20", 0 ],
					"hidden" : 0,
					"midpoints" : [  ]
				}

			}
, 			{
				"patchline" : 				{
					"source" : [ "obj-12", 0 ],
					"destination" : [ "obj-19", 0 ],
					"hidden" : 0,
					"midpoints" : [ 556.0, 171.0 ]
				}

			}
, 			{
				"patchline" : 				{
					"source" : [ "obj-13", 0 ],
					"destination" : [ "obj-14", 0 ],
					"hidden" : 0,
					"midpoints" : [  ]
				}

			}
, 			{
				"patchline" : 				{
					"source" : [ "obj-18", 0 ],
					"destination" : [ "obj-13", 0 ],
					"hidden" : 0,
					"midpoints" : [  ]
				}

			}
, 			{
				"patchline" : 				{
					"source" : [ "obj-12", 0 ],
					"destination" : [ "obj-18", 0 ],
					"hidden" : 0,
					"midpoints" : [  ]
				}

			}
, 			{
				"patchline" : 				{
					"source" : [ "obj-16", 0 ],
					"destination" : [ "obj-6", 0 ],
					"hidden" : 0,
					"midpoints" : [  ]
				}

			}
, 			{
				"patchline" : 				{
					"source" : [ "obj-14", 0 ],
					"destination" : [ "obj-11", 0 ],
					"hidden" : 0,
					"midpoints" : [  ]
				}

			}
, 			{
				"patchline" : 				{
					"source" : [ "obj-11", 0 ],
					"destination" : [ "obj-4", 0 ],
					"hidden" : 0,
					"midpoints" : [  ]
				}

			}
, 			{
				"patchline" : 				{
					"source" : [ "obj-9", 0 ],
					"destination" : [ "obj-12", 0 ],
					"hidden" : 0,
					"midpoints" : [  ]
				}

			}
, 			{
				"patchline" : 				{
					"source" : [ "obj-2", 0 ],
					"destination" : [ "obj-6", 0 ],
					"hidden" : 0,
					"midpoints" : [  ]
				}

			}
, 			{
				"patchline" : 				{
					"source" : [ "obj-4", 1 ],
					"destination" : [ "obj-8", 0 ],
					"hidden" : 0,
					"midpoints" : [  ]
				}

			}
, 			{
				"patchline" : 				{
					"source" : [ "obj-6", 0 ],
					"destination" : [ "obj-1", 1 ],
					"hidden" : 0,
					"midpoints" : [  ]
				}

			}
, 			{
				"patchline" : 				{
					"source" : [ "obj-4", 0 ],
					"destination" : [ "obj-1", 0 ],
					"hidden" : 0,
					"midpoints" : [  ]
				}

			}
, 			{
				"patchline" : 				{
					"source" : [ "obj-2", 0 ],
					"destination" : [ "obj-4", 0 ],
					"hidden" : 0,
					"midpoints" : [  ]
				}

			}
, 			{
				"patchline" : 				{
					"source" : [ "obj-3", 0 ],
					"destination" : [ "obj-2", 0 ],
					"hidden" : 0,
					"midpoints" : [  ]
				}

			}
 ]
	}

}
